<svg width="31" height="31" viewBox="0 0 31 31" fill="none" xmlns="http://www.w3.org/2000/svg">
<path d="M25.9277 14.1797C25.9277 14.3164 25.874 14.4482 25.7666 14.5752C25.6592 14.7021 25.5176 14.7656 25.3418 14.7656C25.1855 14.7656 25.0488 14.7119 24.9316 14.6045C24.8145 14.4971 24.7559 14.3555 24.7559 14.1797C24.7559 14.0234 24.8096 13.8867 24.917 13.7695C25.0244 13.6523 25.166 13.5938 25.3418 13.5938C25.4785 13.5938 25.6104 13.6523 25.7373 13.7695C25.8643 13.8867 25.9277 14.0234 25.9277 14.1797ZM5.5957 14.1797C5.5957 14.3164 5.54199 14.4482 5.43457 14.5752C5.32715 14.7021 5.18555 14.7656 5.00977 14.7656C4.87305 14.7656 4.74121 14.7119 4.61426 14.6045C4.4873 14.4971 4.42383 14.3555 4.42383 14.1797C4.42383 14.0234 4.47754 13.8867 4.58496 13.7695C4.69238 13.6523 4.83398 13.5938 5.00977 13.5938C5.18555 13.5938 5.32715 13.6475 5.43457 13.7549C5.54199 13.8623 5.5957 14.0039 5.5957 14.1797ZM7.32422 15.8203C7.32422 15.9766 7.27051 16.1133 7.16309 16.2305C7.05566 16.3477 6.91406 16.4062 6.73828 16.4062C6.58203 16.4062 6.44531 16.3525 6.32812 16.2451C6.21094 16.1377 6.15234 15.9961 6.15234 15.8203C6.15234 15.6836 6.20605 15.5518 6.31348 15.4248C6.4209 15.2979 6.5625 15.2344 6.73828 15.2344C6.91406 15.2734 7.05566 15.3467 7.16309 15.4541C7.27051 15.5615 7.32422 15.6836 7.32422 15.8203ZM10.6934 15.8203C10.6934 15.9766 10.6396 16.1133 10.5322 16.2305C10.4248 16.3477 10.2832 16.4062 10.1074 16.4062C9.95117 16.4062 9.81445 16.3525 9.69727 16.2451C9.58008 16.1377 9.52148 15.9961 9.52148 15.8203C9.52148 15.6836 9.5752 15.5518 9.68262 15.4248C9.79004 15.2979 9.93164 15.2344 10.1074 15.2344C10.2832 15.2734 10.4248 15.3467 10.5322 15.4541C10.6396 15.5615 10.6934 15.6836 10.6934 15.8203ZM9.02344 17.5488C9.02344 17.6855 8.96973 17.8174 8.8623 17.9443C8.75488 18.0713 8.61328 18.1348 8.4375 18.1348C8.30078 18.1348 8.16895 18.0811 8.04199 17.9736C7.91504 17.8662 7.85156 17.7246 7.85156 17.5488C7.85156 17.3926 7.90527 17.2559 8.0127 17.1387C8.12012 17.0215 8.26172 16.9629 8.4375 16.9629C8.59375 16.9629 8.73047 17.0215 8.84766 17.1387C8.96484 17.2559 9.02344 17.3926 9.02344 17.5488ZM12.3926 17.5488C12.3926 17.6855 12.3389 17.8174 12.2314 17.9443C12.124 18.0713 11.9824 18.1348 11.8066 18.1348C11.6699 18.1348 11.5381 18.0811 11.4111 17.9736C11.2842 17.8662 11.2207 17.7246 11.2207 17.5488C11.2207 17.3926 11.2744 17.2559 11.3818 17.1387C11.4893 17.0215 11.6309 16.9629 11.8066 16.9629C11.9824 16.9629 12.124 17.0215 12.2314 17.1387C12.3389 17.2559 12.3926 17.3926 12.3926 17.5488ZM14.0625 19.248C14.0625 19.4043 14.0088 19.541 13.9014 19.6582C13.7939 19.7754 13.6523 19.834 13.4766 19.834C13.3203 19.834 13.1787 19.7803 13.0518 19.6729C12.9248 19.5654 12.8613 19.4238 12.8613 19.248C12.8613 19.1113 12.9199 18.9795 13.0371 18.8525C13.1543 18.7256 13.3008 18.6621 13.4766 18.6621C13.6523 18.6621 13.7939 18.7158 13.9014 18.8232C14.0088 18.9307 14.0625 19.0723 14.0625 19.248ZM17.4902 19.248C17.4902 19.4043 17.4365 19.541 17.3291 19.6582C17.2217 19.7754 17.0801 19.834 16.9043 19.834C16.748 19.834 16.6064 19.7803 16.4795 19.6729C16.3525 19.5654 16.2891 19.4238 16.2891 19.248C16.2891 19.1113 16.3428 18.9795 16.4502 18.8525C16.5576 18.7256 16.709 18.6621 16.9043 18.6621C17.041 18.6621 17.1729 18.7158 17.2998 18.8232C17.4268 18.9307 17.4902 19.0723 17.4902 19.248ZM19.1309 17.5488C19.1309 17.6855 19.0771 17.8174 18.9697 17.9443C18.8623 18.0713 18.7207 18.1348 18.5449 18.1348C18.3691 18.1348 18.2275 18.0811 18.1201 17.9736C18.0127 17.8662 17.959 17.7246 17.959 17.5488C17.959 17.3926 18.0127 17.2559 18.1201 17.1387C18.2275 17.0215 18.3691 16.9629 18.5449 16.9629C18.7207 16.9629 18.8623 17.0215 18.9697 17.1387C19.0771 17.2559 19.1309 17.3926 19.1309 17.5488ZM15.7617 20.918C15.7617 21.0547 15.708 21.1865 15.6006 21.3135C15.4932 21.4404 15.3516 21.5039 15.1758 21.5039C15.0195 21.5039 14.8828 21.4502 14.7656 21.3428C14.6484 21.2354 14.5898 21.0938 14.5898 20.918C14.5898 20.7617 14.6436 20.6201 14.751 20.4932C14.8584 20.3662 15 20.3027 15.1758 20.3027C15.3516 20.3418 15.4932 20.415 15.6006 20.5225C15.708 20.6299 15.7617 20.7617 15.7617 20.918ZM20.8594 15.8203C20.8594 15.9766 20.8008 16.1133 20.6836 16.2305C20.5664 16.3477 20.4199 16.4062 20.2441 16.4062C20.1074 16.4062 19.9756 16.3525 19.8486 16.2451C19.7217 16.1377 19.6582 15.9961 19.6582 15.8203C19.6582 15.6836 19.7119 15.5518 19.8193 15.4248C19.9268 15.2979 20.0684 15.2344 20.2441 15.2344C20.4199 15.2734 20.5664 15.3467 20.6836 15.4541C20.8008 15.5615 20.8594 15.6836 20.8594 15.8203ZM24.1992 15.8203C24.1992 15.9766 24.1455 16.1133 24.0381 16.2305C23.9307 16.3477 23.7891 16.4062 23.6133 16.4062C23.4766 16.4062 23.3447 16.3525 23.2178 16.2451C23.0908 16.1377 23.0273 15.9961 23.0273 15.8203C23.0273 15.6836 23.0811 15.5518 23.1885 15.4248C23.2959 15.2979 23.4375 15.2344 23.6133 15.2344C23.7891 15.2734 23.9307 15.3467 24.0381 15.4541C24.1455 15.5615 24.1992 15.6836 24.1992 15.8203ZM22.5586 17.5488C22.5586 17.6855 22.5049 17.8174 22.3975 17.9443C22.29 18.0713 22.1484 18.1348 21.9727 18.1348C21.8164 18.1348 21.6797 18.0811 21.5625 17.9736C21.4453 17.8662 21.3867 17.7246 21.3867 17.5488C21.3867 17.3926 21.4404 17.2559 21.5479 17.1387C21.6553 17.0215 21.7969 16.9629 21.9727 16.9629C22.1094 16.9629 22.2412 17.0215 22.3682 17.1387C22.4951 17.2559 22.5586 17.3926 22.5586 17.5488ZM25.6934 18.0176L30.9961 15L25.5762 11.9238L30.9961 8.78906L15.4688 0L0 8.78906L5.41992 11.9238L0 15L5.41992 18.1348L0 21.2109L15.4688 30.0586L30.9375 21.2109L25.5176 18.1348H25.5762C25.5957 18.0957 25.6104 18.0713 25.6201 18.0615C25.6299 18.0518 25.6543 18.0371 25.6934 18.0176ZM15.4688 1.28906L28.6523 8.78906L15.4688 16.2891L2.25586 8.78906L15.4688 1.28906ZM6.26953 12.6855C6.32812 12.8418 6.43066 12.9443 6.57715 12.9932C6.72363 13.042 6.875 13.0176 7.03125 12.9199C7.05078 12.9199 7.0752 12.9102 7.10449 12.8906C7.13379 12.8711 7.16797 12.8418 7.20703 12.8027L8.49609 13.5352C8.35938 13.5352 8.2373 13.584 8.12988 13.6816C8.02246 13.7793 7.96875 13.9062 7.96875 14.0625C7.96875 14.1992 8.02246 14.3213 8.12988 14.4287C8.2373 14.5361 8.35938 14.6094 8.49609 14.6484C8.65234 14.6484 8.78906 14.5947 8.90625 14.4873C9.02344 14.3799 9.08203 14.2383 9.08203 14.0625C9.08203 14.0039 9.08203 13.9551 9.08203 13.916C9.08203 13.877 9.0625 13.8477 9.02344 13.8281L14.8242 17.1387C14.7852 17.1973 14.7559 17.251 14.7363 17.2998C14.7168 17.3486 14.707 17.3926 14.707 17.4316C14.7266 17.5684 14.7949 17.6904 14.9121 17.7979C15.0293 17.9053 15.1758 17.959 15.3516 17.959C15.4688 17.9199 15.5811 17.8564 15.6885 17.7686C15.7959 17.6807 15.8594 17.5684 15.8789 17.4316C15.8789 17.4316 15.8789 17.4219 15.8789 17.4023C15.8789 17.3828 15.8789 17.373 15.8789 17.373L21.5039 14.1211C21.5234 14.2578 21.5869 14.375 21.6943 14.4727C21.8018 14.5703 21.9336 14.6094 22.0898 14.5898C22.2266 14.5508 22.3486 14.4775 22.4561 14.3701C22.5635 14.2627 22.5977 14.1406 22.5586 14.0039C22.5586 13.9062 22.5342 13.8281 22.4854 13.7695C22.4365 13.7109 22.3828 13.6719 22.3242 13.6523L23.5547 12.9199H23.6133C23.7305 12.9199 23.8428 12.8809 23.9502 12.8027C24.0576 12.7246 24.1211 12.627 24.1406 12.5098L24.3164 12.3926L28.6523 14.8242L27.5098 15.4688C27.4902 15.3906 27.4268 15.3125 27.3193 15.2344C27.2119 15.1562 27.0996 15.1172 26.9824 15.1172C26.8457 15.1172 26.7139 15.1709 26.5869 15.2783C26.46 15.3857 26.3965 15.5078 26.3965 15.6445C26.3965 15.7031 26.4111 15.7617 26.4404 15.8203C26.4697 15.8789 26.4941 15.918 26.5137 15.9375L24.3164 17.3145L20.7422 19.4824C20.7617 19.4629 20.7764 19.4238 20.7861 19.3652C20.7959 19.3066 20.8008 19.248 20.8008 19.1895C20.8008 19.0527 20.7471 18.9209 20.6396 18.7939C20.5322 18.667 20.4004 18.6035 20.2441 18.6035C20.1074 18.6035 19.9756 18.6572 19.8486 18.7646C19.7217 18.8721 19.6582 18.9941 19.6582 19.1309C19.6582 19.2871 19.7119 19.4189 19.8193 19.5264C19.9268 19.6338 20.0488 19.6973 20.1855 19.7168L18.8965 20.4199C18.8379 20.3613 18.7744 20.3174 18.7061 20.2881C18.6377 20.2588 18.5645 20.2441 18.4863 20.2441C18.3301 20.2441 18.1934 20.2979 18.0762 20.4053C17.959 20.5127 17.9004 20.6445 17.9004 20.8008C17.9004 20.8203 17.9004 20.835 17.9004 20.8447C17.9004 20.8545 17.9004 20.8789 17.9004 20.918L15.293 22.3828L12.1582 20.625C12.1387 20.4883 12.0752 20.3809 11.9678 20.3027C11.8604 20.2246 11.748 20.1855 11.6309 20.1855H11.5137L10.2832 19.4824C10.4004 19.4043 10.4688 19.2871 10.4883 19.1309C10.5078 18.9746 10.4785 18.8379 10.4004 18.7207C10.3418 18.6621 10.2686 18.6084 10.1807 18.5596C10.0928 18.5107 10.0098 18.4863 9.93164 18.4863C9.77539 18.4863 9.64844 18.5352 9.55078 18.6328C9.45312 18.7305 9.4043 18.8379 9.4043 18.9551L3.7793 15.7031C3.7793 15.7031 3.7793 15.6934 3.7793 15.6738C3.7793 15.6543 3.7793 15.6445 3.7793 15.6445C3.7793 15.5078 3.72559 15.376 3.61816 15.249C3.51074 15.1221 3.36914 15.0586 3.19336 15.0586C3.13477 15.0586 3.07617 15.0732 3.01758 15.1025C2.95898 15.1318 2.90039 15.1562 2.8418 15.1758L2.08008 14.7656L6.26953 12.6855ZM28.6523 21.1523L15.4688 28.7695L2.25586 21.2109L6.5625 18.7793L15.4688 23.8477L24.4043 18.7793L28.6523 21.1523Z" fill="#E8F5E9"/>
</svg>
