<svg width="22" height="19" viewBox="0 0 22 19" fill="none" xmlns="http://www.w3.org/2000/svg">
<path d="M20.1953 0H1.80469C1.30339 0 0.877279 0.172792 0.526367 0.518373C0.175456 0.863956 0 1.27654 0 1.75612V12.3563C0 12.85 0.175456 13.2697 0.526367 13.6153C0.877279 13.9608 1.30339 14.1336 1.80469 14.1336H2.83594V18.4922C2.83594 18.5909 2.86458 18.6826 2.92188 18.7673C2.97917 18.8519 3.05794 18.9154 3.1582 18.9577C3.18685 18.9718 3.21908 18.9824 3.25488 18.9894C3.29069 18.9965 3.32292 19 3.35156 19C3.42318 19 3.49121 18.9859 3.55566 18.9577C3.62012 18.9295 3.67383 18.8942 3.7168 18.8519L8.50781 14.1336H20.1953C20.6966 14.1336 21.1227 13.9608 21.4736 13.6153C21.8245 13.2697 22 12.85 22 12.3563V1.75612C22 1.27654 21.8245 0.863956 21.4736 0.518373C21.1227 0.172792 20.6966 0 20.1953 0ZM20.1953 13.118H8.29297C8.23568 13.118 8.1748 13.1321 8.11035 13.1604C8.0459 13.1886 7.99219 13.2168 7.94922 13.245C7.94922 13.245 7.94922 13.2485 7.94922 13.2556C7.94922 13.2626 7.94922 13.2661 7.94922 13.2661C7.94922 13.2661 7.94564 13.2661 7.93848 13.2661C7.93131 13.2661 7.92773 13.2661 7.92773 13.2661L3.86719 17.2862V13.6258C3.86719 13.6117 3.86719 13.6012 3.86719 13.5941C3.86719 13.587 3.86719 13.5835 3.86719 13.5835C3.85286 13.4566 3.79557 13.3473 3.69531 13.2556C3.59505 13.1639 3.48047 13.118 3.35156 13.118H1.80469C1.58984 13.118 1.40723 13.044 1.25684 12.8959C1.10645 12.7478 1.03125 12.5679 1.03125 12.3563V1.75612C1.03125 1.54454 1.10645 1.3647 1.25684 1.21659C1.40723 1.06849 1.58984 0.994432 1.80469 0.994432H20.1953C20.4102 0.994432 20.5928 1.06849 20.7432 1.21659C20.8936 1.3647 20.9688 1.54454 20.9688 1.75612V12.3563C20.9688 12.5679 20.8936 12.7478 20.7432 12.8959C20.5928 13.044 20.4102 13.118 20.1953 13.118ZM7.47656 3.68151H4.49023C4.34701 3.68151 4.22526 3.73088 4.125 3.82962C4.02474 3.92836 3.97461 4.0412 3.97461 4.16815C3.97461 4.30921 4.02474 4.4291 4.125 4.52784C4.22526 4.62658 4.34701 4.67595 4.49023 4.67595H7.47656C7.61979 4.67595 7.74154 4.62658 7.8418 4.52784C7.94206 4.4291 7.99219 4.30921 7.99219 4.16815C7.99219 4.0412 7.94206 3.92836 7.8418 3.82962C7.74154 3.73088 7.61979 3.68151 7.47656 3.68151ZM12.7832 6.55902H4.49023C4.34701 6.55902 4.22526 6.60839 4.125 6.70713C4.02474 6.80587 3.97461 6.92576 3.97461 7.06682C3.97461 7.20787 4.02474 7.32777 4.125 7.4265C4.22526 7.52524 4.34701 7.57461 4.49023 7.57461H12.7832C12.9264 7.57461 13.0482 7.52524 13.1484 7.4265C13.2487 7.32777 13.2988 7.20787 13.2988 7.06682C13.2988 6.92576 13.2487 6.80587 13.1484 6.70713C13.0482 6.60839 12.9264 6.55902 12.7832 6.55902ZM17.5098 3.68151H10.4629C10.3197 3.68151 10.1979 3.73088 10.0977 3.82962C9.9974 3.92836 9.94727 4.0412 9.94727 4.16815C9.94727 4.30921 9.9974 4.4291 10.0977 4.52784C10.1979 4.62658 10.3197 4.67595 10.4629 4.67595H17.5098C17.653 4.67595 17.7747 4.62658 17.875 4.52784C17.9753 4.4291 18.0254 4.30921 18.0254 4.16815C18.0254 4.0412 17.9753 3.92836 17.875 3.82962C17.7747 3.73088 17.653 3.68151 17.5098 3.68151ZM17.5098 6.55902H15.6621C15.5189 6.55902 15.3971 6.60839 15.2969 6.70713C15.1966 6.80587 15.1465 6.92576 15.1465 7.06682C15.1465 7.20787 15.1966 7.32777 15.2969 7.4265C15.3971 7.52524 15.5189 7.57461 15.6621 7.57461H17.5098C17.653 7.57461 17.7747 7.52524 17.875 7.4265C17.9753 7.32777 18.0254 7.20787 18.0254 7.06682C18.0254 6.92576 17.9753 6.80587 17.875 6.70713C17.7747 6.60839 17.653 6.55902 17.5098 6.55902ZM9.13086 9.43653H4.49023C4.34701 9.43653 4.22526 9.48589 4.125 9.58463C4.02474 9.68337 3.97461 9.80327 3.97461 9.94432C3.97461 10.0854 4.02474 10.2053 4.125 10.304C4.22526 10.4027 4.34701 10.4521 4.49023 10.4521H9.13086C9.27409 10.4521 9.39583 10.4027 9.49609 10.304C9.59635 10.2053 9.64648 10.0854 9.64648 9.94432C9.64648 9.80327 9.59635 9.68337 9.49609 9.58463C9.39583 9.48589 9.27409 9.43653 9.13086 9.43653ZM17.5098 9.43653H11.8379C11.6947 9.43653 11.5765 9.48589 11.4834 9.58463C11.3903 9.68337 11.3438 9.80327 11.3438 9.94432C11.3438 10.0854 11.3903 10.2053 11.4834 10.304C11.5765 10.4027 11.6947 10.4521 11.8379 10.4521H17.5098C17.653 10.4521 17.7747 10.4027 17.875 10.304C17.9753 10.2053 18.0254 10.0854 18.0254 9.94432C18.0254 9.80327 17.9753 9.68337 17.875 9.58463C17.7747 9.48589 17.653 9.43653 17.5098 9.43653Z" fill="white"/>
</svg>
