<svg width="22" height="22" viewBox="0 0 22 22" fill="none" xmlns="http://www.w3.org/2000/svg">
<path d="M10.6562 0C4.77095 0 0 4.77095 0 10.6562C0 16.5415 4.77095 21.3125 10.6562 21.3125C16.5415 21.3125 21.3125 16.5415 21.3125 10.6562C21.3125 4.77095 16.5415 0 10.6562 0ZM10.6562 2.0625C15.4057 2.0625 19.25 5.9061 19.25 10.6562C19.25 15.4057 15.4064 19.25 10.6562 19.25C5.90683 19.25 2.0625 15.4064 2.0625 10.6562C2.0625 5.90683 5.9061 2.0625 10.6562 2.0625ZM16.6806 7.65991L15.7123 6.68375C15.5118 6.48158 15.1853 6.48025 14.9831 6.68082L8.9094 12.7057L6.34021 10.1157C6.13968 9.91354 5.8132 9.9122 5.61103 10.1127L4.63482 11.0811C4.43266 11.2816 4.43132 11.6081 4.6319 11.8103L8.53265 15.7426C8.73318 15.9448 9.05966 15.9461 9.26183 15.7456L16.6778 8.38913C16.8799 8.18855 16.8812 7.86208 16.6806 7.65991Z" fill="#4CAF50"/>
</svg>
