<svg width="28" height="27" viewBox="0 0 28 27" fill="none" xmlns="http://www.w3.org/2000/svg">
<path d="M26.8418 0.237305C26.7715 0.166992 26.6924 0.109863 26.6045 0.065918C26.5166 0.0219727 26.4199 0 26.3145 0H25.6289C23.9414 0 22.333 0 20.8037 0C19.2744 0.0175781 17.8374 0.0571289 16.4927 0.118652C15.1479 0.180176 13.8955 0.272461 12.7354 0.395508C11.5752 0.518555 10.4941 0.703125 9.49219 0.949219C8.4375 1.19531 7.49268 1.51172 6.65771 1.89844C5.82275 2.28516 5.09766 2.75098 4.48242 3.2959C3.79688 3.87598 3.22119 4.54834 2.75537 5.31299C2.28955 6.07764 1.9248 6.94336 1.66113 7.91016C1.46777 8.56055 1.35791 9.43066 1.33154 10.5205C1.30518 11.6104 1.46777 12.7354 1.81934 13.8955C1.95996 14.335 2.13135 14.7568 2.3335 15.1611C2.53564 15.5654 2.77734 15.9609 3.05859 16.3477C2.6543 16.9805 2.26758 17.666 1.89844 18.4043C1.5293 19.1602 1.2041 19.9556 0.922852 20.7905C0.641602 21.6255 0.413086 22.5 0.237305 23.4141C0.0791016 24.3457 0 25.3125 0 26.3145C0 26.5078 0.065918 26.6704 0.197754 26.8022C0.32959 26.9341 0.492188 27 0.685547 27C0.861328 27 1.01514 26.9341 1.14697 26.8022C1.27881 26.6704 1.34473 26.5078 1.34473 26.3145C1.34473 24.7676 1.54688 23.3174 1.95117 21.9639C2.35547 20.6279 2.85645 19.4106 3.4541 18.312C4.05176 17.2134 4.69336 16.2422 5.37891 15.3984C6.06445 14.5547 6.67969 13.8604 7.22461 13.3154C8.01562 12.5244 8.84619 11.7993 9.71631 11.1401C10.5864 10.481 11.4697 9.92285 12.3662 9.46582C13.21 9.02637 14.0186 8.68799 14.792 8.45068C15.5654 8.21338 16.2598 8.09473 16.875 8.09473C17.0684 8.09473 17.231 8.02881 17.3628 7.89697C17.4946 7.76514 17.5605 7.61133 17.5605 7.43555C17.5605 7.24219 17.4946 7.07959 17.3628 6.94775C17.231 6.81592 17.0684 6.75 16.875 6.75C16.1367 6.75 15.3325 6.87744 14.4624 7.13232C13.5923 7.38721 12.6914 7.76074 11.7598 8.25293C10.793 8.7627 9.84375 9.36475 8.91211 10.0591C7.98047 10.7534 7.10156 11.5137 6.27539 12.3398C5.92383 12.6914 5.5415 13.1045 5.12842 13.5791C4.71533 14.0537 4.29785 14.5723 3.87598 15.1348C3.71777 14.8887 3.57275 14.6294 3.44092 14.3569C3.30908 14.0845 3.19922 13.8076 3.11133 13.5264C2.77734 12.4189 2.63672 11.3818 2.68945 10.415C2.74219 9.44824 2.83008 8.73633 2.95312 8.2793C3.42773 6.55664 4.25391 5.2207 5.43164 4.27148C6.5918 3.33984 8.10352 2.6543 9.9668 2.21484C11.8301 1.77539 14.0537 1.52051 16.6377 1.4502C19.2393 1.37988 22.2012 1.34473 25.5234 1.34473C25.1191 3.47168 24.6357 5.40527 24.0732 7.14551C23.5107 8.90332 22.8604 10.4634 22.1221 11.8257C21.3838 13.188 20.5664 14.3613 19.6699 15.3457C18.7734 16.3125 17.7891 17.0947 16.7168 17.6924C15.7324 18.2373 14.7656 18.5889 13.8164 18.7471C12.8496 18.9229 11.9531 18.9844 11.127 18.9316C10.3008 18.8789 9.5625 18.7559 8.91211 18.5625C8.26172 18.3867 7.74316 18.2197 7.35645 18.0615C7.19824 17.9912 7.04004 17.9165 6.88184 17.8374C6.72363 17.7583 6.56543 17.6748 6.40723 17.5869C6.24902 17.499 6.08203 17.4771 5.90625 17.521C5.73047 17.5649 5.58984 17.666 5.48438 17.8242C5.39648 17.9824 5.37451 18.1538 5.41846 18.3384C5.4624 18.5229 5.56348 18.6592 5.72168 18.7471C5.91504 18.8525 6.104 18.9536 6.28857 19.0503C6.47314 19.147 6.66211 19.2305 6.85547 19.3008C7.27734 19.4766 7.81787 19.6611 8.47705 19.8545C9.13623 20.0479 9.8877 20.1797 10.7314 20.25C10.9072 20.2676 11.0874 20.2764 11.272 20.2764C11.4565 20.2764 11.6367 20.2764 11.8125 20.2764C12.8145 20.2764 13.7769 20.1577 14.6997 19.9204C15.6226 19.6831 16.5146 19.3359 17.376 18.8789C18.4658 18.2637 19.4766 17.4727 20.4082 16.5059C21.3398 15.5391 22.1924 14.3877 22.9658 13.0518C23.4229 12.2783 23.8447 11.4434 24.2314 10.5469C24.6182 9.63281 24.9829 8.66602 25.3257 7.64648C25.6685 6.62695 25.9717 5.5459 26.2354 4.40332C26.5166 3.24316 26.7715 2.03906 27 0.791016C27.0176 0.685547 27.0132 0.584473 26.9868 0.487793C26.9604 0.391113 26.9121 0.307617 26.8418 0.237305Z" fill="white"/>
</svg>
