<svg width="23" height="23" viewBox="0 0 23 23" fill="none" xmlns="http://www.w3.org/2000/svg">
<path d="M22.3359 22.3359C22.3359 22.3359 22.3359 21.7656 22.3359 20.625C22.3359 19.4844 22.3359 18.1406 22.3359 16.5938C22.3359 15.0469 22.3359 13.4844 22.3359 11.9062C22.3359 10.3281 22.3359 9.10156 22.3359 8.22656C22.3359 8.14844 22.3008 8.06641 22.2305 7.98047C22.1602 7.89453 22.0781 7.82031 21.9844 7.75781L18.3047 5.08594V2.13281C18.3047 1.97656 18.2539 1.85547 18.1523 1.76953C18.0508 1.68359 17.9375 1.64062 17.8125 1.64062H13.5938L11.4609 0.0703125C11.3828 0.0234375 11.293 0 11.1914 0C11.0898 0 11 0.0234375 10.9219 0.0703125L8.78906 1.64062H4.57031C4.42969 1.64062 4.3125 1.69141 4.21875 1.79297C4.125 1.89453 4.07812 2.00781 4.07812 2.13281V5.03906L0.351562 7.75781C0.242188 7.83594 0.15625 7.91406 0.09375 7.99219C0.03125 8.07031 0 8.14844 0 8.22656C0 9.11719 0 10.3594 0 11.9531C0 13.5312 0 15.0977 0 16.6523C0 18.207 0 19.5625 0 20.7188C0 21.8594 0 22.4297 0 22.4297C0 22.5703 0.0429688 22.6836 0.128906 22.7695C0.214844 22.8555 0.320312 22.9062 0.445312 22.9219C0.445312 22.9219 0.449219 22.9219 0.457031 22.9219C0.464844 22.9219 0.46875 22.9219 0.46875 22.9219H21.8438C22 22.9219 22.1211 22.8672 22.207 22.7578C22.293 22.6484 22.3359 22.5078 22.3359 22.3359ZM21.4219 9.09375V21.4453L13.3594 15L21.4219 9.09375ZM21.0469 8.25L18.3047 10.2422V6.21094L21.0469 8.25ZM11.1797 1.00781L12.0234 1.64062H10.3125L11.1797 1.00781ZM17.3203 2.60156V10.9688L11.1797 15.4453L5.01562 10.9688V2.60156H17.3203ZM0.914062 9.09375L9 15L0.914062 21.4922V9.09375ZM4.10156 10.2891L1.26562 8.22656L4.10156 6.16406V10.2891ZM1.80469 21.9844L9.77344 15.5625L10.875 16.3828C10.9844 16.4609 11.082 16.5 11.168 16.5C11.2539 16.5 11.3516 16.4609 11.4609 16.3828L12.5625 15.5625L20.5781 21.9844H1.80469ZM7.89844 4.99219H14.4844V5.92969H7.89844V4.99219ZM7.89844 7.96875H14.4844V8.90625H7.89844V7.96875ZM7.89844 10.9453H14.4844V11.8828H7.89844V10.9453Z" fill="white"/>
</svg>
