<svg width="8" height="14" viewBox="0 0 8 14" fill="none" xmlns="http://www.w3.org/2000/svg">
<path d="M7.69675 0H5.77617C5.23706 0 4.7509 0.0820312 4.31769 0.246094C3.87485 0.401042 3.4994 0.628906 3.19134 0.929688C2.88327 1.23047 2.64741 1.59505 2.48375 2.02344C2.3201 2.44271 2.23827 2.91667 2.23827 3.44531V5.03125H0.303249C0.216606 5.03125 0.144404 5.05859 0.0866426 5.11328C0.0288809 5.16797 0 5.23633 0 5.31836V7.61523C0 7.69727 0.0288809 7.76562 0.0866426 7.82031C0.144404 7.875 0.216606 7.90234 0.303249 7.90234H2.23827V13.7129C2.23827 13.7949 2.26715 13.8633 2.32491 13.918C2.38267 13.9727 2.45006 14 2.52708 14H5.05415C5.13117 14 5.20096 13.9727 5.26354 13.918C5.32611 13.8633 5.3574 13.7949 5.3574 13.7129V7.90234H7.61011C7.68712 7.90234 7.75692 7.875 7.81949 7.82031C7.88207 7.76562 7.91336 7.69727 7.91336 7.61523V5.31836C7.91336 5.2819 7.90373 5.24544 7.88448 5.20898C7.86522 5.17253 7.84116 5.14062 7.81227 5.11328C7.79302 5.08594 7.76414 5.06543 7.72563 5.05176C7.68712 5.03809 7.64862 5.03125 7.61011 5.03125H5.3574V3.69141C5.3574 3.36328 5.41998 3.11719 5.54513 2.95312C5.67028 2.78906 5.95427 2.70703 6.39711 2.70703H7.69675C7.78339 2.70703 7.8556 2.67969 7.91336 2.625C7.97112 2.57031 8 2.50195 8 2.41992V0.287109C8 0.205078 7.97112 0.136719 7.91336 0.0820312C7.8556 0.0273438 7.78339 0 7.69675 0Z" fill="#4CAF50"/>
</svg>
