<svg width="31" height="30" viewBox="0 0 31 30" fill="none" xmlns="http://www.w3.org/2000/svg">
<path d="M29.7558 23.5178H28.2035V22.1998C28.2035 22.0827 28.1596 21.9802 28.0718 21.8923C27.9839 21.8045 27.8814 21.7605 27.7642 21.7605C27.6471 21.7605 27.5495 21.8045 27.4714 21.8923C27.3933 21.9802 27.3542 22.0827 27.3542 22.1998V29.0823H18.1873C18.2654 28.9457 18.324 28.7992 18.3631 28.643C18.4021 28.4868 18.4216 28.3209 18.4216 28.1451C18.4216 27.618 18.2361 27.1738 17.8652 26.8126C17.4942 26.4514 17.0549 26.2708 16.5473 26.2708H15.7858V25.5386C15.7858 25.07 15.6345 24.6551 15.3318 24.2939C15.0292 23.9327 14.6533 23.6935 14.2043 23.5763V17.8653C14.2043 17.631 14.2189 17.3919 14.2482 17.1478C14.2775 16.9038 14.3312 16.6646 14.4093 16.4303C14.8779 17.0551 15.4734 17.5627 16.1958 17.9532C16.9182 18.3437 17.6992 18.539 18.5388 18.539H19.9739C20.5791 18.539 21.1014 18.3291 21.5407 17.9093C21.98 17.4895 22.2192 16.977 22.2582 16.3717C22.2582 16.0788 22.2094 15.7908 22.1118 15.5077C22.0142 15.2246 21.8385 14.9757 21.5846 14.7609C21.3894 14.5461 21.1453 14.3802 20.8525 14.263C20.5596 14.1459 20.2667 14.0873 19.9739 14.0873H18.8316C18.5583 14.0873 18.3289 13.9946 18.1434 13.8091C17.9579 13.6236 17.8652 13.4039 17.8652 13.1501V12.828C18.1385 12.7499 18.4119 12.6913 18.6852 12.6522C18.9586 12.6132 19.2319 12.5937 19.5053 12.5937H21.8189C23.3028 12.5937 24.5671 13.1159 25.6116 14.1605C26.6562 15.2051 27.1785 16.4596 27.1785 17.9239V20.384C27.1785 20.5012 27.2175 20.6037 27.2956 20.6916C27.3737 20.7794 27.4714 20.8233 27.5885 20.8233C27.7057 20.8233 27.8375 20.7794 27.9839 20.6916C28.1303 20.6037 28.2035 20.5012 28.2035 20.384V17.8653C28.2035 17.0258 28.0376 16.2253 27.7057 15.4638C27.3737 14.7023 26.9247 14.0385 26.3585 13.4723C25.7922 12.9061 25.1284 12.457 24.3669 12.1251C23.6055 11.7931 22.8049 11.6272 21.9654 11.6272H19.6224C19.3491 11.6272 19.0708 11.6467 18.7877 11.6858C18.5046 11.7248 18.2361 11.7931 17.9823 11.8908V5.50616C17.9823 4.76422 17.8408 4.05644 17.5577 3.38284C17.2745 2.70923 16.8792 2.11861 16.3715 1.61097C15.8248 1.0838 15.2147 0.683538 14.5411 0.410192C13.8675 0.136845 13.1597 0.000171661 12.4178 0.000171661C10.9144 0.000171661 9.6306 0.546865 8.5665 1.64025C7.5024 2.73364 6.97035 4.0418 6.97035 5.56473V10.1921C6.97035 10.3093 7.0094 10.4069 7.0875 10.485C7.16559 10.5631 7.26322 10.6021 7.38037 10.6021C7.49752 10.6021 7.59514 10.5631 7.67324 10.485C7.75134 10.4069 7.79039 10.3093 7.79039 10.1921V5.94547H10.4848V23.5178H7.79039V12.0079C7.79039 11.8712 7.75134 11.7639 7.67324 11.6858C7.59514 11.6077 7.49752 11.5686 7.38037 11.5686C7.26322 11.5686 7.16559 11.6077 7.0875 11.6858C7.0094 11.7639 6.97035 11.8712 6.97035 12.0079V23.5178H4.68595C4.11973 23.5178 3.62673 23.7228 3.20695 24.1328C2.78716 24.5428 2.57727 25.0309 2.57727 25.5972V26.3293H1.84509C1.33745 26.3293 0.903021 26.5099 0.541813 26.8712C0.180604 27.2324 0 27.6765 0 28.2037C0 28.7114 0.180604 29.136 0.541813 29.4777C0.903021 29.8194 1.33745 29.9902 1.84509 29.9902H29.7558C29.8729 29.9902 29.9705 29.9512 30.0486 29.8731C30.1267 29.795 30.1658 29.6974 30.1658 29.5802V23.9864C30.1658 23.8497 30.1267 23.7374 30.0486 23.6496C29.9705 23.5617 29.8729 23.5178 29.7558 23.5178ZM12.4178 0.908073C13.0426 0.908073 13.6381 1.02034 14.2043 1.24488C14.7705 1.46941 15.2781 1.79645 15.7272 2.226C16.1763 2.67507 16.518 3.17783 16.7523 3.73429C16.9866 4.29074 17.1037 4.88137 17.1037 5.50616V13.1501C17.1037 13.6578 17.2843 14.0922 17.6455 14.4534C18.0067 14.8146 18.4412 14.9952 18.9488 14.9952H20.091C20.2667 14.9952 20.4424 15.0294 20.6182 15.0977C20.7939 15.166 20.9403 15.2685 21.0575 15.4052C21.1746 15.5224 21.2722 15.6688 21.3503 15.8445C21.4284 16.0203 21.448 16.196 21.4089 16.3717C21.4089 16.7427 21.2674 17.0551 20.9843 17.3089C20.7011 17.5627 20.3839 17.6896 20.0324 17.6896H18.5974C17.4259 17.6896 16.435 17.2747 15.6247 16.4449C14.8144 15.6151 14.4093 14.634 14.4093 13.5016V5.50616C14.4093 5.25234 14.3507 5.00828 14.2336 4.77398C14.1164 4.53968 13.97 4.32491 13.7943 4.12966C13.6185 3.95394 13.4135 3.82215 13.1792 3.73429C12.9449 3.64643 12.6911 3.60249 12.4178 3.60249C11.9687 3.60249 11.5782 3.74405 11.2463 4.02716C10.9144 4.31027 10.6801 4.64707 10.5434 5.03757H7.84896C8.00516 3.90513 8.5128 2.93377 9.37189 2.12349C10.231 1.31321 11.2463 0.908073 12.4178 0.908073ZM11.4513 5.50616C11.4513 5.25234 11.5538 5.02292 11.7588 4.81791C11.9638 4.6129 12.203 4.5104 12.4763 4.5104C12.5935 4.5104 12.7204 4.5348 12.8571 4.58361C12.9937 4.63243 13.1109 4.70564 13.2085 4.80327C13.2866 4.88137 13.3549 4.99364 13.4135 5.14007C13.4721 5.28651 13.5014 5.42806 13.5014 5.56473V13.5016C13.5014 13.853 13.5307 14.1947 13.5892 14.5266C13.6478 14.8585 13.7552 15.1709 13.9114 15.4638C13.7357 15.8543 13.6039 16.2594 13.516 16.6792C13.4282 17.099 13.3842 17.5139 13.3842 17.9239V23.5178H11.4513V5.50616ZM3.48517 25.5386C3.48517 25.2262 3.60232 24.948 3.83662 24.7039C4.07092 24.4598 4.35403 24.3378 4.68595 24.3378H13.7357C14.0676 24.3378 14.3507 24.4598 14.585 24.7039C14.8193 24.948 14.9365 25.2262 14.9365 25.5386V26.2708H3.54375V25.5386H3.48517ZM0.907902 28.1451C0.907902 27.8718 1.00065 27.6424 1.18613 27.4569C1.37162 27.2714 1.59127 27.1787 1.84509 27.1787H16.5473C16.8206 27.1787 17.05 27.2714 17.2355 27.4569C17.421 27.6424 17.5137 27.8718 17.5137 28.1451C17.5137 28.399 17.421 28.6186 17.2355 28.8041C17.05 28.9896 16.8206 29.0823 16.5473 29.0823H13.7943H1.78652C1.55222 29.0823 1.34721 28.9896 1.17149 28.8041C0.995764 28.6186 0.907902 28.399 0.907902 28.1451ZM29.2579 29.0823H28.2035V24.4257H29.2579V29.0823ZM24.3376 19.564H17.1623C16.6742 19.564 16.2495 19.7348 15.8883 20.0765C15.5271 20.4182 15.3465 20.8429 15.3465 21.3505C15.3465 21.8386 15.5222 22.2633 15.8736 22.6245C16.2251 22.9857 16.6546 23.1663 17.1623 23.1663H24.3376C24.8258 23.1663 25.2504 22.9906 25.6116 22.6392C25.9728 22.2877 26.1534 21.8582 26.1534 21.3505C26.1534 20.8429 25.9826 20.4182 25.6409 20.0765C25.2992 19.7348 24.8648 19.564 24.3376 19.564ZM16.313 21.3505C16.313 21.1162 16.4008 20.9063 16.5765 20.7208C16.7523 20.5354 16.967 20.4426 17.2209 20.4426H20.3253V22.2584H17.2209C16.967 22.2584 16.7523 22.1657 16.5765 21.9802C16.4008 21.7947 16.313 21.5848 16.313 21.3505ZM24.3376 22.2584H21.2332V20.4426H24.3376C24.5915 20.4426 24.8062 20.5354 24.982 20.7208C25.1577 20.9063 25.2455 21.1162 25.2455 21.3505C25.2455 21.5848 25.1626 21.7947 24.9966 21.9802C24.8306 22.1657 24.611 22.2584 24.3376 22.2584Z" fill="#E8F5E9"/>
</svg>
