<svg width="30" height="30" viewBox="0 0 30 30" fill="none" xmlns="http://www.w3.org/2000/svg">
<path d="M29.6777 12.5684L15.4688 2.16797C15.332 2.05078 15.1758 1.99219 15 1.99219C14.8242 1.99219 14.668 2.05078 14.5312 2.16797L0.322266 12.5684C0.146484 12.6855 0.0439453 12.8516 0.0146484 13.0664C-0.0146484 13.2812 0.0292969 13.4766 0.146484 13.6523C0.283203 13.8281 0.454102 13.9307 0.65918 13.96C0.864258 13.9893 1.05469 13.9453 1.23047 13.8281L15 3.75L28.7695 13.8281C28.8281 13.8672 28.8965 13.9014 28.9746 13.9307C29.0527 13.96 29.1309 13.9746 29.209 13.9746C29.3457 13.9746 29.4678 13.9453 29.5752 13.8867C29.6826 13.8281 29.7754 13.75 29.8535 13.6523C29.9707 13.4766 30.0146 13.2812 29.9854 13.0664C29.9561 12.8516 29.8535 12.6855 29.6777 12.5684ZM25.8984 14.0039C25.6836 14.0039 25.5029 14.0771 25.3564 14.2236C25.21 14.3701 25.1367 14.5508 25.1367 14.7656V27.1875H18.8965V20.4199C18.8965 19.3457 18.5156 18.4277 17.7539 17.666C16.9922 16.9043 16.0742 16.5234 15 16.5234C13.9258 16.5234 13.0078 16.9043 12.2461 17.666C11.4844 18.4277 11.1035 19.3457 11.1035 20.4199V27.1875H4.86328V14.7656C4.86328 14.5508 4.79004 14.3701 4.64355 14.2236C4.49707 14.0771 4.31641 14.0039 4.10156 14.0039C3.86719 14.0039 3.67676 14.0771 3.53027 14.2236C3.38379 14.3701 3.31055 14.5508 3.31055 14.7656V27.9785C3.31055 28.1934 3.38379 28.374 3.53027 28.5205C3.67676 28.667 3.86719 28.7402 4.10156 28.7402H11.8945C12.0898 28.7402 12.2607 28.6719 12.4072 28.5352C12.5537 28.3984 12.6367 28.2324 12.6562 28.0371C12.6562 28.0176 12.6562 28.0029 12.6562 27.9932C12.6562 27.9834 12.6562 27.9785 12.6562 27.9785V20.4199C12.6562 19.7754 12.8857 19.2236 13.3447 18.7646C13.8037 18.3057 14.3555 18.0762 15 18.0762C15.6445 18.0762 16.1963 18.3057 16.6553 18.7646C17.1143 19.2236 17.3438 19.7754 17.3438 20.4199V27.9785C17.3438 27.9785 17.3438 27.9834 17.3438 27.9932C17.3438 28.0029 17.3438 28.0176 17.3438 28.0371C17.3633 28.2324 17.4463 28.3984 17.5928 28.5352C17.7393 28.6719 17.9102 28.7402 18.1055 28.7402H25.8984C26.1328 28.7402 26.3232 28.667 26.4697 28.5205C26.6162 28.374 26.6895 28.1934 26.6895 27.9785V14.7656C26.6895 14.5508 26.6162 14.3701 26.4697 14.2236C26.3232 14.0771 26.1328 14.0039 25.8984 14.0039Z" fill="#E8F5E9"/>
</svg>
