<svg width="29" height="30" viewBox="0 0 29 30" fill="none" xmlns="http://www.w3.org/2000/svg">
<path d="M21.0059 9.00391H22.5V10.498H21.0059V9.00391ZM21.0059 12.0215H22.5V13.5156H21.0059V12.0215ZM21.0059 15.0098H22.5V16.5039H21.0059V15.0098ZM21.0059 17.998H22.5V19.5215H21.0059V17.998ZM21.0059 24.0039H22.5V25.498H21.0059V24.0039ZM21.0059 21.0156H22.5V22.5098H21.0059V21.0156ZM8.99414 9.00391H10.4883V10.498H8.99414V9.00391ZM8.99414 12.0215H10.4883V13.5156H8.99414V12.0215ZM8.99414 15.0098H10.4883V16.5039H8.99414V15.0098ZM8.99414 17.998H10.4883V19.5215H8.99414V17.998ZM8.99414 24.0039H10.4883V25.498H8.99414V24.0039ZM8.99414 21.0156H10.4883V22.5098H8.99414V21.0156ZM6.00586 9.00391H7.5V10.498H6.00586V9.00391ZM6.00586 12.0215H7.5V13.5156H6.00586V12.0215ZM6.00586 15.0098H7.5V16.5039H6.00586V15.0098ZM6.00586 17.998H7.5V19.5215H6.00586V17.998ZM6.00586 24.0039H7.5V25.498H6.00586V24.0039ZM6.00586 21.0156H7.5V22.5098H6.00586V21.0156ZM12.0117 9.00391H13.5059V10.498H12.0117V9.00391ZM12.0117 12.0215H13.5059V13.5156H12.0117V12.0215ZM12.0117 15.0098H13.5059V16.5039H12.0117V15.0098ZM12.0117 17.998H13.5059V19.5215H12.0117V17.998ZM12.0117 24.0039H13.5059V25.498H12.0117V24.0039ZM12.0117 21.0156H13.5059V22.5098H12.0117V21.0156ZM27.7441 28.5156H27.0117V8.27148C27.0117 7.68555 26.8213 7.13379 26.4404 6.61621C26.0596 6.09863 25.6055 5.75195 25.0781 5.57617L17.9883 3.23242V0.771484C17.9883 0.654297 17.9639 0.541992 17.915 0.43457C17.8662 0.327148 17.793 0.234375 17.6953 0.15625C17.5977 0.078125 17.4902 0.0292969 17.373 0.00976562C17.2559 -0.00976562 17.1387 0 17.0215 0.0390625L3.45703 4.11133C2.91016 4.26758 2.44629 4.60449 2.06543 5.12207C1.68457 5.63965 1.49414 6.18164 1.49414 6.74805V28.5156H0.761719C0.546875 28.5156 0.366211 28.5889 0.219727 28.7354C0.0732422 28.8818 0 29.0527 0 29.248C0 29.4629 0.0732422 29.6436 0.219727 29.79C0.366211 29.9365 0.546875 30.0098 0.761719 30.0098H27.7441C27.959 30.0098 28.1396 29.9365 28.2861 29.79C28.4326 29.6436 28.5059 29.4629 28.5059 29.248C28.5059 29.0527 28.4326 28.8818 28.2861 28.7354C28.1396 28.5889 27.959 28.5156 27.7441 28.5156ZM24.5801 6.98242C24.834 7.08008 25.0488 7.25586 25.2246 7.50977C25.4004 7.76367 25.4883 8.01758 25.4883 8.27148V28.5156H17.9883V4.81445L24.5801 6.98242ZM2.98828 6.74805C2.98828 6.51367 3.08105 6.27441 3.2666 6.03027C3.45215 5.78613 3.66211 5.625 3.89648 5.54688L16.4941 1.76758V28.5156H2.98828V6.74805Z" fill="#E8F5E9"/>
</svg>
