<svg width="14" height="14" viewBox="0 0 14 14" fill="none" xmlns="http://www.w3.org/2000/svg">
<path d="M13.959 4.11523C13.9408 3.74154 13.9043 3.42025 13.8496 3.15137C13.7949 2.88249 13.722 2.63867 13.6309 2.41992C13.5397 2.18294 13.4281 1.95964 13.2959 1.75C13.1637 1.54036 13.0065 1.34896 12.8242 1.17578C12.651 1.0026 12.4596 0.847656 12.25 0.710938C12.0404 0.574219 11.8171 0.460286 11.5801 0.369141C11.3613 0.287109 11.1175 0.216472 10.8486 0.157227C10.5798 0.0979815 10.2585 0.0592451 9.88477 0.0410156C9.51107 0.0227861 9.17383 0.0113935 8.87305 0.00683594C8.57227 0.00227833 7.94792 0 7 0C6.05208 0 5.42773 0.00227833 5.12695 0.00683594C4.82617 0.0113935 4.48893 0.0227861 4.11523 0.0410156C3.74154 0.0592451 3.42025 0.0957031 3.15137 0.150391C2.88249 0.205078 2.63867 0.277995 2.41992 0.369141C2.18294 0.460286 1.95964 0.57194 1.75 0.704102C1.54036 0.836263 1.34896 0.993489 1.17578 1.17578C0.99349 1.34896 0.833984 1.54036 0.697266 1.75C0.560547 1.95964 0.451172 2.18294 0.369141 2.41992C0.277995 2.63867 0.205078 2.88249 0.150391 3.15137C0.0957031 3.42025 0.0592448 3.74154 0.0410156 4.11523C0.0227865 4.48893 0.0113932 4.82617 0.00683594 5.12695C0.00227865 5.42773 0 6.05208 0 7C0 7.94792 0.00227865 8.57227 0.00683594 8.87305C0.0113932 9.17383 0.0227865 9.51107 0.0410156 9.88477C0.0592448 10.2585 0.0957031 10.5798 0.150391 10.8486C0.205078 11.1175 0.277995 11.3613 0.369141 11.5801C0.451172 11.8171 0.560547 12.0404 0.697266 12.25C0.833984 12.4596 0.99349 12.651 1.17578 12.8242C1.34896 13.0065 1.54036 13.166 1.75 13.3027C1.95964 13.4395 2.17839 13.5488 2.40625 13.6309C2.63411 13.722 2.88249 13.7949 3.15137 13.8496C3.42025 13.9043 3.74154 13.9408 4.11523 13.959C4.48893 13.9772 4.82389 13.9886 5.12012 13.9932C5.41634 13.9977 6.04297 14 7 14C7.94792 14 8.57227 13.9977 8.87305 13.9932C9.17383 13.9886 9.51107 13.9772 9.88477 13.959C10.2585 13.9408 10.5798 13.9043 10.8486 13.8496C11.1175 13.7949 11.3613 13.722 11.5801 13.6309C12.054 13.4486 12.4688 13.1797 12.8242 12.8242C13.1797 12.4688 13.4486 12.054 13.6309 11.5801C13.7129 11.3613 13.7835 11.1175 13.8428 10.8486C13.902 10.5798 13.9408 10.2585 13.959 9.88477C13.9681 9.51107 13.9772 9.17383 13.9863 8.87305C13.9954 8.57227 14 7.94792 14 7C14 6.05208 13.9977 5.42773 13.9932 5.12695C13.9886 4.82617 13.9772 4.48893 13.959 4.11523ZM12.7012 9.83008C12.6829 10.1764 12.6488 10.4499 12.5986 10.6504C12.5485 10.8509 12.5007 11.0104 12.4551 11.1289C12.3366 11.4388 12.1611 11.7077 11.9287 11.9355C11.6963 12.1634 11.4297 12.3366 11.1289 12.4551C11.0013 12.5098 10.8372 12.5599 10.6367 12.6055C10.4362 12.651 10.1673 12.6829 9.83008 12.7012C9.45638 12.7194 9.12598 12.7308 8.83887 12.7354C8.55176 12.7399 7.9388 12.7422 7 12.7422C6.07031 12.7422 5.45964 12.7399 5.16797 12.7354C4.8763 12.7308 4.54362 12.7194 4.16992 12.7012C3.83268 12.6829 3.5638 12.651 3.36328 12.6055C3.16276 12.5599 2.9987 12.5098 2.87109 12.4551C2.72526 12.4004 2.58398 12.3298 2.44727 12.2432C2.31055 12.1566 2.18294 12.054 2.06445 11.9355C1.95508 11.8262 1.85482 11.7031 1.76367 11.5664C1.67253 11.4297 1.59961 11.2839 1.54492 11.1289C1.49935 11.0104 1.4515 10.8509 1.40137 10.6504C1.35124 10.4499 1.32161 10.1764 1.3125 9.83008C1.29427 9.46549 1.28288 9.13737 1.27832 8.8457C1.27376 8.55404 1.27148 7.9388 1.27148 7C1.27148 6.07031 1.27376 5.45964 1.27832 5.16797C1.28288 4.8763 1.29427 4.54818 1.3125 4.18359C1.32161 3.83724 1.35124 3.5638 1.40137 3.36328C1.4515 3.16276 1.49935 3.00325 1.54492 2.88477C1.59961 2.72982 1.67253 2.58398 1.76367 2.44727C1.85482 2.31055 1.95964 2.1875 2.07812 2.07812C2.1875 1.95964 2.31055 1.8571 2.44727 1.77051C2.58398 1.68392 2.72526 1.61328 2.87109 1.55859C2.9987 1.50391 3.16276 1.45378 3.36328 1.4082C3.5638 1.36263 3.83268 1.33073 4.16992 1.3125C4.54362 1.29427 4.8763 1.28288 5.16797 1.27832C5.45964 1.27376 6.07031 1.27148 7 1.27148C7.9388 1.27148 8.55404 1.27376 8.8457 1.27832C9.13737 1.28288 9.4655 1.29427 9.83008 1.3125C10.1764 1.33073 10.4499 1.36263 10.6504 1.4082C10.8509 1.45378 11.0104 1.50391 11.1289 1.55859C11.2839 1.61328 11.4297 1.68392 11.5664 1.77051C11.7031 1.8571 11.8262 1.95964 11.9355 2.07812C12.054 2.1875 12.1566 2.31055 12.2432 2.44727C12.3298 2.58398 12.4004 2.72982 12.4551 2.88477C12.5007 3.00325 12.5485 3.16276 12.5986 3.36328C12.6488 3.5638 12.6829 3.83724 12.7012 4.18359C12.7194 4.54818 12.7308 4.8763 12.7354 5.16797C12.7399 5.45964 12.7422 6.07031 12.7422 7C12.7422 7.9388 12.7399 8.55404 12.7354 8.8457C12.7308 9.13737 12.7194 9.46549 12.7012 9.83008ZM7 3.4043C6.4987 3.4043 6.03385 3.5 5.60547 3.69141C5.16797 3.8737 4.78516 4.12891 4.45703 4.45703C4.12891 4.78516 3.8737 5.16797 3.69141 5.60547C3.5 6.04297 3.4043 6.50781 3.4043 7C3.4043 7.5013 3.5 7.96615 3.69141 8.39453C3.8737 8.83203 4.12891 9.21484 4.45703 9.54297C4.78516 9.87109 5.16797 10.1263 5.60547 10.3086C6.03385 10.5 6.4987 10.5957 7 10.5957C7.49219 10.5957 7.95703 10.5 8.39453 10.3086C8.83203 10.1263 9.21484 9.87109 9.54297 9.54297C9.87109 9.21484 10.1263 8.83203 10.3086 8.39453C10.5 7.96615 10.5957 7.5013 10.5957 7C10.5957 6.50781 10.5 6.04297 10.3086 5.60547C10.1263 5.16797 9.87109 4.78516 9.54297 4.45703C9.21484 4.12891 8.83203 3.8737 8.39453 3.69141C7.95703 3.5 7.49219 3.4043 7 3.4043ZM7 9.33789C6.35286 9.33789 5.80143 9.11003 5.3457 8.6543C4.88997 8.19857 4.66211 7.64714 4.66211 7C4.66211 6.35286 4.88997 5.80143 5.3457 5.3457C5.80143 4.88997 6.35286 4.66211 7 4.66211C7.64714 4.66211 8.19857 4.88997 8.6543 5.3457C9.11003 5.80143 9.33789 6.35286 9.33789 7C9.33789 7.64714 9.11003 8.19857 8.6543 8.6543C8.19857 9.11003 7.64714 9.33789 7 9.33789ZM11.5801 3.26758C11.5801 3.49544 11.498 3.69141 11.334 3.85547C11.1699 4.01953 10.9694 4.10156 10.7324 4.10156C10.5046 4.10156 10.3086 4.01953 10.1445 3.85547C9.98047 3.69141 9.89844 3.49544 9.89844 3.26758C9.89844 3.0306 9.98047 2.83008 10.1445 2.66602C10.3086 2.50195 10.5046 2.41992 10.7324 2.41992C10.9694 2.41992 11.1699 2.50195 11.334 2.66602C11.498 2.83008 11.5801 3.0306 11.5801 3.26758Z" fill="#4CAF50"/>
</svg>
