<svg width="29" height="26" viewBox="0 0 29 26" fill="none" xmlns="http://www.w3.org/2000/svg">
<path d="M20.2525 25.5049H8.27009C7.64509 25.5049 7.11286 25.2852 6.67341 24.8457C6.23396 24.4062 6.01423 23.874 6.01423 23.249V9.30371L2.4986 10.4463C2.30329 10.5244 2.11286 10.5146 1.92732 10.417C1.74177 10.3193 1.6197 10.1729 1.5611 9.97754L0.0376674 5.49512C-0.0209263 5.31934 -0.0111607 5.14355 0.0669643 4.96777C0.145089 4.79199 0.262277 4.66504 0.418527 4.58691L9.41267 0.0751953C9.52985 0.0166016 9.65681 -0.0078125 9.79353 0.00195312C9.93025 0.0117188 10.0474 0.0458984 10.1451 0.104492C10.2623 0.182617 10.3502 0.275391 10.4088 0.382812C10.4674 0.490234 10.4967 0.612305 10.4967 0.749023C10.4967 1.78418 10.8629 2.66797 11.5953 3.40039C12.3277 4.13281 13.2115 4.49902 14.2467 4.49902C15.2818 4.49902 16.1656 4.13281 16.898 3.40039C17.6304 2.66797 17.9967 1.78418 17.9967 0.749023C17.9967 0.612305 18.0308 0.490234 18.0992 0.382812C18.1675 0.275391 18.2603 0.182617 18.3775 0.104492C18.4752 0.0458984 18.5875 0.0117188 18.7144 0.00195312C18.8414 -0.0078125 18.9634 0.0166016 19.0806 0.0751953L28.1041 4.58691C28.2603 4.66504 28.3775 4.79199 28.4556 4.96777C28.5338 5.14355 28.5338 5.31934 28.4556 5.49512L26.9615 9.97754C26.9029 10.1729 26.7808 10.3193 26.5953 10.417C26.4097 10.5146 26.2193 10.5244 26.024 10.4463L22.5084 9.30371V23.249C22.5084 23.874 22.2886 24.4062 21.8492 24.8457C21.4097 25.2852 20.8775 25.5049 20.2525 25.5049ZM6.74665 7.4873C6.82478 7.4873 6.9029 7.50195 6.98103 7.53125C7.05915 7.56055 7.12751 7.59473 7.18611 7.63379C7.28376 7.71191 7.36189 7.80469 7.42048 7.91211C7.47907 8.01953 7.50837 8.13184 7.50837 8.24902V23.249C7.50837 23.4639 7.58161 23.6445 7.7281 23.791C7.87458 23.9375 8.05525 24.0107 8.27009 24.0107H20.2525C20.4674 24.0107 20.648 23.9375 20.7945 23.791C20.941 23.6445 21.0142 23.4639 21.0142 23.249V8.24902C21.0142 8.13184 21.0386 8.01953 21.0875 7.91211C21.1363 7.80469 21.2095 7.71191 21.3072 7.63379C21.4049 7.5752 21.5172 7.53613 21.6441 7.5166C21.7711 7.49707 21.8834 7.50684 21.981 7.5459L25.7896 8.80566L26.8443 5.6416L19.3736 1.8916C19.1197 3.06348 18.5142 4.04004 17.5572 4.82129C16.6002 5.60254 15.4967 5.99316 14.2467 5.99316C12.9967 5.99316 11.898 5.60254 10.9508 4.82129C10.0035 4.04004 9.4029 3.06348 9.149 1.8916L1.67829 5.6416L2.73298 8.80566L6.51228 7.5459C6.55134 7.52637 6.5904 7.51172 6.62946 7.50195C6.66853 7.49219 6.70759 7.4873 6.74665 7.4873Z" fill="#E8F5E9"/>
</svg>
