<svg width="50" height="50" viewBox="0 0 50 50" fill="none" xmlns="http://www.w3.org/2000/svg">
<path d="M49.8535 41.2109L43.75 32.0801L44.8242 31.7383C45.052 31.6732 45.2229 31.5348 45.3369 31.3232C45.4508 31.1117 45.4589 30.9082 45.3613 30.7129C45.3613 30.6803 45.3613 30.6641 45.3613 30.6641C45.3613 30.6641 45.3613 30.6478 45.3613 30.6152L43.5058 25.8301L47.3144 22.2656C47.4772 22.1029 47.5667 21.9076 47.583 21.6797C47.5992 21.4518 47.526 21.2565 47.3632 21.0938C47.3307 21.0938 47.3144 21.0856 47.3144 21.0693C47.3144 21.0531 47.3144 21.0449 47.3144 21.0449L43.5058 17.5293L45.3613 12.6953C45.4589 12.4674 45.4589 12.2477 45.3613 12.0361C45.2636 11.8245 45.1009 11.6862 44.873 11.6211C44.873 11.6211 44.8567 11.6211 44.8242 11.6211L39.8437 10.0586L39.4043 4.88281C39.3717 4.78516 39.331 4.67936 39.2822 4.56543C39.2334 4.4515 39.1601 4.36198 39.0625 4.29688C38.9974 4.23177 38.9078 4.18294 38.7939 4.15039C38.68 4.11784 38.5579 4.11784 38.4277 4.15039L33.2031 4.88281L30.5664 0.390625C30.4362 0.195312 30.2571 0.0732422 30.0293 0.0244141C29.8014 -0.0244141 29.5898 0 29.3945 0.0976562C29.3945 0.130207 29.3945 0.146484 29.3945 0.146484L25 3.02734L20.6054 0.146484C20.4101 0.0162773 20.2067 -0.0244141 19.9951 0.0244141C19.7835 0.0732422 19.6126 0.195312 19.4824 0.390625C19.4824 0.390625 19.4742 0.390625 19.458 0.390625C19.4417 0.390625 19.4335 0.390625 19.4335 0.390625L16.7968 4.88281L11.5722 4.15039C11.3444 4.11784 11.1328 4.16667 10.9375 4.29688C10.7421 4.42708 10.6445 4.60612 10.6445 4.83398C10.6119 4.86654 10.5957 4.88281 10.5957 4.88281L10.1562 10.0586L5.17574 11.6211C4.94787 11.6862 4.78511 11.8164 4.68746 12.0117C4.5898 12.207 4.57352 12.4186 4.63863 12.6465C4.63863 12.6465 4.63863 12.6546 4.63863 12.6709C4.63863 12.6872 4.63863 12.6953 4.63863 12.6953L6.4941 17.5293L2.6855 21.0449C2.52274 21.2077 2.43322 21.403 2.41695 21.6309C2.40067 21.8587 2.47391 22.054 2.63667 22.2168C2.66923 22.2493 2.6855 22.2656 2.6855 22.2656L6.4941 25.8301L4.63863 30.6152C4.54097 30.8431 4.54097 31.0628 4.63863 31.2744C4.73628 31.486 4.89904 31.6406 5.12691 31.7383C5.12691 31.7383 5.14318 31.7383 5.17574 31.7383L6.24996 32.0801L0.14644 42.041C0.0162317 42.2363 -0.0244585 42.4479 0.0243697 42.6758C0.0731978 42.9036 0.195268 43.0827 0.390581 43.2129C0.488237 43.278 0.585893 43.3187 0.683549 43.335C0.781206 43.3512 0.878862 43.3431 0.976518 43.3105L9.32613 41.7969L10.8398 49.3164C10.8724 49.4792 10.9537 49.6257 11.0839 49.7559C11.2141 49.8861 11.3606 49.9674 11.5234 50C11.5234 50 11.5397 50 11.5722 50C11.6048 50 11.6373 50 11.6699 50C11.8001 50 11.9303 49.9674 12.0605 49.9023C12.1907 49.8372 12.2884 49.7396 12.3535 49.6094L18.2128 40.8691L19.4335 42.9199C19.4987 43.0176 19.58 43.099 19.6777 43.1641C19.7753 43.2292 19.873 43.278 19.9707 43.3105C20.0032 43.3105 20.0358 43.3105 20.0683 43.3105C20.1009 43.3105 20.1334 43.3105 20.166 43.3105C20.2636 43.3105 20.345 43.3024 20.4101 43.2861C20.4752 43.2699 20.5403 43.2454 20.6054 43.2129L25 40.332L29.3945 43.2129C29.5898 43.3431 29.7933 43.3838 30.0048 43.335C30.2164 43.2861 30.3873 43.1641 30.5175 42.9688C30.5175 42.9688 30.5257 42.9606 30.5419 42.9443C30.5582 42.9281 30.5664 42.9199 30.5664 42.9199L31.7871 40.8691L37.6464 49.6094C37.7115 49.7396 37.8092 49.8372 37.9394 49.9023C38.0696 49.9674 38.1998 50 38.33 50C38.3626 50 38.3951 50 38.4277 50C38.4602 50 38.4765 50 38.4765 50C38.6393 49.9674 38.7858 49.8861 38.916 49.7559C39.0462 49.6257 39.1276 49.4792 39.1601 49.3164L40.6738 41.748L49.0722 42.4805C49.3001 42.513 49.5035 42.4561 49.6826 42.3096C49.8616 42.1631 49.9674 41.9759 50 41.748C50 41.6504 49.9918 41.5527 49.9755 41.4551C49.9593 41.3574 49.9186 41.276 49.8535 41.2109ZM12.1093 47.0215L10.8398 40.6738C10.7747 40.446 10.6526 40.2669 10.4736 40.1367C10.2946 40.0065 10.0911 39.9577 9.86324 39.9902L2.53902 41.3574L7.91011 32.5684L10.1562 33.3008L10.5957 38.4277C10.6282 38.5579 10.6689 38.6719 10.7177 38.7695C10.7666 38.8672 10.8398 38.9486 10.9375 39.0137C11.0026 39.0788 11.0921 39.1276 11.206 39.1602C11.3199 39.1927 11.442 39.209 11.5722 39.209L16.7968 38.4766L17.2363 39.2578L12.1093 47.0215ZM32.08 37.1582L29.5898 41.3086L25.4394 38.623C25.3092 38.5254 25.1627 38.4766 25 38.4766C24.8372 38.4766 24.6907 38.5254 24.5605 38.623L20.4101 41.3086L17.9199 37.1582C17.8548 37.028 17.7571 36.9222 17.6269 36.8408C17.4967 36.7594 17.3502 36.7188 17.1875 36.7188C17.1875 36.7188 17.1793 36.7188 17.163 36.7188C17.1468 36.7188 17.1224 36.735 17.0898 36.7676L12.207 37.4023L11.7675 32.6172C11.7675 32.4219 11.7106 32.2591 11.5966 32.1289C11.4827 31.9987 11.3444 31.9173 11.1816 31.8848L6.4941 30.4199L8.25191 25.8789C8.31701 25.7487 8.33329 25.5941 8.30074 25.415C8.26818 25.236 8.1868 25.0977 8.0566 25L4.49214 21.6797L8.0566 18.3594C8.1868 18.2292 8.26818 18.0827 8.30074 17.9199C8.33329 17.7572 8.31701 17.5944 8.25191 17.4316L6.4941 12.9395L11.2304 11.4746C11.3932 11.4095 11.5234 11.3118 11.621 11.1816C11.7187 11.0514 11.7838 10.9049 11.8164 10.7422L12.207 5.9082L17.0898 6.5918C17.2526 6.62435 17.4153 6.59993 17.5781 6.51855C17.7408 6.43718 17.8548 6.33138 17.9199 6.20117L20.4589 2.00195L24.5605 4.73633C24.6907 4.80143 24.8372 4.83398 25 4.83398C25.1627 4.83398 25.3092 4.80143 25.4394 4.73633L29.5898 2.00195L32.08 6.20117C32.1777 6.33138 32.2998 6.43718 32.4462 6.51855C32.5927 6.59993 32.7474 6.62435 32.9101 6.5918L37.7929 5.9082L38.2324 10.7422C38.2324 10.9049 38.2893 11.0514 38.4033 11.1816C38.5172 11.3118 38.6556 11.4095 38.8183 11.4746L43.5058 12.9395L41.748 17.4316C41.6829 17.5944 41.6666 17.7572 41.6992 17.9199C41.7317 18.0827 41.8131 18.2292 41.9433 18.3594L45.5078 21.6797L41.9433 25C41.8131 25.0977 41.7317 25.236 41.6992 25.415C41.6666 25.5941 41.6829 25.7487 41.748 25.8789L43.5058 30.4199L38.7695 31.8848C38.6393 31.9173 38.5172 31.9987 38.4033 32.1289C38.2893 32.2591 38.2324 32.4219 38.2324 32.6172L37.7929 37.4023L32.9101 36.7676C32.7474 36.735 32.5927 36.7513 32.4462 36.8164C32.2998 36.8815 32.1777 36.9954 32.08 37.1582ZM40.0878 39.9902C39.86 39.9902 39.6647 40.0472 39.5019 40.1611C39.3391 40.2751 39.2252 40.446 39.1601 40.6738L37.8906 47.0215L32.7636 39.2578L33.2031 38.4766L38.4277 39.209C38.6556 39.2415 38.8671 39.1846 39.0625 39.0381C39.2578 38.8916 39.3717 38.7044 39.4043 38.4766C39.4043 38.4766 39.4043 38.4603 39.4043 38.4277L39.8437 33.3008L42.0898 32.5684L47.5097 40.6738L40.0878 39.9902ZM37.5 17.4805C37.5 16.7969 37.2558 16.2109 36.7675 15.7227C36.2793 15.2344 35.6933 14.9902 35.0097 14.9902H29.1503V11.6699C29.1503 10.5306 28.7434 9.55404 27.9296 8.74023C27.1158 7.92643 26.1393 7.51953 25 7.51953C24.7721 7.51953 24.5768 7.60091 24.414 7.76367C24.2513 7.92643 24.1699 8.12175 24.1699 8.34961V12.3047L22.6562 15.2832L19.9707 17.4316C19.9707 17.2363 19.8893 17.0573 19.7265 16.8945C19.5638 16.7318 19.3847 16.6504 19.1894 16.6504H13.33C13.1022 16.6504 12.9069 16.7318 12.7441 16.8945C12.5813 17.0573 12.5 17.2526 12.5 17.4805V29.9805C12.5 30.2083 12.5813 30.4036 12.7441 30.5664C12.9069 30.7292 13.1022 30.8105 13.33 30.8105H19.1894C19.4173 30.8105 19.6126 30.7292 19.7753 30.5664C19.9381 30.4036 20.0195 30.2083 20.0195 29.9805H32.5195C33.2031 29.9805 33.789 29.7363 34.2773 29.248C34.7656 28.7598 35.0097 28.1738 35.0097 27.4902C35.0097 27.2949 34.9772 27.0915 34.9121 26.8799C34.847 26.6683 34.7656 26.4648 34.6679 26.2695C34.733 26.237 34.8063 26.1882 34.8877 26.123C34.969 26.0579 35.0423 25.9928 35.1074 25.9277C35.498 25.5371 35.734 25.0651 35.8154 24.5117C35.8968 23.9583 35.791 23.4375 35.498 22.9492C35.5631 22.8841 35.6363 22.8271 35.7177 22.7783C35.7991 22.7295 35.8724 22.6725 35.9375 22.6074C36.3281 22.2168 36.5641 21.7448 36.6455 21.1914C36.7268 20.638 36.6211 20.1172 36.3281 19.6289C36.3932 19.5638 36.4664 19.5068 36.5478 19.458C36.6292 19.4092 36.7024 19.3522 36.7675 19.2871C36.9954 19.0592 37.1744 18.7907 37.3046 18.4814C37.4349 18.1722 37.5 17.8385 37.5 17.4805ZM18.3105 29.1504H14.1601V18.3105H18.3105V29.1504ZM35.5957 18.1152C35.498 18.1803 35.4003 18.2373 35.3027 18.2861C35.205 18.335 35.1074 18.3431 35.0097 18.3105H31.6894V20.0195H34.1796C34.4075 20.0195 34.6028 20.1009 34.7656 20.2637C34.9283 20.4264 35.0097 20.6217 35.0097 20.8496C35.0097 20.9473 34.9853 21.0449 34.9365 21.1426C34.8877 21.2402 34.8307 21.3379 34.7656 21.4355C34.6679 21.5007 34.5703 21.5576 34.4726 21.6064C34.375 21.6553 34.2773 21.6797 34.1796 21.6797H30.8105V23.3398H33.3496C33.5774 23.3398 33.7727 23.4212 33.9355 23.584C34.0983 23.7467 34.1796 23.9421 34.1796 24.1699C34.1796 24.2676 34.1552 24.3734 34.1064 24.4873C34.0576 24.6012 34.0006 24.6908 33.9355 24.7559C33.8378 24.821 33.7402 24.8779 33.6425 24.9268C33.5449 24.9756 33.4472 25 33.3496 25H29.9804V26.6602H32.5195C32.7474 26.6602 32.9427 26.7415 33.1054 26.9043C33.2682 27.0671 33.3496 27.2624 33.3496 27.4902C33.3496 27.6204 33.3252 27.7344 33.2763 27.832C33.2275 27.9297 33.1543 28.0111 33.0566 28.0762C32.9915 28.1738 32.9101 28.2389 32.8125 28.2715C32.7148 28.304 32.6171 28.3203 32.5195 28.3203H20.0195V19.5801L23.8769 16.5039C23.9095 16.4388 23.942 16.39 23.9746 16.3574C24.0071 16.3249 24.0397 16.276 24.0722 16.2109L25.7324 12.8906C25.7649 12.8255 25.7893 12.7604 25.8056 12.6953C25.8219 12.6302 25.83 12.5651 25.83 12.5V9.32617C26.3183 9.48893 26.7171 9.79004 27.0263 10.2295C27.3356 10.6689 27.4902 11.1491 27.4902 11.6699V15.8203C27.4902 16.0482 27.5716 16.2435 27.7343 16.4062C27.8971 16.569 28.0924 16.6504 28.3203 16.6504H35.0097C35.2376 16.6504 35.4329 16.7318 35.5957 16.8945C35.7584 17.0573 35.8398 17.2526 35.8398 17.4805C35.8398 17.6107 35.8154 17.7246 35.7666 17.8223C35.7177 17.9199 35.6608 18.0176 35.5957 18.1152Z" fill="#4CAF50"/>
</svg>
