<svg width="24" height="20" viewBox="0 0 24 20" fill="none" xmlns="http://www.w3.org/2000/svg">
<path d="M21.386 8.15625C20.761 8.15625 19.9915 8.05078 19.0774 7.83984C18.1634 7.62891 17.5267 7.34375 17.1673 6.98438C16.9485 6.76562 16.8001 6.53125 16.722 6.28125C16.6438 6.03125 16.5892 5.79688 16.5579 5.57812C16.511 5.3125 16.4602 5.125 16.4056 5.01562C16.3509 4.90625 16.2688 4.82812 16.1595 4.78125C15.6126 4.54688 14.9681 4.36719 14.2259 4.24219C13.4837 4.11719 12.7063 4.05469 11.8938 4.05469C11.097 4.05469 10.3274 4.11719 9.58525 4.24219C8.84306 4.36719 8.20634 4.53906 7.67509 4.75781C7.56572 4.80469 7.48759 4.88281 7.44072 4.99219C7.39384 5.10156 7.33915 5.28906 7.27665 5.55469C7.2454 5.77344 7.19072 6.01172 7.11259 6.26953C7.03447 6.52734 6.88603 6.76562 6.66728 6.98438C6.47978 7.17188 6.20634 7.33594 5.84697 7.47656C5.48759 7.61719 5.15165 7.72656 4.83915 7.80469C4.4329 7.89844 4.02275 7.97266 3.60869 8.02734C3.19462 8.08203 2.81572 8.10938 2.47197 8.10938C2.08134 8.10938 1.74931 8.07422 1.47587 8.00391C1.20244 7.93359 0.987592 7.82031 0.831342 7.66406C0.596967 7.42969 0.409467 7.15625 0.268842 6.84375C0.128217 6.53125 0.0422794 6.21094 0.0110294 5.88281C-0.0202206 5.61719 0.0149357 5.29297 0.116498 4.91016C0.218061 4.52734 0.456342 4.14844 0.831342 3.77344C1.44072 3.16406 2.15556 2.62109 2.97587 2.14453C3.79619 1.66797 4.71415 1.26562 5.72978 0.9375C6.66728 0.640625 7.65556 0.410156 8.69462 0.246094C9.73369 0.0820312 10.7923 0 11.8704 0C12.9485 0 14.011 0.0820312 15.0579 0.246094C16.1048 0.410156 17.1048 0.648438 18.0579 0.960938C19.0735 1.28906 19.9954 1.69141 20.8235 2.16797C21.6517 2.64453 22.3782 3.19531 23.0032 3.82031C23.6282 4.44531 23.9017 5.12891 23.8235 5.87109C23.7454 6.61328 23.4798 7.21875 23.0267 7.6875C22.8704 7.84375 22.6556 7.96094 22.3821 8.03906C22.1087 8.11719 21.7767 8.15625 21.386 8.15625ZM11.8938 2.83594C12.8001 2.83594 13.6595 2.91016 14.472 3.05859C15.2845 3.20703 16.0032 3.41406 16.6282 3.67969C17.0501 3.86719 17.3274 4.125 17.4602 4.45312C17.5931 4.78125 17.6829 5.07812 17.7298 5.34375C17.761 5.51562 17.7962 5.67188 17.8352 5.8125C17.8743 5.95312 17.9329 6.0625 18.011 6.14062C18.1673 6.29688 18.6048 6.46875 19.3235 6.65625C20.0423 6.84375 20.7298 6.9375 21.386 6.9375C21.6829 6.9375 21.886 6.92188 21.9954 6.89062C22.1048 6.85938 22.1673 6.83594 22.1829 6.82031C22.3548 6.63281 22.4993 6.33594 22.6165 5.92969C22.7337 5.52344 22.5813 5.10156 22.1595 4.66406C21.6126 4.13281 20.972 3.64844 20.2376 3.21094C19.5032 2.78906 18.6907 2.42969 17.8001 2.13281C16.9095 1.83594 15.9642 1.60938 14.9642 1.45312C13.9642 1.29688 12.9329 1.21875 11.8704 1.21875C10.8079 1.21875 9.77665 1.29688 8.77665 1.45312C7.79228 1.60938 6.86259 1.83203 5.98759 2.12109C5.11259 2.41016 4.3079 2.76562 3.57353 3.1875C2.83915 3.60938 2.20634 4.08594 1.67509 4.61719C1.50322 4.80469 1.37822 4.99609 1.30009 5.19141C1.22197 5.38672 1.19072 5.58594 1.20634 5.78906C1.22197 5.97656 1.26884 6.16016 1.34697 6.33984C1.42509 6.51953 1.53447 6.67188 1.67509 6.79688C1.69072 6.8125 1.75322 6.83594 1.86259 6.86719C1.97197 6.89844 2.17509 6.91406 2.47197 6.91406C3.12822 6.91406 3.81181 6.82031 4.52275 6.63281C5.23369 6.44531 5.66728 6.27344 5.82353 6.11719C5.90165 6.03906 5.96025 5.92969 5.99931 5.78906C6.03837 5.64844 6.07353 5.5 6.10478 5.34375C6.15165 5.0625 6.2415 4.75781 6.37431 4.42969C6.50712 4.10156 6.78447 3.84375 7.20634 3.65625C7.81572 3.39062 8.52665 3.1875 9.33915 3.04688C10.1517 2.90625 11.0032 2.83594 11.8938 2.83594ZM19.722 19.0781H4.11259C3.70634 19.0781 3.32353 19 2.96415 18.8438C2.60478 18.6875 2.29228 18.4688 2.02665 18.1875C1.76103 17.8906 1.5579 17.5586 1.41728 17.1914C1.27665 16.8242 1.22197 16.4375 1.25322 16.0312C1.25322 15.9844 1.33525 15.5 1.49931 14.5781C1.66337 13.6562 2.08915 12.6484 2.77665 11.5547C3.1829 10.8984 3.65556 10.3125 4.19462 9.79688C4.73369 9.28125 5.33134 8.83594 5.98759 8.46094C6.81572 7.99219 7.72587 7.64453 8.71806 7.41797C9.71025 7.19141 10.7767 7.07812 11.9173 7.07812C13.0579 7.07812 14.1243 7.19141 15.1165 7.41797C16.1087 7.64453 17.0188 7.99219 17.847 8.46094C18.5032 8.83594 19.1009 9.28125 19.6399 9.79688C20.179 10.3125 20.6517 10.8984 21.0579 11.5547C21.7454 12.6484 22.1712 13.6562 22.3352 14.5781C22.4993 15.5 22.5813 15.9844 22.5813 16.0312C22.6126 16.4375 22.5579 16.8242 22.4173 17.1914C22.2767 17.5586 22.0735 17.8906 21.8079 18.1875C21.5423 18.4688 21.2298 18.6875 20.8704 18.8438C20.511 19 20.1282 19.0781 19.722 19.0781ZM11.9173 8.27344C10.9798 8.27344 10.1048 8.35156 9.29228 8.50781C8.4954 8.67969 7.75712 8.92578 7.07744 9.24609C6.39775 9.56641 5.78447 9.96875 5.23759 10.4531C4.70634 10.9375 4.22978 11.5 3.8079 12.1406C3.19853 13.125 2.81962 14.0312 2.67119 14.8594C2.52275 15.6875 2.44853 16.1016 2.44853 16.1016C2.4329 16.3359 2.46415 16.5625 2.54228 16.7812C2.6204 17 2.73759 17.1875 2.89384 17.3438C3.05009 17.5156 3.23369 17.6445 3.44462 17.7305C3.65556 17.8164 3.87822 17.8594 4.11259 17.8594H19.722C19.9563 17.8594 20.179 17.8164 20.3899 17.7305C20.6009 17.6445 20.7845 17.5156 20.9407 17.3438C21.097 17.1875 21.2142 17 21.2923 16.7812C21.3704 16.5625 21.4017 16.3359 21.386 16.1016C21.386 16.1016 21.3118 15.6875 21.1634 14.8594C21.0149 14.0312 20.636 13.125 20.0267 12.1406C19.6048 11.5 19.1282 10.9375 18.597 10.4531C18.0501 9.96875 17.4368 9.56641 16.7571 9.24609C16.0774 8.92578 15.3392 8.67969 14.5423 8.50781C13.7298 8.35156 12.8548 8.27344 11.9173 8.27344ZM11.9173 16.6641C10.9173 16.6641 10.0657 16.3125 9.36259 15.6094C8.65947 14.9062 8.3079 14.0625 8.3079 13.0781C8.3079 12.0781 8.65947 11.2266 9.36259 10.5234C10.0657 9.82031 10.9173 9.46875 11.9173 9.46875C12.9173 9.46875 13.7688 9.82031 14.472 10.5234C15.1751 11.2266 15.5267 12.0781 15.5267 13.0781C15.5267 14.0625 15.1751 14.9062 14.472 15.6094C13.7688 16.3125 12.9173 16.6641 11.9173 16.6641ZM11.9173 10.6641C11.261 10.6641 10.6985 10.8984 10.2298 11.3672C9.76103 11.8359 9.52665 12.4062 9.52665 13.0781C9.52665 13.7344 9.76103 14.2969 10.2298 14.7656C10.6985 15.2344 11.261 15.4688 11.9173 15.4688C12.5735 15.4688 13.136 15.2344 13.6048 14.7656C14.0735 14.2969 14.3079 13.7344 14.3079 13.0781C14.3079 12.4062 14.0735 11.8359 13.6048 11.3672C13.136 10.8984 12.5735 10.6641 11.9173 10.6641Z" fill="white"/>
</svg>
