<svg width="23" height="31" viewBox="0 0 23 31" fill="none" xmlns="http://www.w3.org/2000/svg">
<path d="M21.8262 14.4302L1.11328 0.133301C1.01562 0.0551758 0.898438 0.0112305 0.761719 0.00146484C0.625 -0.00830078 0.498047 0.0258789 0.380859 0.104004C0.263672 0.162598 0.170898 0.245605 0.102539 0.353027C0.0341797 0.460449 0 0.58252 0 0.719238V29.2837C0 29.4204 0.0341797 29.5474 0.102539 29.6646C0.170898 29.7817 0.263672 29.8696 0.380859 29.9282C0.439453 29.9478 0.498047 29.9673 0.556641 29.9868C0.615234 30.0063 0.664062 30.0161 0.703125 30.0161C0.78125 30.0161 0.854492 30.0063 0.922852 29.9868C0.991211 29.9673 1.05469 29.9282 1.11328 29.8696L21.8262 15.6021C21.9238 15.5239 22.002 15.436 22.0605 15.3384C22.1191 15.2407 22.1484 15.1333 22.1484 15.0161C22.1484 14.8989 22.1191 14.7866 22.0605 14.6792C22.002 14.5718 21.9238 14.4888 21.8262 14.4302Z" fill="#4CAF50"/>
</svg>
