<svg width="40" height="34" viewBox="0 0 40 34" fill="none" xmlns="http://www.w3.org/2000/svg">
<path d="M18.9844 9.49219C18.9844 8.1901 18.737 6.96615 18.2422 5.82031C17.7214 4.67448 17.0378 3.67188 16.1914 2.8125C15.3451 1.95312 14.3359 1.27604 13.1641 0.78125C12.0182 0.260418 10.7943 0 9.49219 0C8.1901 0 6.96615 0.260418 5.82031 0.78125C4.64844 1.27604 3.63281 1.95312 2.77344 2.8125C1.91406 3.67188 1.23698 4.67448 0.742188 5.82031C0.247396 6.96615 0 8.1901 0 9.49219C0 10.8203 0.247396 12.0573 0.742188 13.2031C1.23698 14.349 1.91406 15.3516 2.77344 16.2109C3.63281 17.0703 4.63542 17.7474 5.78125 18.2422C6.95312 18.737 8.1901 18.9844 9.49219 18.9844C9.80469 18.9844 10.1172 18.9714 10.4297 18.9453C10.7422 18.9193 11.0677 18.8672 11.4062 18.7891C11.1198 20.0391 10.7682 21.224 10.3516 22.3438C9.96094 23.4635 9.54427 24.5052 9.10156 25.4688C8.65885 26.4323 8.21615 27.3177 7.77344 28.125C7.33073 28.9062 6.95312 29.5833 6.64062 30.1562C6.45833 30.4427 6.30208 30.7096 6.17188 30.957C6.04167 31.2044 5.92448 31.4193 5.82031 31.6016C5.74219 31.7578 5.66406 31.9857 5.58594 32.2852C5.50781 32.5846 5.59896 32.8385 5.85938 33.0469C5.9375 33.125 6.02214 33.1836 6.11328 33.2227C6.20443 33.2617 6.30208 33.2812 6.40625 33.2812C6.58854 33.2812 6.79036 33.2227 7.01172 33.1055C7.23307 32.9883 7.4349 32.8646 7.61719 32.7344C7.8776 32.5781 8.20312 32.3633 8.59375 32.0898C8.98438 31.8164 9.49219 31.4453 10.1172 30.9766L10.1562 30.9375C11.276 29.9479 12.2917 28.8737 13.2031 27.7148C14.1146 26.556 14.9219 25.3385 15.625 24.0625C16.1979 23.0208 16.6992 21.9336 17.1289 20.8008C17.5586 19.668 17.9167 18.5026 18.2031 17.3047C18.6719 15.3776 18.9258 13.7044 18.9648 12.2852C19.0039 10.8659 19.0104 9.9349 18.9844 9.49219ZM16.7969 16.9531C16.4844 18.2292 16.0938 19.4661 15.625 20.6641C15.1562 21.8359 14.6094 22.9622 13.9844 24.043C13.3594 25.1237 12.6432 26.1458 11.8359 27.1094C11.0547 28.0729 10.1953 28.9714 9.25781 29.8047C9.10156 29.9349 8.90625 30.0846 8.67188 30.2539C8.4375 30.4232 8.1901 30.599 7.92969 30.7812C8.29427 30.1302 8.72396 29.362 9.21875 28.4766C9.6875 27.5911 10.1693 26.6016 10.6641 25.5078C11.1589 24.4141 11.6146 23.2292 12.0312 21.9531C12.474 20.6771 12.8125 19.3229 13.0469 17.8906L13.2422 16.6797L12.1094 17.1094C11.6667 17.2396 11.2305 17.3438 10.8008 17.4219C10.3711 17.5 9.9349 17.5391 9.49219 17.5391C8.39844 17.5391 7.35677 17.3307 6.36719 16.9141C5.40365 16.4974 4.55729 15.9245 3.82812 15.1953C3.09896 14.4661 2.52604 13.6068 2.10938 12.6172C1.69271 11.6536 1.48438 10.612 1.48438 9.49219C1.48438 8.39844 1.69271 7.35677 2.10938 6.36719C2.52604 5.40365 3.09896 4.55729 3.82812 3.82812C4.55729 3.09896 5.40365 2.52604 6.36719 2.10938C7.33073 1.69271 8.3724 1.48438 9.49219 1.48438C10.5859 1.48438 11.6276 1.69271 12.6172 2.10938C13.5807 2.52604 14.4271 3.09896 15.1562 3.82812C15.8854 4.55729 16.4583 5.40365 16.875 6.36719C17.3177 7.33073 17.5391 8.3724 17.5391 9.49219V9.53125C17.5391 9.55729 17.5391 9.57031 17.5391 9.57031C17.5391 9.57031 17.5391 9.58333 17.5391 9.60938C17.5651 10 17.5586 10.8659 17.5195 12.207C17.4805 13.5482 17.2396 15.1302 16.7969 16.9531ZM39.8047 9.53125C39.8047 8.20312 39.5573 6.96615 39.0625 5.82031C38.5677 4.67448 37.8906 3.67188 37.0312 2.8125C36.1719 1.95312 35.1693 1.27604 34.0234 0.78125C32.8516 0.286457 31.6146 0.0390625 30.3125 0.0390625C29.0104 0.0390625 27.7865 0.286457 26.6406 0.78125C25.4948 1.27604 24.4922 1.95312 23.6328 2.8125C22.7734 3.67188 22.0964 4.67448 21.6016 5.82031C21.1068 6.96615 20.8594 8.1901 20.8594 9.49219C20.8594 10.8203 21.1068 12.0573 21.6016 13.2031C22.0964 14.349 22.7734 15.3516 23.6328 16.2109C24.4922 17.0703 25.4948 17.7474 26.6406 18.2422C27.7865 18.737 29.0104 18.9844 30.3125 18.9844C30.625 18.9844 30.944 18.9714 31.2695 18.9453C31.5951 18.9193 31.9141 18.8672 32.2266 18.7891C31.9401 20.0391 31.6016 21.224 31.2109 22.3438C30.7943 23.4635 30.3646 24.5052 29.9219 25.4688C29.4792 26.4323 29.0365 27.3047 28.5938 28.0859C28.1771 28.8932 27.7995 29.5833 27.4609 30.1562C27.2786 30.4427 27.1224 30.7031 26.9922 30.9375C26.862 31.1719 26.7578 31.3802 26.6797 31.5625C26.6016 31.7448 26.5169 31.9857 26.4258 32.2852C26.3346 32.5846 26.4193 32.8385 26.6797 33.0469C26.7578 33.125 26.8424 33.1836 26.9336 33.2227C27.0247 33.2617 27.1224 33.2812 27.2266 33.2812C27.4349 33.2812 27.6432 33.2227 27.8516 33.1055C28.0599 32.9883 28.2682 32.8646 28.4766 32.7344C28.737 32.5781 29.056 32.3633 29.4336 32.0898C29.8112 31.8164 30.3255 31.4453 30.9766 30.9766L31.0156 30.9375C32.1094 29.9479 33.112 28.8737 34.0234 27.7148C34.9349 26.556 35.7422 25.3385 36.4453 24.0625C37.0182 23.0208 37.5195 21.9336 37.9492 20.8008C38.3789 19.668 38.737 18.5026 39.0234 17.3047C39.4922 15.3776 39.7461 13.7044 39.7852 12.2852C39.8242 10.8659 39.8307 9.94792 39.8047 9.53125ZM37.6172 16.9531C37.3307 18.2552 36.9401 19.4922 36.4453 20.6641C35.9766 21.8359 35.4297 22.9622 34.8047 24.043C34.1797 25.1237 33.4766 26.1458 32.6953 27.1094C31.888 28.0729 31.0156 28.9844 30.0781 29.8438C29.9219 29.9479 29.7266 30.0846 29.4922 30.2539C29.2578 30.4232 29.0104 30.599 28.75 30.7812C29.1146 30.1562 29.5443 29.388 30.0391 28.4766C30.5339 27.5911 31.0221 26.6016 31.5039 25.5078C31.9857 24.4141 32.4349 23.2292 32.8516 21.9531C33.2943 20.6771 33.6328 19.3359 33.8672 17.9297L34.1016 16.7188L32.9297 17.1094C32.513 17.2396 32.0833 17.3438 31.6406 17.4219C31.1979 17.5 30.7552 17.5391 30.3125 17.5391C29.2188 17.5391 28.1901 17.3307 27.2266 16.9141C26.237 16.4974 25.3776 15.9245 24.6484 15.1953C23.9193 14.4661 23.3464 13.6068 22.9297 12.6172C22.513 11.6536 22.3047 10.612 22.3047 9.49219C22.3047 8.39844 22.513 7.35677 22.9297 6.36719C23.3464 5.40365 23.9193 4.55729 24.6484 3.82812C25.3776 3.09896 26.224 2.52604 27.1875 2.10938C28.1771 1.69271 29.2188 1.48438 30.3125 1.48438C31.4323 1.48438 32.474 1.69271 33.4375 2.10938C34.4271 2.52604 35.2865 3.09896 36.0156 3.82812C36.7448 4.55729 37.3177 5.40365 37.7344 6.36719C38.151 7.35677 38.3594 8.39844 38.3594 9.49219V9.57031C38.3594 9.57031 38.3594 9.57682 38.3594 9.58984C38.3594 9.60287 38.3594 9.60938 38.3594 9.60938C38.3854 10 38.3789 10.8659 38.3398 12.207C38.3008 13.5482 38.0599 15.1302 37.6172 16.9531Z" fill="#4CAF50"/>
</svg>
