<svg width="15" height="11" viewBox="0 0 15 11" fill="none" xmlns="http://www.w3.org/2000/svg">
<path d="M10.1074 0.161133C10 0.0537109 9.87305 0 9.72656 0C9.58008 0 9.45312 0.0537109 9.3457 0.161133C9.23828 0.258789 9.18457 0.380859 9.18457 0.527344C9.18457 0.673828 9.23828 0.800781 9.3457 0.908203L13.1836 4.74609H0.527344C0.380859 4.74609 0.256348 4.79736 0.153809 4.8999C0.0512695 5.00244 0 5.12695 0 5.27344C0 5.41992 0.0512695 5.54443 0.153809 5.64697C0.256348 5.74951 0.380859 5.80078 0.527344 5.80078H13.1836L9.3457 9.63867C9.23828 9.73633 9.18457 9.86084 9.18457 10.0122C9.18457 10.1636 9.23828 10.2881 9.3457 10.3857C9.45312 10.4932 9.58008 10.5469 9.72656 10.5469C9.87305 10.5469 10 10.4932 10.1074 10.3857L14.8389 5.6543C14.9463 5.54688 15 5.41992 15 5.27344C15 5.12695 14.9463 5 14.8389 4.89258L10.1074 0.161133Z" fill="white"/>
</svg>
