<svg xmlns="http://www.w3.org/2000/svg" aria-hidden="true" style="position:absolute;width:0;height:0;overflow:hidden">
  <defs>
 <symbol id="icon-right-arrow" viewBox="0 0 44 32">
<path d="M29.403 0.469c-0.312-0.313-0.682-0.469-1.108-0.469s-0.795 0.156-1.108 0.469c-0.313 0.284-0.469 0.639-0.469 1.065s0.156 0.795 0.469 1.108l11.165 11.165h-36.818c-0.426 0-0.788 0.149-1.087 0.447s-0.447 0.661-0.447 1.087c0 0.426 0.149 0.788 0.447 1.087s0.661 0.447 1.087 0.447h36.818l-11.165 11.165c-0.313 0.284-0.469 0.646-0.469 1.087s0.156 0.803 0.469 1.087c0.313 0.313 0.682 0.469 1.108 0.469s0.795-0.156 1.108-0.469l13.764-13.764c0.312-0.313 0.469-0.682 0.469-1.108s-0.156-0.795-0.469-1.108l-13.764-13.764z"></path>
</symbol>
<symbol id="icon-email" viewBox="0 0 32 32">
<path d="M31.076 31.076c0 0 0-0.793 0-2.38s0-3.457 0-5.609c0-2.152 0-4.326 0-6.522s0-3.902 0-5.12c0-0.109-0.049-0.223-0.147-0.342s-0.212-0.223-0.342-0.31l-5.12-3.717v-4.109c0-0.217-0.071-0.386-0.212-0.505s-0.299-0.179-0.473-0.179h-5.869l-2.967-2.185c-0.109-0.065-0.234-0.098-0.375-0.098s-0.266 0.033-0.375 0.098l-2.967 2.185h-5.87c-0.196 0-0.359 0.071-0.489 0.212s-0.196 0.299-0.196 0.473v4.043l-5.185 3.783c-0.152 0.109-0.272 0.217-0.359 0.326s-0.13 0.217-0.13 0.326c0 1.239 0 2.967 0 5.185 0 2.196 0 4.375 0 6.538s0 4.049 0 5.658c0 1.587 0 2.38 0 2.38 0 0.196 0.060 0.353 0.179 0.473s0.266 0.19 0.44 0.212c0 0 0.005 0 0.016 0s0.016 0 0.016 0h29.739c0.217 0 0.386-0.076 0.505-0.228s0.179-0.348 0.179-0.587zM29.804 12.652v17.185l-11.217-8.967 11.217-8.217zM29.283 11.478l-3.815 2.772v-5.609l3.815 2.837zM15.554 1.402l1.174 0.88h-2.38l1.207-0.88zM24.098 3.62v11.641l-8.543 6.228-8.576-6.228v-11.641h17.12zM1.272 12.652l11.25 8.217-11.25 9.033v-17.25zM5.707 14.315l-3.946-2.87 3.946-2.87v5.739zM2.511 30.587l11.087-8.935 1.533 1.141c0.152 0.109 0.288 0.163 0.408 0.163s0.255-0.054 0.408-0.163l1.533-1.141 11.152 8.935h-26.12zM10.989 6.946h9.163v1.304h-9.163v-1.304zM10.989 11.087h9.163v1.304h-9.163v-1.304zM10.989 15.228h9.163v1.304h-9.163v-1.304z"></path>
</symbol>
<symbol id="icon-phone" viewBox="0 0 38 32">
<path d="M34.218 13.050c-1 0-2.231-0.169-3.694-0.506s-2.481-0.794-3.056-1.369c-0.35-0.35-0.588-0.725-0.712-1.125s-0.212-0.775-0.263-1.125c-0.075-0.425-0.156-0.725-0.244-0.9s-0.219-0.3-0.394-0.375c-0.875-0.375-1.906-0.662-3.094-0.862s-2.431-0.3-3.731-0.3c-1.275 0-2.506 0.1-3.694 0.3s-2.206 0.475-3.056 0.825c-0.175 0.075-0.3 0.2-0.375 0.375s-0.162 0.475-0.262 0.9c-0.050 0.35-0.137 0.731-0.262 1.144s-0.363 0.794-0.713 1.144c-0.3 0.3-0.738 0.563-1.313 0.787s-1.113 0.4-1.612 0.525c-0.65 0.15-1.306 0.269-1.969 0.356s-1.269 0.131-1.819 0.131c-0.625 0-1.156-0.056-1.594-0.169s-0.781-0.294-1.031-0.544c-0.375-0.375-0.675-0.813-0.9-1.313s-0.362-1.012-0.412-1.537c-0.050-0.425 0.006-0.944 0.169-1.556s0.544-1.219 1.144-1.819c0.975-0.975 2.119-1.844 3.431-2.606s2.781-1.406 4.406-1.931c1.5-0.475 3.081-0.844 4.744-1.106s3.356-0.394 5.081-0.394c1.725 0 3.425 0.131 5.1 0.394s3.275 0.644 4.8 1.144c1.625 0.525 3.1 1.169 4.425 1.931s2.488 1.644 3.488 2.644 1.438 2.094 1.312 3.281c-0.125 1.188-0.55 2.156-1.275 2.906-0.25 0.25-0.594 0.438-1.031 0.563s-0.969 0.188-1.594 0.188zM19.030 4.537c1.45 0 2.825 0.119 4.125 0.356s2.45 0.569 3.45 0.994c0.675 0.3 1.119 0.713 1.331 1.237s0.356 1 0.431 1.425c0.050 0.275 0.106 0.525 0.169 0.75s0.156 0.4 0.281 0.525c0.25 0.25 0.95 0.525 2.1 0.825s2.25 0.45 3.3 0.45c0.475 0 0.8-0.025 0.975-0.075s0.275-0.088 0.3-0.113c0.275-0.3 0.506-0.775 0.694-1.425s-0.056-1.325-0.731-2.025c-0.875-0.85-1.9-1.625-3.075-2.325-1.175-0.675-2.475-1.25-3.9-1.725s-2.937-0.837-4.537-1.087c-1.6-0.25-3.25-0.375-4.95-0.375s-3.35 0.125-4.95 0.375c-1.575 0.25-3.063 0.606-4.463 1.069s-2.688 1.031-3.862 1.706c-1.175 0.675-2.188 1.438-3.038 2.288-0.275 0.3-0.475 0.606-0.6 0.919s-0.175 0.631-0.15 0.956c0.025 0.3 0.1 0.594 0.225 0.881s0.3 0.531 0.525 0.731c0.025 0.025 0.125 0.063 0.3 0.113s0.5 0.075 0.975 0.075c1.050 0 2.144-0.15 3.281-0.45s1.831-0.575 2.081-0.825c0.125-0.125 0.219-0.3 0.281-0.525s0.119-0.463 0.169-0.713c0.075-0.45 0.219-0.938 0.431-1.463s0.656-0.938 1.331-1.237c0.975-0.425 2.112-0.75 3.412-0.975s2.662-0.338 4.087-0.338zM31.555 30.525h-24.975c-0.65 0-1.263-0.125-1.838-0.375s-1.075-0.6-1.5-1.050c-0.425-0.475-0.75-1.006-0.975-1.594s-0.313-1.206-0.263-1.856c0-0.075 0.131-0.85 0.394-2.325s0.944-3.088 2.044-4.837c0.65-1.050 1.406-1.988 2.269-2.813s1.819-1.537 2.869-2.137c1.325-0.75 2.781-1.306 4.369-1.669s3.294-0.544 5.119-0.544c1.825 0 3.531 0.181 5.119 0.544s3.044 0.919 4.369 1.669c1.050 0.6 2.006 1.313 2.869 2.137s1.619 1.762 2.269 2.813c1.1 1.75 1.781 3.362 2.044 4.837s0.394 2.25 0.394 2.325c0.050 0.65-0.037 1.269-0.262 1.856s-0.55 1.119-0.975 1.594c-0.425 0.45-0.925 0.8-1.5 1.050s-1.188 0.375-1.837 0.375zM19.068 13.238c-1.5 0-2.9 0.125-4.2 0.375-1.275 0.275-2.456 0.669-3.544 1.181s-2.069 1.156-2.944 1.931c-0.85 0.775-1.612 1.675-2.287 2.7-0.975 1.575-1.581 3.025-1.819 4.35s-0.356 1.988-0.356 1.988c-0.025 0.375 0.025 0.737 0.15 1.087s0.313 0.65 0.563 0.9c0.25 0.275 0.544 0.481 0.881 0.619s0.694 0.206 1.069 0.206h24.975c0.375 0 0.731-0.069 1.069-0.206s0.631-0.344 0.881-0.619c0.25-0.25 0.438-0.55 0.563-0.9s0.175-0.712 0.15-1.087c0 0-0.119-0.663-0.356-1.988s-0.844-2.775-1.819-4.35c-0.675-1.025-1.438-1.925-2.288-2.7-0.875-0.775-1.856-1.419-2.944-1.931s-2.269-0.906-3.544-1.181c-1.3-0.25-2.7-0.375-4.2-0.375zM19.068 26.663c-1.6 0-2.963-0.563-4.088-1.688s-1.688-2.475-1.688-4.050c0-1.6 0.563-2.962 1.688-4.088s2.488-1.687 4.088-1.687 2.962 0.563 4.088 1.687c1.125 1.125 1.688 2.488 1.688 4.088 0 1.575-0.563 2.925-1.688 4.050s-2.488 1.688-4.088 1.688zM19.068 17.063c-1.050 0-1.95 0.375-2.7 1.125s-1.125 1.662-1.125 2.737c0 1.050 0.375 1.95 1.125 2.7s1.65 1.125 2.7 1.125c1.050 0 1.95-0.375 2.7-1.125s1.125-1.65 1.125-2.7c0-1.075-0.375-1.988-1.125-2.737s-1.65-1.125-2.7-1.125z"></path>
</symbol>
<symbol id="icon-up-arrow" viewBox="0 0 30 32">
<path d="M1.959 17.247l-1.487-1.487c-0.629-0.629-0.629-1.647 0-2.27l13.011-13.018c0.629-0.629 1.647-0.629 2.27 0l13.011 13.011c0.63 0.629 0.63 1.647 0 2.27l-1.487 1.487c-0.636 0.636-1.674 0.623-2.297-0.027l-7.681-8.063v19.245c0 0.891-0.717 1.607-1.607 1.607h-2.143c-0.891 0-1.607-0.717-1.607-1.607v-19.245l-7.688 8.069c-0.623 0.656-1.661 0.67-2.297 0.027z"></path>
</symbol>
<symbol id="icon-youtube" viewBox="0 0 45 32">
<path d="M44.012 5.031c-0.262-1.196-0.838-2.195-1.728-2.997s-1.918-1.276-3.084-1.422c-1.4-0.146-2.8-0.263-4.2-0.35s-2.8-0.153-4.2-0.197c-1.4-0.044-2.8-0.066-4.2-0.066s-2.8 0-4.2 0c-1.4 0-2.8 0-4.2 0s-2.8 0.022-4.2 0.066c-1.4 0.044-2.8 0.109-4.2 0.197s-2.785 0.204-4.156 0.35c-1.196 0.146-2.239 0.62-3.128 1.422s-1.466 1.801-1.728 2.997c-0.379 1.692-0.605 3.442-0.678 5.25s-0.109 3.588-0.109 5.338c0 1.75 0.029 3.529 0.087 5.338s0.292 3.558 0.7 5.25c0.262 1.196 0.839 2.195 1.728 2.997s1.932 1.261 3.128 1.378c1.371 0.175 2.756 0.306 4.156 0.394s2.8 0.146 4.2 0.175c1.4 0.029 2.8 0.044 4.2 0.044 1.4 0.029 2.8 0.044 4.2 0.044s2.8-0.015 4.2-0.044c1.4 0 2.8-0.015 4.2-0.044s2.8-0.088 4.2-0.175c1.4-0.088 2.785-0.219 4.156-0.394 1.196-0.117 2.239-0.576 3.128-1.378s1.466-1.801 1.728-2.997c0.379-1.692 0.605-3.442 0.678-5.25s0.109-3.588 0.109-5.338c0-1.75-0.029-3.529-0.087-5.338s-0.292-3.558-0.7-5.25zM16.625 22.575c0-1.254 0-2.494 0-3.719s0-2.457 0-3.697c0-1.24 0-2.472 0-3.697s0-2.465 0-3.719c1.196 0.613 2.377 1.24 3.544 1.881 1.196 0.613 2.384 1.225 3.566 1.838s2.37 1.225 3.566 1.838c1.167 0.642 2.348 1.269 3.544 1.881-1.167 0.613-2.348 1.225-3.544 1.837s-2.384 1.225-3.566 1.837c-1.181 0.612-2.37 1.24-3.566 1.881-1.167 0.613-2.348 1.225-3.544 1.837z"></path>
</symbol>
<symbol id="icon-x" viewBox="0 0 35 32">
<path d="M26.425 0h5.148l-11.244 12.848 13.227 17.485h-10.354l-8.116-10.602-9.275 10.602h-5.155l12.024-13.745-12.68-16.589h10.617l7.328 9.691 8.48-9.691zM24.617 27.256h2.851l-18.404-24.34h-3.063l18.616 24.34z"></path>
</symbol>
<symbol id="icon-instagram" viewBox="0 0 32 32">
<path d="M31.906 9.406c-0.042-0.854-0.125-1.589-0.25-2.203s-0.292-1.172-0.5-1.672c-0.208-0.542-0.464-1.052-0.766-1.531s-0.662-0.917-1.078-1.313c-0.396-0.396-0.833-0.75-1.312-1.063s-0.989-0.573-1.531-0.781c-0.5-0.188-1.057-0.349-1.672-0.484s-1.349-0.224-2.203-0.266c-0.854-0.042-1.625-0.068-2.313-0.078s-2.115-0.016-4.281-0.016c-2.167 0-3.594 0.005-4.281 0.016s-1.458 0.036-2.313 0.078c-0.854 0.042-1.589 0.125-2.203 0.25s-1.172 0.292-1.672 0.5c-0.542 0.208-1.052 0.464-1.531 0.766s-0.917 0.661-1.313 1.078c-0.417 0.396-0.781 0.833-1.094 1.313s-0.563 0.99-0.75 1.531c-0.208 0.5-0.375 1.057-0.5 1.672s-0.208 1.349-0.25 2.203c-0.042 0.854-0.068 1.625-0.078 2.313s-0.016 2.115-0.016 4.281c0 2.167 0.005 3.594 0.016 4.281s0.036 1.458 0.078 2.313c0.042 0.854 0.125 1.589 0.25 2.203s0.292 1.172 0.5 1.672c0.188 0.542 0.438 1.052 0.75 1.531s0.677 0.917 1.094 1.312c0.396 0.417 0.833 0.781 1.313 1.094s0.979 0.563 1.5 0.75c0.521 0.208 1.089 0.375 1.703 0.5s1.349 0.208 2.203 0.25c0.854 0.042 1.62 0.068 2.297 0.078s2.109 0.016 4.297 0.016c2.167 0 3.594-0.005 4.281-0.016s1.458-0.037 2.313-0.078c0.854-0.042 1.589-0.125 2.203-0.25s1.172-0.292 1.672-0.5c1.083-0.417 2.031-1.031 2.844-1.844s1.427-1.76 1.844-2.844c0.187-0.5 0.349-1.057 0.484-1.672s0.224-1.349 0.266-2.203c0.021-0.854 0.042-1.625 0.062-2.313s0.031-2.115 0.031-4.281c0-2.167-0.005-3.594-0.016-4.281s-0.037-1.458-0.078-2.313zM29.031 22.469c-0.042 0.792-0.12 1.417-0.235 1.875s-0.224 0.823-0.328 1.094c-0.271 0.708-0.672 1.323-1.203 1.844s-1.141 0.917-1.828 1.188c-0.292 0.125-0.667 0.24-1.125 0.344s-1.073 0.177-1.844 0.219c-0.854 0.042-1.609 0.068-2.266 0.078s-2.057 0.016-4.203 0.016c-2.125 0-3.521-0.005-4.188-0.016s-1.427-0.037-2.281-0.078c-0.771-0.042-1.385-0.115-1.844-0.219s-0.833-0.219-1.125-0.344c-0.333-0.125-0.656-0.286-0.969-0.484s-0.604-0.432-0.875-0.703c-0.25-0.25-0.479-0.531-0.688-0.844s-0.375-0.646-0.5-1c-0.104-0.271-0.214-0.635-0.328-1.094s-0.182-1.083-0.203-1.875c-0.042-0.833-0.068-1.583-0.078-2.25s-0.016-2.073-0.016-4.219c0-2.125 0.005-3.521 0.016-4.188s0.036-1.417 0.078-2.25c0.021-0.792 0.089-1.417 0.203-1.875s0.224-0.823 0.328-1.094c0.125-0.354 0.292-0.688 0.5-1s0.448-0.594 0.719-0.844c0.25-0.271 0.531-0.505 0.844-0.703s0.635-0.359 0.969-0.484c0.292-0.125 0.667-0.24 1.125-0.344s1.073-0.177 1.844-0.219c0.854-0.042 1.615-0.068 2.281-0.078s2.063-0.016 4.188-0.016c2.146 0 3.552 0.005 4.219 0.016s1.417 0.036 2.25 0.078c0.792 0.042 1.417 0.115 1.875 0.219s0.823 0.219 1.094 0.344c0.354 0.125 0.688 0.286 1 0.484s0.594 0.432 0.844 0.703c0.271 0.25 0.505 0.531 0.703 0.844s0.359 0.646 0.484 1c0.104 0.271 0.213 0.635 0.328 1.094s0.193 1.083 0.235 1.875c0.042 0.833 0.068 1.583 0.078 2.25s0.016 2.063 0.016 4.188c0 2.146-0.005 3.552-0.016 4.219s-0.037 1.417-0.078 2.25zM16 7.781c-1.146 0-2.208 0.219-3.188 0.656-1 0.417-1.875 1-2.625 1.75s-1.333 1.625-1.75 2.625c-0.438 1-0.656 2.063-0.656 3.188 0 1.146 0.219 2.208 0.656 3.188 0.417 1 1 1.875 1.75 2.625s1.625 1.333 2.625 1.75c0.979 0.438 2.042 0.656 3.188 0.656 1.125 0 2.188-0.219 3.188-0.656 1-0.417 1.875-1 2.625-1.75s1.333-1.625 1.75-2.625c0.438-0.979 0.656-2.042 0.656-3.188 0-1.125-0.219-2.188-0.656-3.188-0.417-1-1-1.875-1.75-2.625s-1.625-1.333-2.625-1.75c-1-0.438-2.063-0.656-3.188-0.656zM16 21.344c-1.479 0-2.74-0.521-3.781-1.563s-1.563-2.302-1.563-3.781c0-1.479 0.521-2.74 1.563-3.781s2.302-1.563 3.781-1.563c1.479 0 2.74 0.521 3.781 1.563s1.563 2.302 1.563 3.781c0 1.479-0.521 2.74-1.563 3.781s-2.302 1.563-3.781 1.563zM26.469 7.469c0 0.521-0.188 0.969-0.563 1.344s-0.833 0.563-1.375 0.563c-0.521 0-0.969-0.188-1.344-0.563s-0.562-0.823-0.562-1.344c0-0.542 0.188-1 0.562-1.375s0.823-0.563 1.344-0.563c0.542 0 1 0.188 1.375 0.563s0.563 0.833 0.563 1.375z"></path>
</symbol>
<symbol id="icon-fb" viewBox="0 0 18 32">
<path d="M17.593 0h-4.39c-1.232 0-2.343 0.188-3.334 0.563-1.012 0.354-1.87 0.875-2.575 1.563s-1.243 1.521-1.617 2.5c-0.374 0.958-0.561 2.042-0.561 3.25v3.625h-4.423c-0.198 0-0.363 0.063-0.495 0.188s-0.198 0.281-0.198 0.469v5.25c0 0.188 0.066 0.344 0.198 0.469s0.297 0.188 0.495 0.188h4.423v13.281c0 0.187 0.066 0.344 0.198 0.469s0.286 0.187 0.462 0.187h5.776c0.176 0 0.336-0.062 0.479-0.187s0.215-0.281 0.215-0.469v-13.281h5.149c0.176 0 0.336-0.063 0.479-0.188s0.215-0.281 0.215-0.469v-5.25c0-0.083-0.022-0.167-0.066-0.25s-0.099-0.156-0.165-0.219c-0.044-0.063-0.11-0.109-0.198-0.141s-0.176-0.047-0.264-0.047h-5.149v-3.063c0-0.75 0.143-1.313 0.429-1.688s0.935-0.563 1.947-0.563h2.971c0.198 0 0.363-0.063 0.495-0.188s0.198-0.281 0.198-0.469v-4.875c0-0.188-0.066-0.344-0.198-0.469s-0.297-0.188-0.495-0.188z"></path>
</symbol>
<symbol id="icon-chat" viewBox="0 0 37 32">
<path d="M34.013 0h-30.974c-0.844 0-1.562 0.291-2.153 0.873s-0.886 1.277-0.886 2.085v17.853c0 0.831 0.295 1.538 0.886 2.12s1.309 0.873 2.153 0.873h1.737v7.341c0 0.166 0.048 0.321 0.145 0.463s0.229 0.249 0.398 0.321c0.048 0.024 0.103 0.042 0.163 0.053s0.115 0.018 0.163 0.018c0.121 0 0.235-0.024 0.344-0.071s0.199-0.107 0.271-0.178l8.069-7.947h19.684c0.844 0 1.562-0.291 2.153-0.873s0.887-1.289 0.887-2.12v-17.853c0-0.808-0.296-1.503-0.887-2.085s-1.309-0.873-2.153-0.873zM34.013 22.093h-20.046c-0.097 0-0.199 0.024-0.308 0.071s-0.199 0.095-0.271 0.142c0 0 0 0.006 0 0.018s0 0.018 0 0.018-0.006 0-0.018 0c-0.012 0-0.018 0-0.018 0l-6.839 6.771v-6.165c0-0.024 0-0.041 0-0.053s0-0.018 0-0.018c-0.024-0.214-0.121-0.398-0.289-0.552s-0.362-0.232-0.579-0.232h-2.605c-0.362 0-0.669-0.125-0.923-0.374s-0.38-0.552-0.38-0.909v-17.853c0-0.356 0.127-0.659 0.38-0.909s0.561-0.374 0.923-0.374h30.974c0.362 0 0.669 0.125 0.923 0.374s0.38 0.552 0.38 0.909v17.853c0 0.356-0.127 0.659-0.38 0.909s-0.561 0.374-0.923 0.374zM12.592 6.2h-5.030c-0.241 0-0.446 0.083-0.615 0.249s-0.253 0.356-0.253 0.57c0 0.238 0.084 0.439 0.253 0.606s0.374 0.249 0.615 0.249h5.030c0.241 0 0.446-0.083 0.615-0.249s0.253-0.368 0.253-0.606c0-0.214-0.084-0.404-0.253-0.57s-0.374-0.249-0.615-0.249zM21.53 11.047h-13.967c-0.241 0-0.446 0.083-0.615 0.249s-0.253 0.368-0.253 0.606c0 0.238 0.084 0.44 0.253 0.606s0.374 0.249 0.615 0.249h13.967c0.241 0 0.446-0.083 0.615-0.249s0.253-0.368 0.253-0.606-0.084-0.44-0.253-0.606c-0.169-0.166-0.374-0.249-0.615-0.249zM29.49 6.2h-11.868c-0.241 0-0.446 0.083-0.615 0.249s-0.253 0.356-0.253 0.57c0 0.238 0.084 0.439 0.253 0.606s0.374 0.249 0.615 0.249h11.868c0.241 0 0.446-0.083 0.615-0.249s0.253-0.368 0.253-0.606c0-0.214-0.084-0.404-0.253-0.57s-0.374-0.249-0.615-0.249zM29.49 11.047h-3.112c-0.241 0-0.446 0.083-0.615 0.249s-0.253 0.368-0.253 0.606 0.084 0.44 0.253 0.606c0.169 0.166 0.374 0.249 0.615 0.249h3.112c0.241 0 0.446-0.083 0.615-0.249s0.253-0.368 0.253-0.606c0-0.238-0.084-0.44-0.253-0.606s-0.374-0.249-0.615-0.249zM15.378 15.893h-7.816c-0.241 0-0.446 0.083-0.615 0.249s-0.253 0.368-0.253 0.606c0 0.238 0.084 0.44 0.253 0.606s0.374 0.249 0.615 0.249h7.816c0.241 0 0.446-0.083 0.615-0.249s0.253-0.368 0.253-0.606c0-0.238-0.084-0.439-0.253-0.606s-0.374-0.249-0.615-0.249zM29.49 15.893h-9.553c-0.241 0-0.44 0.083-0.597 0.249s-0.235 0.368-0.235 0.606c0 0.238 0.078 0.44 0.235 0.606s0.356 0.249 0.597 0.249h9.553c0.241 0 0.446-0.083 0.615-0.249s0.253-0.368 0.253-0.606c0-0.238-0.084-0.439-0.253-0.606s-0.374-0.249-0.615-0.249z"></path>
</symbol>
<symbol id="icon-quotation-marks" viewBox="0 0 38 32">
<path d="M17.868 8.934c0-1.226-0.233-2.377-0.699-3.456-0.49-1.078-1.134-2.022-1.93-2.831s-1.746-1.446-2.849-1.912c-1.079-0.49-2.23-0.735-3.456-0.735s-2.377 0.245-3.456 0.735c-1.103 0.466-2.059 1.103-2.868 1.912s-1.446 1.752-1.912 2.831c-0.466 1.078-0.699 2.23-0.699 3.456 0 1.25 0.233 2.414 0.699 3.493s1.103 2.022 1.912 2.831c0.809 0.809 1.752 1.446 2.831 1.912 1.103 0.466 2.267 0.699 3.493 0.699 0.294 0 0.588-0.012 0.882-0.037s0.6-0.073 0.919-0.147c-0.27 1.176-0.6 2.292-0.993 3.346-0.368 1.054-0.76 2.034-1.177 2.941s-0.833 1.74-1.25 2.5c-0.417 0.735-0.772 1.373-1.066 1.912-0.172 0.27-0.319 0.521-0.441 0.754s-0.233 0.435-0.331 0.607c-0.074 0.147-0.147 0.361-0.221 0.643s0.012 0.521 0.257 0.717c0.074 0.073 0.153 0.129 0.239 0.165s0.178 0.055 0.276 0.055c0.172 0 0.362-0.055 0.57-0.165s0.398-0.227 0.57-0.349c0.245-0.147 0.551-0.349 0.919-0.607s0.846-0.607 1.434-1.048l0.037-0.037c1.054-0.931 2.010-1.942 2.868-3.033s1.618-2.237 2.279-3.437c0.539-0.98 1.011-2.004 1.415-3.070s0.741-2.163 1.011-3.29c0.441-1.814 0.68-3.389 0.717-4.724s0.043-2.212 0.018-2.629zM15.809 15.956c-0.294 1.201-0.662 2.365-1.103 3.493-0.441 1.103-0.956 2.163-1.544 3.18s-1.262 1.979-2.022 2.886c-0.735 0.907-1.544 1.752-2.426 2.537-0.147 0.123-0.331 0.263-0.551 0.423s-0.453 0.325-0.699 0.496c0.343-0.613 0.748-1.336 1.213-2.169 0.441-0.833 0.895-1.765 1.36-2.794s0.895-2.145 1.287-3.346c0.417-1.201 0.735-2.475 0.956-3.824l0.184-1.14-1.066 0.404c-0.417 0.123-0.827 0.221-1.232 0.294s-0.815 0.11-1.232 0.11c-1.029 0-2.010-0.196-2.941-0.588-0.907-0.392-1.703-0.931-2.39-1.618s-1.226-1.495-1.618-2.426c-0.392-0.907-0.588-1.887-0.588-2.941 0-1.029 0.196-2.010 0.588-2.941 0.392-0.907 0.931-1.703 1.618-2.39s1.483-1.226 2.39-1.618c0.907-0.392 1.887-0.588 2.941-0.588 1.029 0 2.010 0.196 2.941 0.588 0.907 0.392 1.703 0.931 2.39 1.618s1.226 1.483 1.618 2.39c0.417 0.907 0.625 1.887 0.625 2.941v0.037c0 0.024 0 0.037 0 0.037s0 0.012 0 0.037c0.024 0.368 0.018 1.183-0.018 2.445s-0.263 2.751-0.68 4.467zM37.463 8.971c0-1.25-0.233-2.414-0.699-3.493s-1.103-2.022-1.912-2.831c-0.809-0.809-1.752-1.446-2.831-1.912-1.103-0.466-2.267-0.699-3.493-0.699s-2.377 0.233-3.456 0.699c-1.078 0.466-2.022 1.103-2.831 1.912s-1.446 1.752-1.912 2.831c-0.466 1.078-0.699 2.23-0.699 3.456 0 1.25 0.233 2.414 0.699 3.493s1.103 2.022 1.912 2.831c0.809 0.809 1.752 1.446 2.831 1.912s2.23 0.699 3.456 0.699c0.294 0 0.594-0.012 0.901-0.037s0.607-0.073 0.901-0.147c-0.27 1.176-0.588 2.292-0.956 3.346-0.392 1.054-0.797 2.034-1.213 2.941s-0.833 1.728-1.25 2.463c-0.392 0.76-0.748 1.409-1.066 1.949-0.172 0.27-0.319 0.515-0.441 0.735s-0.221 0.417-0.294 0.588c-0.073 0.172-0.153 0.398-0.239 0.68s-0.006 0.521 0.239 0.717c0.073 0.073 0.153 0.129 0.239 0.165s0.178 0.055 0.276 0.055c0.196 0 0.392-0.055 0.588-0.165s0.392-0.227 0.588-0.349c0.245-0.147 0.545-0.349 0.901-0.607s0.839-0.607 1.452-1.048l0.037-0.037c1.029-0.931 1.973-1.942 2.831-3.033s1.618-2.237 2.279-3.437c0.539-0.98 1.011-2.004 1.415-3.070s0.741-2.163 1.011-3.29c0.441-1.814 0.68-3.389 0.717-4.724s0.043-2.2 0.018-2.592zM35.404 15.956c-0.27 1.226-0.637 2.39-1.103 3.493-0.441 1.103-0.956 2.163-1.544 3.18s-1.25 1.979-1.985 2.886c-0.76 0.907-1.581 1.765-2.463 2.574-0.147 0.098-0.331 0.227-0.551 0.386s-0.453 0.325-0.699 0.496c0.343-0.588 0.748-1.311 1.213-2.169 0.466-0.833 0.925-1.765 1.379-2.794s0.876-2.145 1.268-3.346c0.417-1.201 0.735-2.463 0.956-3.787l0.221-1.14-1.103 0.368c-0.392 0.123-0.797 0.221-1.213 0.294s-0.833 0.11-1.25 0.11c-1.029 0-1.998-0.196-2.904-0.588-0.931-0.392-1.74-0.931-2.427-1.618s-1.225-1.495-1.618-2.426c-0.392-0.907-0.588-1.887-0.588-2.941 0-1.029 0.196-2.010 0.588-2.941 0.392-0.907 0.931-1.703 1.618-2.39s1.483-1.226 2.39-1.618c0.931-0.392 1.912-0.588 2.941-0.588 1.054 0 2.034 0.196 2.941 0.588 0.931 0.392 1.74 0.931 2.426 1.618s1.225 1.483 1.618 2.39c0.392 0.931 0.588 1.912 0.588 2.941v0.074c0 0 0 0.006 0 0.018s0 0.018 0 0.018c0.024 0.368 0.018 1.183-0.018 2.445s-0.263 2.751-0.68 4.467z"></path>
</symbol>
<symbol id="icon-star" viewBox="0 0 32 32">
<path d="M17.281 1.063c-0.313-0.649-0.974-1.063-1.7-1.063s-1.381 0.413-1.7 1.063l-3.795 7.809-8.476 1.251c-0.708 0.106-1.299 0.602-1.517 1.281s-0.041 1.428 0.466 1.93l6.151 6.086-1.452 8.6c-0.118 0.708 0.177 1.429 0.761 1.848s1.358 0.472 1.995 0.136l7.573-4.043 7.573 4.043c0.637 0.336 1.411 0.289 1.995-0.136s0.88-1.139 0.762-1.848l-1.458-8.6 6.151-6.086c0.508-0.502 0.691-1.251 0.466-1.93s-0.809-1.175-1.517-1.281l-8.482-1.251-3.795-7.809z"></path>
</symbol>
<symbol id="icon-play" viewBox="0 0 24 32">
<path d="M22.53 14.896l-21.381-14.758c-0.101-0.081-0.222-0.126-0.363-0.136s-0.272 0.025-0.393 0.106c-0.121 0.060-0.217 0.146-0.287 0.257s-0.106 0.237-0.106 0.378v29.486c0 0.141 0.035 0.272 0.106 0.393s0.166 0.212 0.287 0.272c0.060 0.020 0.121 0.040 0.181 0.061s0.111 0.030 0.151 0.030c0.081 0 0.156-0.010 0.227-0.030s0.136-0.061 0.197-0.121l21.381-14.728c0.101-0.081 0.181-0.171 0.242-0.272s0.091-0.212 0.091-0.333-0.030-0.237-0.091-0.348c-0.060-0.111-0.141-0.197-0.242-0.257z"></path>
</symbol>
<symbol id="icon-home" viewBox="0 0 32 32">
<path d="M31.656 13.406l-15.156-11.094c-0.146-0.125-0.313-0.188-0.5-0.188s-0.354 0.063-0.5 0.188l-15.156 11.094c-0.188 0.125-0.297 0.302-0.328 0.531s0.016 0.438 0.141 0.625c0.146 0.188 0.328 0.297 0.547 0.328s0.422-0.016 0.609-0.141l14.688-10.75 14.687 10.75c0.063 0.042 0.135 0.078 0.219 0.109s0.167 0.047 0.25 0.047c0.146 0 0.276-0.031 0.391-0.094s0.214-0.146 0.297-0.25c0.125-0.187 0.172-0.396 0.141-0.625s-0.141-0.406-0.328-0.531zM27.625 14.938c-0.229 0-0.422 0.078-0.578 0.234s-0.234 0.349-0.234 0.578v13.25h-6.656v-7.219c0-1.146-0.406-2.125-1.219-2.938s-1.792-1.219-2.938-1.219c-1.146 0-2.125 0.406-2.938 1.219s-1.219 1.792-1.219 2.938v7.219h-6.656v-13.25c0-0.229-0.078-0.422-0.234-0.578s-0.349-0.234-0.578-0.234c-0.25 0-0.453 0.078-0.609 0.234s-0.234 0.349-0.234 0.578v14.094c0 0.229 0.078 0.422 0.234 0.578s0.359 0.234 0.609 0.234h8.312c0.208 0 0.391-0.073 0.547-0.219s0.245-0.323 0.266-0.531c0-0.021 0-0.036 0-0.047s0-0.016 0-0.016v-8.063c0-0.687 0.245-1.276 0.734-1.766s1.078-0.734 1.766-0.734 1.276 0.245 1.766 0.734c0.49 0.49 0.734 1.078 0.734 1.766v8.063c0 0 0 0.005 0 0.016s0 0.026 0 0.047c0.021 0.208 0.109 0.385 0.266 0.531s0.339 0.219 0.547 0.219h8.312c0.25 0 0.453-0.078 0.609-0.234s0.234-0.349 0.234-0.578v-14.094c0-0.229-0.078-0.422-0.234-0.578s-0.359-0.234-0.609-0.234z"></path>
</symbol>
<symbol id="icon-office" viewBox="0 0 31 32">
<path d="M22.406 9.604h1.594v1.594h-1.594v-1.594zM22.406 12.823h1.594v1.594h-1.594v-1.594zM22.406 16.010h1.594v1.594h-1.594v-1.594zM22.406 19.198h1.594v1.625h-1.594v-1.625zM22.406 25.604h1.594v1.594h-1.594v-1.594zM22.406 22.417h1.594v1.594h-1.594v-1.594zM9.594 9.604h1.594v1.594h-1.594v-1.594zM9.594 12.823h1.594v1.594h-1.594v-1.594zM9.594 16.010h1.594v1.594h-1.594v-1.594zM9.594 19.198h1.594v1.625h-1.594v-1.625zM9.594 25.604h1.594v1.594h-1.594v-1.594zM9.594 22.417h1.594v1.594h-1.594v-1.594zM6.406 9.604h1.594v1.594h-1.594v-1.594zM6.406 12.823h1.594v1.594h-1.594v-1.594zM6.406 16.010h1.594v1.594h-1.594v-1.594zM6.406 19.198h1.594v1.625h-1.594v-1.625zM6.406 25.604h1.594v1.594h-1.594v-1.594zM6.406 22.417h1.594v1.594h-1.594v-1.594zM12.812 9.604h1.594v1.594h-1.594v-1.594zM12.812 12.823h1.594v1.594h-1.594v-1.594zM12.812 16.010h1.594v1.594h-1.594v-1.594zM12.812 19.198h1.594v1.625h-1.594v-1.625zM12.812 25.604h1.594v1.594h-1.594v-1.594zM12.812 22.417h1.594v1.594h-1.594v-1.594zM29.594 30.417h-0.781v-21.594c0-0.625-0.203-1.214-0.609-1.766s-0.891-0.922-1.453-1.109l-7.562-2.5v-2.625c0-0.125-0.026-0.245-0.078-0.359s-0.13-0.214-0.234-0.297c-0.104-0.083-0.219-0.135-0.344-0.156s-0.25-0.010-0.375 0.031l-14.469 4.344c-0.583 0.167-1.078 0.526-1.484 1.078s-0.609 1.13-0.609 1.734v23.219h-0.781c-0.229 0-0.422 0.078-0.578 0.234s-0.234 0.338-0.234 0.547c0 0.229 0.078 0.422 0.234 0.578s0.349 0.234 0.578 0.234h28.781c0.229 0 0.422-0.078 0.578-0.234s0.234-0.349 0.234-0.578c0-0.208-0.078-0.391-0.234-0.547s-0.349-0.234-0.578-0.234zM26.219 7.448c0.271 0.104 0.5 0.292 0.687 0.562s0.281 0.542 0.281 0.813v21.594h-8v-25.281l7.031 2.313zM3.188 7.198c0-0.25 0.099-0.505 0.297-0.766s0.422-0.432 0.672-0.516l13.437-4.031v28.531h-14.406v-23.219z"></path>
</symbol>
<symbol id="icon-furniture" viewBox="0 0 33 32">
<path d="M31.74 25.086h-1.656v-1.406c0-0.125-0.047-0.234-0.14-0.328s-0.203-0.141-0.328-0.141c-0.125 0-0.229 0.047-0.312 0.141s-0.125 0.203-0.125 0.328v7.341h-9.778c0.083-0.146 0.146-0.302 0.188-0.469s0.062-0.344 0.062-0.531c0-0.562-0.198-1.036-0.593-1.421s-0.864-0.578-1.406-0.578h-0.812v-0.781c0-0.5-0.161-0.942-0.484-1.328s-0.724-0.64-1.203-0.765v-6.092c0-0.25 0.016-0.505 0.047-0.765s0.089-0.515 0.172-0.765c0.5 0.666 1.135 1.208 1.906 1.624s1.604 0.625 2.499 0.625h1.531c0.646 0 1.203-0.224 1.671-0.672s0.724-0.994 0.765-1.64c0-0.312-0.052-0.62-0.156-0.922s-0.292-0.567-0.562-0.797c-0.208-0.229-0.469-0.406-0.781-0.531s-0.625-0.187-0.937-0.187h-1.218c-0.292 0-0.536-0.099-0.734-0.297s-0.297-0.432-0.297-0.703v-0.344c0.292-0.083 0.583-0.146 0.875-0.188s0.583-0.062 0.875-0.062h2.468c1.583 0 2.931 0.557 4.046 1.671s1.671 2.452 1.671 4.014v2.624c0 0.125 0.042 0.234 0.125 0.328s0.188 0.14 0.312 0.14c0.125 0 0.266-0.047 0.422-0.14s0.234-0.203 0.234-0.328v-2.687c0-0.895-0.177-1.749-0.531-2.562s-0.833-1.52-1.437-2.124c-0.604-0.604-1.312-1.083-2.124-1.437s-1.666-0.531-2.562-0.531h-2.499c-0.292 0-0.588 0.021-0.89 0.063s-0.588 0.114-0.859 0.219v-6.81c0-0.791-0.151-1.546-0.453-2.265s-0.724-1.349-1.265-1.89c-0.583-0.562-1.234-0.989-1.952-1.281s-1.473-0.437-2.265-0.437c-1.604 0-2.973 0.583-4.108 1.749s-1.703 2.562-1.703 4.186v4.936c0 0.125 0.042 0.229 0.125 0.312s0.187 0.125 0.312 0.125c0.125 0 0.229-0.042 0.312-0.125s0.125-0.187 0.125-0.312v-4.53h2.874v18.744h-2.874v-12.277c0-0.146-0.042-0.26-0.125-0.344s-0.187-0.125-0.312-0.125c-0.125 0-0.229 0.042-0.312 0.125s-0.125 0.198-0.125 0.344v12.277h-2.437c-0.604 0-1.13 0.219-1.578 0.656s-0.672 0.958-0.672 1.562v0.781h-0.781c-0.541 0-1.005 0.193-1.39 0.578s-0.578 0.859-0.578 1.421c0 0.542 0.193 0.994 0.578 1.359s0.849 0.547 1.39 0.547h29.771c0.125 0 0.229-0.042 0.312-0.125s0.125-0.187 0.125-0.312v-5.967c0-0.146-0.042-0.266-0.125-0.359s-0.187-0.141-0.312-0.141zM13.246 0.969c0.666 0 1.302 0.12 1.906 0.359s1.145 0.588 1.624 1.047c0.479 0.479 0.844 1.015 1.093 1.609s0.375 1.224 0.375 1.89v8.154c0 0.542 0.193 1.005 0.578 1.39s0.849 0.578 1.39 0.578h1.218c0.187 0 0.375 0.036 0.562 0.109s0.344 0.182 0.469 0.328c0.125 0.125 0.229 0.281 0.312 0.469s0.104 0.375 0.063 0.562c0 0.396-0.151 0.729-0.453 1s-0.64 0.406-1.015 0.406h-1.531c-1.25 0-2.307-0.443-3.171-1.328s-1.296-1.932-1.296-3.14v-8.528c0-0.271-0.063-0.531-0.187-0.781s-0.281-0.479-0.469-0.687c-0.188-0.187-0.406-0.328-0.656-0.422s-0.521-0.141-0.812-0.141c-0.479 0-0.896 0.151-1.25 0.453s-0.604 0.661-0.75 1.078h-2.874c0.167-1.208 0.708-2.244 1.624-3.108s1.999-1.296 3.249-1.296zM12.215 5.873c0-0.271 0.109-0.515 0.328-0.734s0.474-0.328 0.765-0.328c0.125 0 0.26 0.026 0.406 0.078s0.271 0.13 0.375 0.234c0.083 0.083 0.156 0.203 0.219 0.359s0.094 0.307 0.094 0.453v8.466c0 0.375 0.031 0.739 0.094 1.093s0.177 0.687 0.344 1c-0.187 0.417-0.328 0.849-0.422 1.296s-0.141 0.89-0.141 1.328v5.967h-2.062v-19.212zM3.717 27.241c0-0.333 0.125-0.63 0.375-0.89s0.552-0.39 0.906-0.39h9.653c0.354 0 0.656 0.13 0.906 0.39s0.375 0.557 0.375 0.89v0.781h-12.152v-0.781h-0.063zM0.968 30.021c0-0.292 0.099-0.536 0.297-0.734s0.432-0.297 0.703-0.297h15.682c0.292 0 0.536 0.099 0.734 0.297s0.297 0.443 0.297 0.734c0 0.271-0.099 0.505-0.297 0.703s-0.443 0.297-0.734 0.297h-15.745c-0.25 0-0.469-0.099-0.656-0.297s-0.281-0.432-0.281-0.703zM31.208 31.021h-1.125v-4.967h1.125v4.967zM25.96 20.868h-7.654c-0.521 0-0.974 0.182-1.359 0.547s-0.578 0.817-0.578 1.359c0 0.521 0.187 0.974 0.562 1.359s0.833 0.578 1.375 0.578h7.654c0.521 0 0.974-0.187 1.359-0.562s0.578-0.833 0.578-1.375c0-0.541-0.182-0.994-0.547-1.359s-0.828-0.547-1.39-0.547zM17.401 22.774c0-0.25 0.094-0.474 0.281-0.672s0.417-0.297 0.687-0.297h3.311v1.937h-3.311c-0.271 0-0.5-0.099-0.687-0.297s-0.281-0.422-0.281-0.672zM25.96 23.742h-3.311v-1.937h3.311c0.271 0 0.5 0.099 0.687 0.297s0.281 0.422 0.281 0.672-0.088 0.474-0.265 0.672c-0.177 0.198-0.411 0.297-0.703 0.297z"></path>
</symbol>
<symbol id="icon-window" viewBox="0 0 32 32">
<path d="M10.031 29.156h11.938c0.146 0 0.25-0.036 0.313-0.109s0.094-0.161 0.094-0.266v-25.562c0-0.125-0.042-0.219-0.125-0.281s-0.177-0.094-0.281-0.094h-11.938c-0.146 0-0.25 0.036-0.313 0.109s-0.094 0.161-0.094 0.266v25.562c0 0.104 0.042 0.193 0.125 0.266s0.177 0.109 0.281 0.109zM10.406 16.438h5.156v5.812h-5.156v-5.812zM16.375 16.438h5.156v5.812h-5.156v-5.812zM21.594 15.625h-5.219v-5.812h5.156v5.812h0.063zM15.625 15.625h-5.156v-5.812h5.156v5.812zM10.406 23h5.156v5.344h-5.156v-5.344zM16.375 28.344v-5.344h5.156v5.344h-5.156zM21.594 9h-5.219v-5.406h5.156v5.406h0.063zM15.625 3.594v5.406h-5.156v-5.406h5.156zM2.344 6.313h2.75c0.125 0 0.219-0.042 0.281-0.125s0.094-0.177 0.094-0.281c0-0.083-0.031-0.167-0.094-0.25s-0.156-0.125-0.281-0.125h-2.75c-0.104 0-0.198 0.031-0.281 0.094s-0.125 0.156-0.125 0.281c0 0.146 0.042 0.25 0.125 0.313s0.177 0.094 0.281 0.094zM5.094 8.375h-2.75c-0.125 0-0.224 0.042-0.297 0.125s-0.109 0.167-0.109 0.25c0 0.104 0.042 0.193 0.125 0.266s0.177 0.109 0.281 0.109h2.75c0.125 0 0.219-0.036 0.281-0.109s0.094-0.161 0.094-0.266c0-0.083-0.031-0.167-0.094-0.25s-0.156-0.125-0.281-0.125zM5.094 11.281h-2.75c-0.125 0-0.224 0.036-0.297 0.109s-0.109 0.162-0.109 0.266c0 0.083 0.042 0.167 0.125 0.25s0.177 0.125 0.281 0.125h2.75c0.125 0 0.219-0.042 0.281-0.125s0.094-0.167 0.094-0.25c0-0.104-0.031-0.193-0.094-0.266s-0.156-0.109-0.281-0.109zM5.094 14.188h-2.75c-0.125 0-0.224 0.036-0.297 0.109s-0.109 0.162-0.109 0.266c0 0.083 0.042 0.167 0.125 0.25s0.177 0.125 0.281 0.125h2.75c0.125 0 0.219-0.042 0.281-0.125s0.094-0.167 0.094-0.25c0-0.104-0.031-0.193-0.094-0.266s-0.156-0.109-0.281-0.109zM5.094 17.063h-2.75c-0.125 0-0.224 0.042-0.297 0.125s-0.109 0.167-0.109 0.25c0 0.104 0.042 0.193 0.125 0.266s0.177 0.109 0.281 0.109h2.75c0.125 0 0.219-0.036 0.281-0.109s0.094-0.162 0.094-0.266c0-0.083-0.031-0.167-0.094-0.25s-0.156-0.125-0.281-0.125zM5.094 19.969h-2.75c-0.125 0-0.224 0.042-0.297 0.125s-0.109 0.167-0.109 0.25c0 0.125 0.042 0.219 0.125 0.281s0.177 0.094 0.281 0.094h2.75c0.125 0 0.219-0.036 0.281-0.109s0.094-0.162 0.094-0.266c0.042-0.125 0.021-0.219-0.063-0.281s-0.188-0.094-0.313-0.094zM5.094 22.812h-2.75c-0.125 0-0.224 0.036-0.297 0.109s-0.109 0.161-0.109 0.266c0 0.083 0.042 0.167 0.125 0.25s0.177 0.125 0.281 0.125h2.75c0.125 0 0.219-0.042 0.281-0.125s0.094-0.167 0.094-0.25c0-0.104-0.031-0.193-0.094-0.266s-0.156-0.109-0.281-0.109zM5.094 25.687h-2.75c-0.125 0-0.224 0.042-0.297 0.125s-0.109 0.177-0.109 0.281c0 0.083 0.042 0.167 0.125 0.25s0.177 0.125 0.281 0.125h2.75c0.125 0 0.219-0.042 0.281-0.125s0.094-0.167 0.094-0.25c0-0.104-0.031-0.198-0.094-0.281s-0.156-0.125-0.281-0.125zM26.906 6.313h2.75c0.125 0 0.224-0.042 0.297-0.125s0.109-0.177 0.109-0.281c0-0.083-0.042-0.167-0.125-0.25s-0.177-0.125-0.281-0.125h-2.75c-0.125 0-0.229 0.031-0.313 0.094s-0.125 0.156-0.125 0.281c0 0.146 0.042 0.25 0.125 0.313s0.188 0.094 0.313 0.094zM26.906 9.188h2.75c0.125 0 0.224-0.036 0.297-0.109s0.109-0.161 0.109-0.266c0-0.083-0.042-0.167-0.125-0.25s-0.177-0.125-0.281-0.125h-2.75c-0.125 0-0.219 0.042-0.281 0.125s-0.094 0.167-0.094 0.25c0 0.104 0.031 0.193 0.094 0.266s0.156 0.109 0.281 0.109zM26.906 12.094h2.75c0.125 0 0.224-0.042 0.297-0.125s0.109-0.167 0.109-0.25c0-0.104-0.042-0.193-0.125-0.266s-0.177-0.109-0.281-0.109h-2.75c-0.125 0-0.219 0.036-0.281 0.109s-0.094 0.162-0.094 0.266c0 0.083 0.031 0.167 0.094 0.25s0.156 0.125 0.281 0.125zM26.906 15h2.75c0.125 0 0.224-0.042 0.297-0.125s0.109-0.167 0.109-0.25c0-0.104-0.042-0.193-0.125-0.266s-0.177-0.109-0.281-0.109h-2.75c-0.125 0-0.219 0.036-0.281 0.109s-0.094 0.162-0.094 0.266c0 0.083 0.031 0.167 0.094 0.25s0.156 0.125 0.281 0.125zM26.906 17.812h2.75c0.125 0 0.224-0.036 0.297-0.109s0.109-0.162 0.109-0.266c0-0.083-0.042-0.167-0.125-0.25s-0.177-0.125-0.281-0.125h-2.75c-0.125 0-0.219 0.042-0.281 0.125s-0.094 0.167-0.094 0.25c0 0.104 0.031 0.193 0.094 0.266s0.156 0.109 0.281 0.109zM26.906 20.719h2.75c0.125 0 0.224-0.036 0.297-0.109s0.109-0.162 0.109-0.266c0-0.125-0.042-0.219-0.125-0.281s-0.177-0.094-0.281-0.094h-2.75c-0.125 0-0.219 0.042-0.281 0.125s-0.094 0.167-0.094 0.25c-0.042 0.104-0.021 0.193 0.063 0.266s0.188 0.109 0.313 0.109zM26.906 23.625h2.75c0.125 0 0.224-0.042 0.297-0.125s0.109-0.167 0.109-0.25c0-0.104-0.042-0.193-0.125-0.266s-0.177-0.109-0.281-0.109h-2.75c-0.125 0-0.219 0.036-0.281 0.109s-0.094 0.161-0.094 0.266c0 0.083 0.031 0.167 0.094 0.25s0.156 0.125 0.281 0.125zM29.656 25.687h-2.75c-0.125 0-0.219 0.042-0.281 0.125s-0.094 0.177-0.094 0.281c0 0.083 0.036 0.167 0.109 0.25s0.162 0.125 0.266 0.125h2.75c0.125 0 0.224-0.042 0.297-0.125s0.109-0.167 0.109-0.25c0-0.104-0.042-0.198-0.125-0.281s-0.177-0.125-0.281-0.125zM31.625 1.938h-6.437v-1.563c0-0.083-0.036-0.167-0.109-0.25s-0.161-0.125-0.266-0.125h-17.625c-0.125 0-0.219 0.042-0.281 0.125s-0.094 0.167-0.094 0.25v1.563h-6.438c-0.083 0-0.167 0.042-0.25 0.125s-0.125 0.177-0.125 0.281v27.312c0 0.125 0.042 0.224 0.125 0.297s0.167 0.109 0.25 0.109h6.438v1.562c0 0.125 0.036 0.219 0.109 0.281s0.161 0.094 0.266 0.094h17.562c0.125 0 0.219-0.042 0.281-0.125s0.094-0.167 0.094-0.25v-1.562h6.437c0.125 0 0.219-0.042 0.281-0.125s0.094-0.177 0.094-0.281v-27.312c0.021-0.104-0.005-0.198-0.078-0.281s-0.151-0.125-0.234-0.125zM0.813 29.281v-26.5h6v26.5h-6zM24.375 31.25h-16.75v-30.438h16.813v30.438h-0.063zM31.188 29.281h-6v-26.5h6v26.5z"></path>
</symbol>
<symbol id="icon-laundry" viewBox="0 0 36 32">
<path d="M24.926 31.391h-14.748c-0.769 0-1.424-0.27-1.965-0.811s-0.811-1.196-0.811-1.965v-17.163l-4.327 1.406c-0.24 0.096-0.475 0.084-0.703-0.036s-0.379-0.3-0.451-0.541l-1.875-5.517c-0.072-0.216-0.060-0.433 0.036-0.649s0.24-0.373 0.433-0.469l11.070-5.553c0.144-0.072 0.3-0.102 0.469-0.090s0.312 0.054 0.433 0.126c0.144 0.096 0.252 0.21 0.325 0.343s0.108 0.282 0.108 0.451c0 1.274 0.451 2.362 1.352 3.263s1.989 1.352 3.263 1.352c1.274 0 2.362-0.451 3.263-1.352s1.352-1.989 1.352-3.263c0-0.168 0.042-0.319 0.126-0.451s0.198-0.246 0.343-0.343c0.12-0.072 0.258-0.114 0.415-0.126s0.306 0.018 0.451 0.090l11.106 5.553c0.192 0.096 0.337 0.252 0.433 0.469s0.096 0.433 0 0.649l-1.839 5.517c-0.072 0.24-0.222 0.421-0.451 0.541s-0.463 0.132-0.703 0.036l-4.327-1.406v17.163c0 0.769-0.271 1.424-0.811 1.965s-1.196 0.811-1.965 0.811zM8.304 9.215c0.096 0 0.192 0.018 0.288 0.054s0.18 0.078 0.252 0.126c0.12 0.096 0.216 0.21 0.288 0.343s0.108 0.27 0.108 0.415v18.462c0 0.265 0.090 0.487 0.27 0.667s0.403 0.27 0.667 0.27h14.748c0.265 0 0.487-0.090 0.667-0.27s0.27-0.403 0.27-0.667v-18.462c0-0.144 0.030-0.282 0.090-0.415s0.15-0.246 0.27-0.343c0.12-0.072 0.258-0.12 0.415-0.144s0.295-0.012 0.415 0.036l4.688 1.55 1.298-3.894-9.195-4.615c-0.313 1.442-1.058 2.644-2.236 3.606s-2.536 1.442-4.074 1.442c-1.538 0-2.891-0.481-4.056-1.442s-1.905-2.163-2.218-3.606l-9.195 4.615 1.298 3.894 4.651-1.55c0.048-0.024 0.096-0.042 0.144-0.054s0.096-0.018 0.144-0.018z"></path>
</symbol>
<symbol id="icon-carpet" viewBox="0 0 32 32">
<path d="M26.764 14.637c0 0.141-0.055 0.277-0.166 0.408s-0.257 0.197-0.439 0.197c-0.161 0-0.302-0.055-0.423-0.166s-0.181-0.257-0.181-0.438c0-0.161 0.055-0.302 0.166-0.423s0.257-0.181 0.439-0.181c0.141 0 0.277 0.060 0.408 0.181s0.197 0.262 0.197 0.423zM5.776 14.637c0 0.141-0.055 0.277-0.166 0.408s-0.257 0.197-0.439 0.197c-0.141 0-0.277-0.055-0.408-0.166s-0.197-0.257-0.197-0.438c0-0.161 0.055-0.302 0.166-0.423s0.257-0.181 0.439-0.181c0.181 0 0.328 0.055 0.439 0.166s0.166 0.257 0.166 0.438zM7.561 16.331c0 0.161-0.055 0.302-0.166 0.423s-0.257 0.181-0.439 0.181c-0.161 0-0.302-0.055-0.423-0.166s-0.181-0.257-0.181-0.439c0-0.141 0.055-0.277 0.166-0.408s0.257-0.197 0.439-0.197c0.181 0.040 0.328 0.116 0.439 0.227s0.166 0.237 0.166 0.378zM11.038 16.331c0 0.161-0.056 0.302-0.166 0.423s-0.257 0.181-0.438 0.181c-0.161 0-0.302-0.055-0.423-0.166s-0.181-0.257-0.181-0.439c0-0.141 0.055-0.277 0.166-0.408s0.257-0.197 0.438-0.197c0.181 0.040 0.328 0.116 0.438 0.227s0.166 0.237 0.166 0.378zM9.315 18.115c0 0.141-0.055 0.277-0.166 0.408s-0.257 0.197-0.438 0.197c-0.141 0-0.277-0.055-0.408-0.166s-0.197-0.257-0.197-0.439c0-0.161 0.055-0.302 0.166-0.423s0.257-0.181 0.438-0.181c0.161 0 0.302 0.061 0.423 0.181s0.181 0.262 0.181 0.423zM12.792 18.115c0 0.141-0.055 0.277-0.166 0.408s-0.257 0.197-0.438 0.197c-0.141 0-0.277-0.055-0.408-0.166s-0.197-0.257-0.197-0.439c0-0.161 0.055-0.302 0.166-0.423s0.257-0.181 0.438-0.181c0.181 0 0.328 0.061 0.438 0.181s0.166 0.262 0.166 0.423zM14.516 19.869c0 0.161-0.055 0.302-0.166 0.423s-0.257 0.181-0.438 0.181c-0.161 0-0.307-0.055-0.438-0.166s-0.197-0.257-0.197-0.439c0-0.141 0.060-0.277 0.181-0.408s0.272-0.197 0.454-0.197c0.181 0 0.328 0.055 0.438 0.166s0.166 0.257 0.166 0.439zM18.054 19.869c0 0.161-0.055 0.302-0.166 0.423s-0.257 0.181-0.439 0.181c-0.161 0-0.308-0.055-0.439-0.166s-0.197-0.257-0.197-0.439c0-0.141 0.055-0.277 0.166-0.408s0.267-0.197 0.469-0.197c0.141 0 0.277 0.055 0.408 0.166s0.197 0.257 0.197 0.439zM19.748 18.115c0 0.141-0.056 0.277-0.166 0.408s-0.257 0.197-0.439 0.197-0.328-0.055-0.439-0.166c-0.111-0.111-0.166-0.257-0.166-0.439 0-0.161 0.055-0.302 0.166-0.423s0.257-0.181 0.439-0.181c0.181 0 0.328 0.061 0.439 0.181s0.166 0.262 0.166 0.423zM16.27 21.593c0 0.141-0.055 0.277-0.166 0.408s-0.257 0.197-0.438 0.197c-0.161 0-0.302-0.055-0.423-0.166s-0.181-0.257-0.181-0.439c0-0.161 0.056-0.308 0.166-0.439s0.257-0.197 0.438-0.197c0.181 0.040 0.328 0.116 0.439 0.227s0.166 0.247 0.166 0.408zM21.532 16.331c0 0.161-0.061 0.302-0.181 0.423s-0.272 0.181-0.454 0.181c-0.141 0-0.277-0.055-0.408-0.166s-0.197-0.257-0.197-0.439c0-0.141 0.055-0.277 0.166-0.408s0.257-0.197 0.439-0.197c0.181 0.040 0.333 0.116 0.454 0.227s0.181 0.237 0.181 0.378zM24.98 16.331c0 0.161-0.055 0.302-0.166 0.423s-0.257 0.181-0.439 0.181c-0.141 0-0.277-0.055-0.408-0.166s-0.197-0.257-0.197-0.439c0-0.141 0.056-0.277 0.166-0.408s0.257-0.197 0.439-0.197c0.181 0.040 0.328 0.116 0.439 0.227s0.166 0.237 0.166 0.378zM23.286 18.115c0 0.141-0.055 0.277-0.166 0.408s-0.257 0.197-0.439 0.197c-0.161 0-0.302-0.055-0.423-0.166s-0.181-0.257-0.181-0.439c0-0.161 0.055-0.302 0.166-0.423s0.257-0.181 0.439-0.181c0.141 0 0.277 0.061 0.408 0.181s0.197 0.262 0.197 0.423zM26.522 18.599l5.474-3.115-5.595-3.175 5.595-3.236-16.028-9.073-15.968 9.073 5.595 3.236-5.595 3.175 5.595 3.236-5.595 3.175 15.968 9.133 15.968-9.133-5.595-3.175h0.061c0.020-0.040 0.035-0.066 0.045-0.076s0.035-0.025 0.076-0.045zM15.968 1.331l13.609 7.742-13.609 7.742-13.639-7.742 13.639-7.742zM6.472 13.095c0.060 0.161 0.166 0.267 0.318 0.318s0.307 0.025 0.469-0.076c0.020 0 0.045-0.010 0.076-0.030s0.066-0.050 0.106-0.091l1.331 0.756c-0.141 0-0.267 0.050-0.378 0.151s-0.166 0.232-0.166 0.393c0 0.141 0.055 0.267 0.166 0.378s0.237 0.187 0.378 0.227c0.161 0 0.302-0.055 0.423-0.166s0.181-0.257 0.181-0.438c0-0.060 0-0.111 0-0.151s-0.020-0.070-0.060-0.091l5.988 3.417c-0.040 0.061-0.070 0.116-0.091 0.166s-0.030 0.096-0.030 0.136c0.020 0.141 0.091 0.267 0.212 0.378s0.272 0.166 0.454 0.166c0.121-0.040 0.237-0.106 0.348-0.197s0.176-0.207 0.197-0.348c0 0 0-0.010 0-0.030s0-0.030 0-0.030l5.806-3.357c0.020 0.141 0.086 0.262 0.197 0.363s0.247 0.141 0.408 0.121c0.141-0.040 0.267-0.116 0.378-0.227s0.146-0.237 0.106-0.378c0-0.101-0.025-0.181-0.076-0.242s-0.106-0.101-0.166-0.121l1.27-0.756h0.061c0.121 0 0.237-0.040 0.348-0.121s0.176-0.181 0.197-0.302l0.181-0.121 4.476 2.51-1.179 0.665c-0.020-0.081-0.086-0.161-0.197-0.242s-0.227-0.121-0.348-0.121c-0.141 0-0.277 0.055-0.408 0.166s-0.197 0.237-0.197 0.378c0 0.061 0.015 0.121 0.045 0.181s0.055 0.101 0.076 0.121l-2.268 1.421-3.689 2.238c0.020-0.020 0.035-0.061 0.045-0.121s0.015-0.121 0.015-0.181c0-0.141-0.055-0.277-0.166-0.408s-0.247-0.197-0.408-0.197c-0.141 0-0.277 0.055-0.408 0.166s-0.197 0.237-0.197 0.378c0 0.161 0.055 0.297 0.166 0.408s0.237 0.176 0.378 0.197l-1.331 0.726c-0.061-0.061-0.126-0.106-0.197-0.136s-0.146-0.045-0.227-0.045c-0.161 0-0.302 0.056-0.423 0.166s-0.181 0.247-0.181 0.408c0 0.020 0 0.035 0 0.045s0 0.035 0 0.076l-2.691 1.512-3.236-1.814c-0.020-0.141-0.086-0.252-0.197-0.333s-0.227-0.121-0.348-0.121h-0.121l-1.27-0.726c0.121-0.081 0.192-0.202 0.212-0.363s-0.010-0.302-0.091-0.423c-0.060-0.061-0.136-0.116-0.227-0.166s-0.176-0.076-0.257-0.076c-0.161 0-0.292 0.050-0.393 0.151s-0.151 0.212-0.151 0.333l-5.806-3.357c0 0 0-0.010 0-0.030s0-0.030 0-0.030c0-0.141-0.055-0.277-0.166-0.408s-0.257-0.197-0.438-0.197c-0.060 0-0.121 0.015-0.181 0.045s-0.121 0.055-0.181 0.076l-0.786-0.423 4.325-2.147zM29.577 21.835l-13.609 7.863-13.639-7.802 4.446-2.51 9.194 5.232 9.224-5.232 4.385 2.45z"></path>
</symbol>
<symbol id="icon-ecoSolution" viewBox="0 0 33 32">
<path d="M31.813 0.281c-0.083-0.083-0.177-0.151-0.281-0.203s-0.219-0.078-0.344-0.078h-0.813c-2 0-3.906 0-5.719 0-1.813 0.021-3.516 0.068-5.109 0.141s-3.078 0.182-4.453 0.328c-1.375 0.146-2.656 0.365-3.844 0.656-1.25 0.292-2.37 0.667-3.359 1.125s-1.849 1.010-2.578 1.656c-0.813 0.688-1.495 1.484-2.047 2.391s-0.984 1.932-1.297 3.078c-0.229 0.771-0.359 1.802-0.391 3.094s0.161 2.625 0.578 4c0.167 0.521 0.37 1.021 0.609 1.5s0.526 0.948 0.859 1.406c-0.479 0.75-0.938 1.562-1.375 2.437-0.438 0.896-0.823 1.839-1.156 2.828s-0.604 2.026-0.813 3.109c-0.188 1.104-0.281 2.25-0.281 3.438 0 0.229 0.078 0.422 0.234 0.578s0.349 0.234 0.578 0.234c0.208 0 0.391-0.078 0.547-0.234s0.234-0.349 0.234-0.578c0-1.833 0.24-3.552 0.719-5.156 0.479-1.583 1.073-3.026 1.781-4.328s1.469-2.453 2.281-3.453c0.813-1 1.542-1.823 2.188-2.469 0.938-0.937 1.922-1.797 2.953-2.578s2.078-1.443 3.141-1.984c1-0.521 1.958-0.922 2.875-1.203s1.74-0.422 2.469-0.422c0.229 0 0.422-0.078 0.578-0.234s0.234-0.339 0.234-0.547c0-0.229-0.078-0.422-0.234-0.578s-0.349-0.234-0.578-0.234c-0.875 0-1.828 0.151-2.859 0.453s-2.099 0.745-3.203 1.328c-1.146 0.604-2.271 1.318-3.375 2.141s-2.146 1.724-3.125 2.703c-0.417 0.417-0.87 0.906-1.359 1.469s-0.984 1.177-1.484 1.844c-0.188-0.292-0.359-0.599-0.516-0.922s-0.286-0.651-0.391-0.984c-0.396-1.313-0.563-2.542-0.5-3.688s0.167-1.99 0.313-2.531c0.563-2.042 1.542-3.625 2.938-4.75 1.375-1.104 3.167-1.917 5.375-2.438s4.844-0.823 7.906-0.906c3.083-0.083 6.594-0.125 10.531-0.125-0.479 2.521-1.052 4.813-1.719 6.875-0.667 2.083-1.437 3.932-2.312 5.547s-1.844 3.005-2.906 4.172c-1.063 1.146-2.229 2.073-3.5 2.781-1.167 0.646-2.313 1.063-3.438 1.25-1.146 0.208-2.208 0.281-3.187 0.219s-1.854-0.208-2.625-0.437c-0.771-0.208-1.385-0.406-1.844-0.594-0.188-0.083-0.375-0.172-0.563-0.266s-0.375-0.193-0.563-0.297c-0.188-0.104-0.385-0.13-0.594-0.078s-0.375 0.172-0.5 0.359c-0.104 0.188-0.13 0.391-0.078 0.609s0.172 0.38 0.359 0.484c0.229 0.125 0.453 0.245 0.672 0.359s0.443 0.214 0.672 0.297c0.5 0.208 1.141 0.427 1.922 0.656s1.672 0.385 2.672 0.469c0.208 0.021 0.422 0.031 0.641 0.031s0.432 0 0.641 0c1.188 0 2.328-0.141 3.422-0.422s2.151-0.693 3.172-1.234c1.292-0.729 2.49-1.667 3.594-2.812s2.115-2.51 3.031-4.094c0.542-0.917 1.042-1.906 1.5-2.969 0.458-1.083 0.891-2.229 1.297-3.438s0.766-2.49 1.078-3.844c0.333-1.375 0.635-2.802 0.906-4.281 0.021-0.125 0.016-0.245-0.016-0.359s-0.089-0.214-0.172-0.297z"></path>
</symbol>
<symbol id="icon-staff" viewBox="0 0 32 32">
<path d="M32 18.469c0-0.917-0.234-1.745-0.703-2.484s-1.099-1.297-1.891-1.672v-8.125c0-0.854-0.156-1.656-0.469-2.406-0.333-0.75-0.781-1.406-1.344-1.969s-1.219-1.010-1.969-1.344c-0.75-0.313-1.552-0.469-2.406-0.469s-1.656 0.156-2.406 0.469c-0.75 0.333-1.406 0.781-1.969 1.344s-1 1.219-1.312 1.969c-0.333 0.75-0.5 1.552-0.5 2.406v0.625c-0.333-0.063-0.667-0.099-1-0.109s-0.667 0.016-1 0.078c-0.021 0-0.042 0-0.062 0s-0.042 0.010-0.063 0.031c0.021-0.104 0.037-0.208 0.047-0.313s0.016-0.208 0.016-0.313v-2.063c0-0.417-0.141-0.771-0.422-1.063s-0.62-0.448-1.016-0.469c-0.521-0.813-1.203-1.448-2.047-1.906s-1.745-0.688-2.703-0.688c-1.563 0-2.901 0.552-4.016 1.656s-1.672 2.438-1.672 4v0.531c0 0.583 0.141 1.135 0.422 1.656s0.661 0.948 1.141 1.281v0.031c0 0.667 0.141 1.276 0.422 1.828s0.651 1.016 1.109 1.391v1.125l-2.313 0.375c-1.125 0.188-2.052 0.714-2.781 1.578s-1.094 1.87-1.094 3.016v4.25h9.125c-0.875 0.333-1.583 0.891-2.125 1.672s-0.813 1.661-0.813 2.641v4.969h19.625v-4.969c0-0.979-0.271-1.859-0.812-2.641s-1.25-1.339-2.125-1.672h9.125v-4.25zM18.062 6.188c0-1.417 0.505-2.63 1.516-3.641s2.224-1.516 3.641-1.516c1.438 0 2.656 0.505 3.656 1.516s1.5 2.224 1.5 3.641v7.75c-0.042-0.021-0.083-0.037-0.125-0.047s-0.083-0.016-0.125-0.016l-2.313-0.375v-1.125c0.458-0.375 0.828-0.839 1.109-1.391s0.422-1.161 0.422-1.828v-3.25l-0.719 0.344c0 0-0.271 0.078-0.812 0.234s-1.406 0.234-2.594 0.234c-1.167 0-2.021-0.078-2.563-0.234s-0.812-0.234-0.812-0.234l-0.75-0.375v1.656c-0.167-0.083-0.333-0.167-0.5-0.25s-0.344-0.156-0.531-0.219v-0.875zM21.375 9.844c-0.167-0.313-0.354-0.594-0.563-0.844s-0.437-0.49-0.687-0.719v-0.875c0.312 0.083 0.724 0.161 1.234 0.234s1.13 0.109 1.859 0.109c0.75 0 1.38-0.036 1.891-0.109s0.912-0.151 1.203-0.234v1.75c0 0.854-0.302 1.589-0.906 2.203s-1.333 0.922-2.188 0.922c-0.083 0-0.167-0.005-0.25-0.016s-0.167-0.026-0.25-0.047v-0.75c0-0.417-0.13-0.776-0.391-1.078s-0.578-0.484-0.953-0.547zM22.25 15.594c0.146-0.333 0.261-0.688 0.344-1.063s0.125-0.75 0.125-1.125v-0.156c0.083 0.021 0.167 0.036 0.25 0.047s0.167 0.016 0.25 0.016c0.271 0 0.537-0.031 0.797-0.094s0.516-0.135 0.766-0.219v0.844l-1.563 4.656-0.969-2.906zM22.313 19l-1.438-1.437c0.146-0.104 0.271-0.224 0.375-0.359s0.208-0.266 0.313-0.391l0.75 2.188zM25.656 14.5l0.812 0.156 0.313 1.687-2.625 2.656 1.5-4.5zM15.188 7.813c1.104-0.188 2.156-0.026 3.156 0.484s1.75 1.266 2.25 2.266l0.156 0.281h0.313c0.167 0 0.313 0.057 0.437 0.172s0.188 0.266 0.188 0.453v1.937c0 0.542-0.094 1.063-0.281 1.563s-0.437 0.948-0.75 1.344v-3.156l-0.719 0.313c-0.021 0-0.339 0.078-0.953 0.234s-1.609 0.234-2.984 0.234-2.37-0.078-2.984-0.234c-0.615-0.156-0.932-0.234-0.953-0.234l-0.719-0.313v1.969c-0.208-0.437-0.354-0.896-0.438-1.375s-0.094-0.958-0.031-1.438c0.125-1.146 0.594-2.141 1.406-2.984s1.781-1.349 2.906-1.516zM10.219 15.125c0.063 0.146 0.13 0.292 0.203 0.438s0.151 0.292 0.234 0.437l-0.906-0.531 0.469-0.344zM8.781 14.844l-1.563-1.187v-0.656c0.25 0.083 0.505 0.156 0.766 0.219s0.526 0.094 0.797 0.094c0.167 0 0.339-0.016 0.516-0.047s0.349-0.068 0.516-0.109c0.021 0.167 0.036 0.323 0.047 0.469s0.036 0.302 0.078 0.469l-1.156 0.75zM10.906 17.344l0.5 0.313c0.083 0.563 0.255 1.083 0.516 1.562s0.589 0.896 0.984 1.25v1.188h-2.125l-0.438-3.469 0.563-0.844zM13.281 22.75l1.813 1.438-1.531 0.906-1.375-2.094 1.094-0.25zM13.938 21.938v-0.75c0.312 0.146 0.641 0.26 0.984 0.344s0.703 0.125 1.078 0.125 0.734-0.042 1.078-0.125c0.344-0.083 0.672-0.198 0.984-0.344v0.75l-2.062 1.656-2.062-1.656zM18.719 22.75l1.094 0.25-1.375 2.094-1.531-0.906 1.813-1.438zM16 20.625c-1 0-1.854-0.349-2.563-1.047s-1.063-1.547-1.063-2.547v-2.406c0.354 0.083 0.828 0.162 1.422 0.234s1.328 0.109 2.203 0.109c0.875 0 1.609-0.037 2.203-0.109s1.068-0.151 1.422-0.234v2.406c0 1-0.354 1.849-1.063 2.547s-1.562 1.047-2.563 1.047zM4.656 5.875v1.844c-0.167-0.208-0.297-0.448-0.391-0.719s-0.141-0.542-0.141-0.813v-0.531c0-1.271 0.453-2.359 1.359-3.266s2.005-1.359 3.297-1.359c0.813 0 1.578 0.208 2.297 0.625s1.286 0.979 1.703 1.688l0.156 0.25h0.469c0.146 0 0.271 0.052 0.375 0.156s0.156 0.229 0.156 0.375v2.063c0 0.167-0.016 0.328-0.047 0.484s-0.078 0.307-0.141 0.453c-0.146 0.063-0.292 0.13-0.438 0.203s-0.281 0.141-0.406 0.203v-1.625l-0.75 0.344c0 0-0.271 0.078-0.812 0.234s-1.396 0.234-2.563 0.234c-1.188 0-2.052-0.078-2.594-0.234s-0.813-0.234-0.813-0.234l-0.719-0.375zM5.688 9.156v-1.75c0.292 0.083 0.693 0.161 1.203 0.234s1.141 0.109 1.891 0.109c0.729 0 1.349-0.036 1.859-0.109s0.922-0.151 1.234-0.234v0.875c-0.542 0.5-0.99 1.073-1.344 1.719s-0.573 1.333-0.656 2.062c-0.188 0.063-0.37 0.115-0.547 0.156s-0.359 0.062-0.547 0.062c-0.854 0-1.583-0.307-2.188-0.922s-0.906-1.349-0.906-2.203zM6.563 14.469l1.281 0.969-1.469 0.875-1-1.625 1.188-0.219zM6.781 21.656h-2.656v-1.531h-1.031v1.531h-2.063v-3.188c0-0.896 0.286-1.677 0.859-2.344s1.297-1.073 2.172-1.219l0.219-0.062 1.75 2.875 0.625-0.375 0.563 0.844-0.438 3.469zM7.813 21.656l0.469-3.719-0.75-1.125 1.25-0.719 1.219 0.719-0.719 1.125 0.469 3.719h-1.938zM14 30.969h-3.688v-2.594h-1.031v2.594h-2.063v-3.938c0-0.854 0.26-1.609 0.781-2.266s1.198-1.078 2.031-1.266l1.063-0.25 2.156 3.25 0.625-0.375 0.563 0.844-0.437 4zM16.969 30.969h-1.938l0.469-4.281-0.75-1.094 1.25-0.75 1.25 0.75-0.75 1.094 0.469 4.281zM24.781 27.031v3.938h-2.063v-2.594h-1.031v2.594h-3.687l-0.437-4 0.563-0.844 0.625 0.375 2.156-3.25 1.063 0.25c0.833 0.188 1.51 0.609 2.031 1.266s0.781 1.411 0.781 2.266zM30.969 21.656h-2.063v-1.531h-1.031v1.531h-8.781v-1.188c0.292-0.25 0.547-0.542 0.765-0.875s0.391-0.688 0.516-1.063l2.844 2.844 4.688-4.688-0.375-1.875 0.406 0.094c0.875 0.146 1.599 0.552 2.172 1.219s0.859 1.448 0.859 2.344v3.188z"></path>
</symbol>
<symbol id="icon-medal" viewBox="0 0 32 32">
<path fill="#4caf50" style="fill: var(--color1, #4caf50)" d="M31.906 26.375l-3.906-5.844 0.688-0.219c0.146-0.042 0.255-0.13 0.328-0.266s0.078-0.266 0.016-0.391c0-0.021 0-0.031 0-0.031s0-0.010 0-0.031l-1.188-3.062 2.438-2.281c0.104-0.104 0.161-0.229 0.172-0.375s-0.036-0.271-0.141-0.375c-0.021 0-0.031-0.005-0.031-0.016s0-0.016 0-0.016l-2.438-2.25 1.188-3.094c0.062-0.146 0.062-0.286 0-0.422s-0.167-0.224-0.313-0.266c0 0-0.010 0-0.031 0l-3.188-1-0.281-3.313c-0.021-0.063-0.047-0.13-0.078-0.203s-0.078-0.13-0.141-0.172c-0.042-0.042-0.099-0.073-0.172-0.094s-0.151-0.021-0.234 0l-3.344 0.469-1.688-2.875c-0.083-0.125-0.198-0.203-0.344-0.234s-0.281-0.016-0.406 0.047c0 0.021 0 0.031 0 0.031l-2.812 1.844-2.813-1.844c-0.125-0.083-0.255-0.109-0.391-0.078s-0.245 0.109-0.328 0.234c0 0-0.005 0-0.016 0s-0.016 0-0.016 0l-1.688 2.875-3.344-0.469c-0.146-0.021-0.281 0.010-0.406 0.094s-0.188 0.198-0.188 0.344c-0.021 0.021-0.031 0.031-0.031 0.031l-0.281 3.313-3.188 1c-0.146 0.042-0.25 0.125-0.313 0.25s-0.073 0.26-0.031 0.406c0 0 0 0.005 0 0.016s0 0.016 0 0.016l1.188 3.094-2.438 2.25c-0.104 0.104-0.161 0.229-0.172 0.375s0.036 0.271 0.141 0.375c0.021 0.021 0.031 0.031 0.031 0.031l2.438 2.281-1.188 3.062c-0.063 0.146-0.063 0.286 0 0.422s0.167 0.234 0.313 0.297c0 0 0.010 0 0.031 0l0.688 0.219-3.906 6.375c-0.083 0.125-0.109 0.26-0.078 0.406s0.109 0.26 0.234 0.344c0.063 0.042 0.125 0.068 0.188 0.078s0.125 0.005 0.188-0.016l5.344-0.969 0.969 4.812c0.021 0.104 0.073 0.198 0.156 0.281s0.177 0.135 0.281 0.156c0 0 0.010 0 0.031 0s0.042 0 0.063 0c0.083 0 0.167-0.021 0.25-0.063s0.146-0.104 0.188-0.187l3.75-5.594 0.781 1.313c0.042 0.063 0.094 0.115 0.156 0.156s0.125 0.073 0.188 0.094c0.021 0 0.042 0 0.062 0s0.042 0 0.063 0c0.062 0 0.115-0.005 0.156-0.016s0.083-0.026 0.125-0.047l2.813-1.844 2.812 1.844c0.125 0.083 0.255 0.109 0.391 0.078s0.245-0.109 0.328-0.234c0 0 0.005-0.005 0.016-0.016s0.016-0.016 0.016-0.016l0.781-1.313 3.75 5.594c0.042 0.083 0.104 0.146 0.188 0.187s0.167 0.063 0.25 0.063c0.021 0 0.042 0 0.063 0s0.031 0 0.031 0c0.104-0.021 0.198-0.073 0.281-0.156s0.135-0.177 0.156-0.281l0.969-4.844 5.375 0.469c0.146 0.021 0.276-0.016 0.391-0.109s0.182-0.214 0.203-0.359c0-0.062-0.005-0.125-0.016-0.187s-0.036-0.115-0.078-0.156zM7.75 30.094l-0.812-4.063c-0.042-0.146-0.12-0.26-0.234-0.344s-0.245-0.115-0.391-0.094l-4.688 0.875 3.438-5.625 1.438 0.469 0.281 3.281c0.021 0.083 0.047 0.156 0.078 0.219s0.078 0.115 0.141 0.156c0.042 0.042 0.099 0.073 0.172 0.094s0.151 0.031 0.234 0.031l3.344-0.469 0.281 0.5-3.281 4.969zM20.531 23.781l-1.594 2.656-2.656-1.719c-0.083-0.062-0.177-0.094-0.281-0.094s-0.198 0.031-0.281 0.094l-2.656 1.719-1.594-2.656c-0.042-0.083-0.104-0.151-0.188-0.203s-0.177-0.078-0.281-0.078c0 0-0.005 0-0.016 0s-0.026 0.010-0.047 0.031l-3.125 0.406-0.281-3.062c0-0.125-0.036-0.229-0.109-0.313s-0.161-0.135-0.266-0.156l-3-0.938 1.125-2.906c0.042-0.083 0.052-0.182 0.031-0.297s-0.073-0.203-0.156-0.266l-2.281-2.125 2.281-2.125c0.083-0.083 0.135-0.177 0.156-0.281s0.010-0.208-0.031-0.313l-1.125-2.875 3.031-0.938c0.104-0.042 0.188-0.104 0.25-0.188s0.104-0.177 0.125-0.281l0.25-3.094 3.125 0.438c0.104 0.021 0.208 0.005 0.313-0.047s0.177-0.12 0.219-0.203l1.625-2.688 2.625 1.75c0.083 0.042 0.177 0.063 0.281 0.063s0.198-0.021 0.281-0.063l2.656-1.75 1.594 2.688c0.063 0.083 0.141 0.151 0.234 0.203s0.193 0.068 0.297 0.047l3.125-0.438 0.281 3.094c0 0.104 0.036 0.198 0.109 0.281s0.161 0.146 0.266 0.188l3 0.938-1.125 2.875c-0.042 0.104-0.052 0.208-0.031 0.313s0.073 0.198 0.156 0.281l2.281 2.125-2.281 2.125c-0.083 0.063-0.135 0.151-0.156 0.266s-0.010 0.214 0.031 0.297l1.125 2.906-3.031 0.938c-0.083 0.021-0.161 0.073-0.234 0.156s-0.109 0.188-0.109 0.313l-0.281 3.062-3.125-0.406c-0.104-0.021-0.203-0.010-0.297 0.031s-0.172 0.115-0.234 0.219zM25.656 25.594c-0.146 0-0.271 0.036-0.375 0.109s-0.177 0.182-0.219 0.328l-0.812 4.063-3.281-4.969 0.281-0.5 3.344 0.469c0.146 0.021 0.281-0.016 0.406-0.109s0.198-0.214 0.219-0.359c0 0 0-0.010 0-0.031l0.281-3.281 1.438-0.469 3.469 5.187-4.75-0.438zM24 11.188c0-0.438-0.156-0.813-0.469-1.125s-0.688-0.469-1.125-0.469h-3.75v-2.125c0-0.729-0.26-1.354-0.781-1.875s-1.146-0.781-1.875-0.781c-0.146 0-0.271 0.052-0.375 0.156s-0.156 0.229-0.156 0.375v2.531l-0.969 1.906-1.719 1.375c0-0.125-0.052-0.24-0.156-0.344s-0.219-0.156-0.344-0.156h-3.75c-0.146 0-0.271 0.052-0.375 0.156s-0.156 0.229-0.156 0.375v8c0 0.146 0.052 0.271 0.156 0.375s0.229 0.156 0.375 0.156h3.75c0.146 0 0.271-0.052 0.375-0.156s0.156-0.229 0.156-0.375h8c0.438 0 0.812-0.156 1.125-0.469s0.469-0.688 0.469-1.125c0-0.125-0.021-0.255-0.062-0.391s-0.094-0.266-0.156-0.391c0.042-0.021 0.089-0.052 0.141-0.094s0.099-0.083 0.141-0.125c0.25-0.25 0.401-0.552 0.453-0.906s-0.016-0.688-0.203-1c0.042-0.042 0.088-0.078 0.141-0.109s0.099-0.068 0.141-0.109c0.25-0.25 0.401-0.552 0.453-0.906s-0.016-0.688-0.203-1c0.042-0.042 0.088-0.078 0.141-0.109s0.099-0.068 0.141-0.109c0.146-0.146 0.26-0.318 0.344-0.516s0.125-0.411 0.125-0.641zM11.719 18.656h-2.656v-6.938h2.656v6.938zM22.781 11.594c-0.063 0.042-0.125 0.078-0.188 0.109s-0.125 0.036-0.188 0.016h-2.125v1.094h1.594c0.146 0 0.271 0.052 0.375 0.156s0.156 0.229 0.156 0.375c0 0.063-0.016 0.125-0.047 0.188s-0.068 0.125-0.109 0.187c-0.063 0.042-0.125 0.078-0.188 0.109s-0.125 0.047-0.188 0.047h-2.156v1.062h1.625c0.146 0 0.271 0.052 0.375 0.156s0.156 0.229 0.156 0.375c0 0.063-0.016 0.13-0.047 0.203s-0.068 0.13-0.109 0.172c-0.063 0.042-0.125 0.078-0.188 0.109s-0.125 0.047-0.187 0.047h-2.156v1.063h1.625c0.146 0 0.271 0.052 0.375 0.156s0.156 0.229 0.156 0.375c0 0.083-0.016 0.156-0.047 0.219s-0.078 0.115-0.141 0.156c-0.042 0.062-0.094 0.104-0.156 0.125s-0.125 0.031-0.188 0.031h-8v-5.594l2.469-1.969c0.021-0.042 0.042-0.073 0.063-0.094s0.042-0.052 0.062-0.094l1.063-2.125c0.021-0.042 0.036-0.083 0.047-0.125s0.016-0.083 0.016-0.125v-2.031c0.313 0.104 0.568 0.297 0.766 0.578s0.297 0.589 0.297 0.922v2.656c0 0.146 0.052 0.271 0.156 0.375s0.229 0.156 0.375 0.156h4.281c0.146 0 0.271 0.052 0.375 0.156s0.156 0.229 0.156 0.375c0 0.083-0.016 0.156-0.047 0.219s-0.068 0.125-0.109 0.187z"></path>
</symbol>
<symbol id="icon-circle" viewBox="0 0 32 32">
<path d="M15.5 0c-8.56 0-15.5 6.94-15.5 15.5s6.94 15.5 15.5 15.5c8.56 0 15.5-6.94 15.5-15.5s-6.94-15.5-15.5-15.5zM20.5 15.5c0 2.757-2.243 5-5 5s-5-2.243-5-5c0-2.757 2.243-5 5-5s5 2.243 5 5z"></path>
</symbol>
<symbol id="icon-star-full" viewBox="0 0 32 32">
<path d="M32 12.408l-11.056-1.607-4.944-10.018-4.944 10.018-11.056 1.607 8 7.798-1.889 11.011 9.889-5.199 9.889 5.199-1.889-11.011 8-7.798z"></path>
</symbol>
<symbol id="icon-users" viewBox="0 0 36 32">
<path d="M24 24.082v-1.649c2.203-1.241 4-4.337 4-7.432 0-4.971 0-9-6-9s-6 4.029-6 9c0 3.096 1.797 6.191 4 7.432v1.649c-6.784 0.555-12 3.888-12 7.918h28c0-4.030-5.216-7.364-12-7.918z"></path>
<path d="M10.225 24.854c1.728-1.13 3.877-1.989 6.243-2.513-0.47-0.556-0.897-1.176-1.265-1.844-0.95-1.726-1.453-3.627-1.453-5.497 0-2.689 0-5.228 0.956-7.305 0.928-2.016 2.598-3.265 4.976-3.734-0.529-2.39-1.936-3.961-5.682-3.961-6 0-6 4.029-6 9 0 3.096 1.797 6.191 4 7.432v1.649c-6.784 0.555-12 3.888-12 7.918h8.719c0.454-0.403 0.956-0.787 1.506-1.146z"></path>
</symbol>
<symbol id="icon-arrow-right" viewBox="0 0 32 32">
<path d="M19.414 27.414l10-10c0.781-0.781 0.781-2.047 0-2.828l-10-10c-0.781-0.781-2.047-0.781-2.828 0s-0.781 2.047 0 2.828l6.586 6.586h-19.172c-1.105 0-2 0.895-2 2s0.895 2 2 2h19.172l-6.586 6.586c-0.39 0.39-0.586 0.902-0.586 1.414s0.195 1.024 0.586 1.414c0.781 0.781 2.047 0.781 2.828 0z"></path>
</symbol>
<symbol id="icon-thumb_up" viewBox="0 0 24 24">
<path d="M23.016 9.984v2.016q0 0.375-0.141 0.75l-3.047 7.031q-0.469 1.219-1.828 1.219h-9q-0.797 0-1.406-0.609t-0.609-1.406v-9.984q0-0.797 0.609-1.406l6.563-6.609 1.078 1.078q0.422 0.422 0.422 1.031v0.328l-0.984 4.594h6.328q0.797 0 1.406 0.586t0.609 1.383zM0.984 21v-12h4.031v12h-4.031z"></path>
</symbol>
<symbol id="icon-verified_user" viewBox="0 0 24 24">
<path d="M9.984 17.016l8.016-8.016-1.406-1.406-6.609 6.563-2.578-2.578-1.406 1.406zM12 0.984l9 4.031v6q0 4.172-2.578 7.617t-6.422 4.383q-3.844-0.938-6.422-4.383t-2.578-7.617v-6z"></path>
</symbol>
<symbol id="icon-medal-2" viewBox="0 0 32 32">
<path d="M9.193 20.037c-1.25 0-1.416-0.584-1.416-0.584l-4.875 9.58 3.909-0.438 2.162 3.25c0 0 4.5-9.393 4.5-9.33-2.33-0.056-1.405-2.415-4.28-2.478zM20.182 21.065c0.607-1.020 1.504-1.537 2.691-1.553s1.787-0.617 1.803-1.804c0.016-1.186 0.533-2.083 1.553-2.689s1.24-1.428 0.66-2.463-0.58-2.071 0-3.106 0.359-1.856-0.66-2.463-1.537-1.503-1.553-2.69c-0.016-1.186-0.617-1.787-1.803-1.803-1.188-0.016-2.084-0.533-2.691-1.553-0.605-1.020-1.428-1.24-2.463-0.66s-2.070 0.58-3.105 0-1.856-0.359-2.463 0.66c-0.607 1.020-1.503 1.537-2.69 1.553s-1.787 0.618-1.803 1.804c-0.016 1.187-0.533 2.083-1.553 2.69s-1.24 1.428-0.66 2.463c0.58 1.035 0.58 2.071 0 3.106s-0.359 1.856 0.66 2.463c1.020 0.607 1.537 1.504 1.553 2.689 0.016 1.187 0.617 1.788 1.803 1.804s2.083 0.533 2.69 1.553c0.606 1.020 1.428 1.239 2.463 0.66s2.070-0.579 3.105 0 1.857 0.359 2.463-0.661zM17.518 16.004h-1.781v-6.726c-0.651 0.609-1.42 1.059-2.305 1.351v-1.617c0.465-0.152 0.971-0.44 1.517-0.865s0.92-0.92 1.123-1.486h1.446v9.343zM24.16 19.828c-3.562 0.375-2.838 1.256-3.65 1.943-0.938 1-2.107 0.807-2.107 0.807l5.5 9.455 1.35-3.5 3.846 0.5-4.939-9.205z"></path>
</symbol>
<symbol id="icon-heart" viewBox="0 0 20 20">
<path d="M10 3.22l-0.61-0.6c-0.983-0.931-2.314-1.504-3.779-1.504-3.038 0-5.5 2.462-5.5 5.5 0 1.462 0.571 2.791 1.501 3.776l-0.002-0.003 8.39 8.39 8.39-8.4c0.928-0.983 1.499-2.312 1.499-3.774 0-3.038-2.462-5.5-5.5-5.5-1.465 0-2.796 0.573-3.782 1.506l0.003-0.002-0.61 0.61z"></path>
</symbol>
<symbol id="icon-home_work" viewBox="0 0 24 24">
<path d="M9.984 3h13.031v18h-6v-3.984h1.969v-2.016h-1.969v-2.016h1.969v-1.969h-1.969v-1.828l-2.016-1.359v-0.844h-1.266q-1.594-1.031-3.75-2.484v-1.5zM8.156 5.719l6.844 4.547v10.734h-5.016v-8.016h-3.984v8.016h-5.016v-10.5z"></path>
</symbol>
<symbol id="icon-calendar" viewBox="0 0 32 32">
<path d="M28 30h-24c-1.104 0-2-0.896-2-2v-21c0-1.104 0.896-2 2-2h2v1c0 1.657 1.343 3 3 3s3-1.343 3-3v-1h8v1c0 1.657 1.344 3 3 3s3-1.343 3-3v-1h2c1.104 0 2 0.896 2 2v21c0 1.104-0.896 2-2 2zM28 12h-24v16h24v-16zM13.069 19.829c0.197-0.314 0.296-0.646 0.296-0.993 0-0.773-0.416-1.16-1.248-1.16-0.723 0-1.414 0.287-2.074 0.861v-1.629c0.73-0.473 1.555-0.709 2.473-0.709 0.859 0 1.53 0.216 2.013 0.647s0.724 1.015 0.724 1.749c0 0.98-0.588 1.994-1.764 3.041l-1.729 1.535v0.035h3.41v1.535h-5.531v-1.441l2.408-2.303c0.484-0.464 0.825-0.853 1.022-1.168zM19.837 23.166c0.264-0.203 0.396-0.486 0.396-0.85 0-0.375-0.163-0.664-0.489-0.867s-0.774-0.305-1.345-0.305h-0.756v-1.418h0.697c1.094 0 1.641-0.363 1.641-1.090 0-0.684-0.42-1.025-1.26-1.025-0.562 0-1.109 0.182-1.641 0.545v-1.512c0.59-0.297 1.277-0.445 2.062-0.445 0.859 0 1.528 0.193 2.007 0.58s0.718 0.889 0.718 1.506c0 1.098-0.557 1.785-1.67 2.062v0.029c0.594 0.074 1.062 0.29 1.406 0.647s0.516 0.796 0.516 1.315c0 0.785-0.287 1.406-0.861 1.863s-1.367 0.686-2.379 0.686c-0.867 0-1.572-0.141-2.115-0.422v-1.611c0.562 0.41 1.219 0.615 1.969 0.615 0.472 0.002 0.84-0.1 1.104-0.303zM22.969 8c-1.088 0-1.969-0.881-1.969-1.969v-2.062c0-1.088 0.881-1.969 1.969-1.969s1.969 0.881 1.969 1.969v2.062c0 1.088-0.881 1.969-1.969 1.969zM8.969 8c-1.088 0-1.969-0.881-1.969-1.969v-2.062c0-1.088 0.881-1.969 1.969-1.969s1.969 0.881 1.969 1.969v2.062c0 1.088-0.882 1.969-1.969 1.969z"></path>
</symbol>
<symbol id="icon-emoji_transportation" viewBox="0 0 24 24">
<path d="M5.016 18.984h1.969v2.016h-1.969v-2.016zM5.016 15h1.969v2.016h-1.969v-2.016zM9.984 5.016h2.016v1.969h-2.016v-1.969zM5.016 11.016h1.969v1.969h-1.969v-1.969zM14.016 9v-5.016h-6v5.016h-5.016v12h-0.984v-12.984h4.969v-5.016h8.016v6h-0.984zM20.016 17.016q0.422 0 0.703-0.305t0.281-0.727-0.281-0.703-0.703-0.281-0.727 0.281-0.305 0.703 0.305 0.727 0.727 0.305zM12 17.016q0.422 0 0.703-0.305t0.281-0.727-0.281-0.703-0.703-0.281-0.703 0.281-0.281 0.703 0.281 0.727 0.703 0.305zM12.422 11.016l-1.031 3h9.234l-1.031-3h-7.172zM20.578 10.641l1.406 4.125v5.531q0 0.281-0.211 0.492t-0.492 0.211h-0.609q-0.281 0-0.469-0.234t-0.188-0.516v-1.266h-8.016v1.266q0 0.281-0.211 0.516t-0.492 0.234h-0.609q-0.656 0-0.656-0.703l-0.047-5.531 1.453-4.125q0.234-0.656 0.984-0.656h7.172q0.75 0 0.984 0.656z"></path>
</symbol>
<symbol id="icon-library" viewBox="0 0 20 20">
<path d="M0 6l10-6 10 6v2h-20v-2zM0 18h20v2h-20v-2zM2 16h16v2h-16v-2zM2 8h4v8h-4v-8zM8 8h4v8h-4v-8zM14 8h4v8h-4v-8z"></path>
</symbol>
<symbol id="icon-time" viewBox="0 0 32 32">
<path d="M16 3.5c-7.181 0-13 5.82-13 13s5.819 13 13 13c7.179 0 13-5.82 13-13s-5.82-13-13-13zM15.895 27.027c-5.799 0-10.5-4.701-10.5-10.5s4.701-10.5 10.5-10.5c5.798 0 10.5 4.701 10.5 10.5s-4.702 10.5-10.5 10.5zM18.93 17.131h-2.98v-5.032c0-0.546-0.443-0.99-0.989-0.99s-0.99 0.443-0.99 0.99v6.021c0 0.547 0.443 0.989 0.99 0.989h3.969c0.547 0 0.99-0.442 0.99-0.989 0-0.546-0.443-0.989-0.99-0.989z"></path>
</symbol>
<symbol id="icon-map" viewBox="0 0 32 32">
<path d="M19.985 28.050l7.033-3.214v-20.886l-7.033 3.213v20.887zM12.015 24.836l6.98 2.893v-20.887l-6.98-2.892v20.886zM3.981 7.163v20.887l7.043-2.892v-20.887l-7.043 2.892z"></path>
</symbol>
<symbol id="icon-satellite" viewBox="0 0 33 32">
<path d="M0 20.863l11.137 11.137c0 0 2.659-6.311-1.083-10.053-3.701-3.701-10.054-1.084-10.054-1.084zM29.875 21.748l-5.656 5.656 0.707 0.707 5.656-5.656-0.707-0.707zM32.703 23.162l-6.363-6.365c-0.781-0.779-2.049-0.779-2.828 0l-0.558 0.558-1.56-1.56 2.797-2.797c0.781-0.781 0.693-2.136-0.088-2.917l-3.447-3.447c-0.781-0.781-2.047-0.781-2.828 0l-2.543 2.454-1.34-1.34 0.091-0.090c0.781-0.781 0.781-2.048 0-2.829l-6.364-6.365c-0.781-0.781-2.047-0.781-2.829 0l-4.242 4.243c-0.781 0.781-0.781 2.048 0 2.829l6.364 6.364c0.781 0.781 2.047 0.781 2.829 0l1.391-1.391 1.378 1.39-2.559 2.559c-0.781 0.781-0.486 5.128-0.486 5.128l1.723 1.723c0 0 4.346 0.295 5.127-0.486l2.214-2.213 1.56 1.56-0.874 0.874c-0.781 0.781-0.781 2.047 0 2.828l6.365 6.363c0.781 0.781 2.047 0.781 2.828 0l4.242-4.242c0.781-0.784 0.781-2.050 0-2.831zM1.308 3.414l4.243-4.243c0.39-0.391 1.023-0.391 1.414 0l-5.657 5.657c-0.391-0.39-0.391-1.024 0-1.414zM2.015 5.535l5.657-5.657 0.707 0.707-5.657 5.657-0.707-0.707zM3.429 6.949l5.657-5.657 0.707 0.708-5.656 5.656-0.708-0.707zM4.844 8.364l5.656-5.657 0.708 0.707-5.657 5.657-0.707-0.707zM6.258 9.778l5.657-5.657 0.707 0.707-5.657 5.657-0.707-0.707zM9.086 11.192c-0.39 0.391-1.023 0.391-1.414 0l5.657-5.657c0.391 0.391 0.391 1.024 0 1.414l-4.243 4.243zM11.908 16.498l-0.53-0.531 7.31-7.31 0.531 0.53-7.311 7.311zM19.975 21.748l4.244-4.244c0.391-0.389 1.023-0.389 1.414 0l-5.658 5.658c-0.391-0.391-0.391-1.023 0-1.414zM31.996 25.283l-4.242 4.242c-0.391 0.391-1.023 0.391-1.414 0l-4.243-4.243 5.656-5.656-0.707-0.707-5.658 5.656-0.707-0.707 5.658-5.658 5.656 5.658c0.392 0.392 0.392 1.025 0.001 1.415zM31.289 23.162l-5.656 5.656 0.707 0.707 5.656-5.656-0.707-0.707zM28.461 20.334l-5.656 5.656 0.707 0.707 5.656-5.656-0.707-0.707z"></path>
</symbol>
  </defs>
</svg>
