<svg width="27" height="27" viewBox="0 0 27 27" fill="none" xmlns="http://www.w3.org/2000/svg">
<path d="M27 15.583C27 14.8096 26.8022 14.1108 26.4067 13.4868C26.0112 12.8628 25.4795 12.3926 24.8115 12.0762V5.2207C24.8115 4.5 24.6797 3.82324 24.416 3.19043C24.1348 2.55762 23.7568 2.00391 23.2822 1.5293C22.8076 1.05469 22.2539 0.676758 21.6211 0.395508C20.9883 0.131836 20.3115 0 19.5908 0C18.8701 0 18.1934 0.131836 17.5605 0.395508C16.9277 0.676758 16.374 1.05469 15.8994 1.5293C15.4248 2.00391 15.0557 2.55762 14.792 3.19043C14.5107 3.82324 14.3701 4.5 14.3701 5.2207V5.74805C14.0889 5.69531 13.8076 5.66455 13.5264 5.65576C13.2451 5.64697 12.9639 5.66895 12.6826 5.72168C12.665 5.72168 12.6475 5.72168 12.6299 5.72168C12.6123 5.72168 12.5947 5.73047 12.5771 5.74805C12.5947 5.66016 12.6079 5.57227 12.6167 5.48438C12.6255 5.39648 12.6299 5.30859 12.6299 5.2207V3.48047C12.6299 3.12891 12.5112 2.83008 12.2739 2.58398C12.0366 2.33789 11.751 2.20605 11.417 2.18848C10.9775 1.50293 10.4019 0.966797 9.68994 0.580078C8.97803 0.193359 8.21777 0 7.40918 0C6.09082 0 4.96143 0.46582 4.021 1.39746C3.08057 2.3291 2.61035 3.4541 2.61035 4.77246V5.2207C2.61035 5.71289 2.729 6.17871 2.96631 6.61816C3.20361 7.05762 3.52441 7.41797 3.92871 7.69922V7.72559C3.92871 8.28809 4.04736 8.80225 4.28467 9.26807C4.52197 9.73389 4.83398 10.125 5.2207 10.4414V11.3906L3.26953 11.707C2.32031 11.8652 1.53809 12.3091 0.922852 13.0386C0.307617 13.7681 0 14.6162 0 15.583V19.1689H7.69922C6.96094 19.4502 6.36328 19.9204 5.90625 20.5796C5.44922 21.2388 5.2207 21.9814 5.2207 22.8076V27H21.7793V22.8076C21.7793 21.9814 21.5508 21.2388 21.0938 20.5796C20.6367 19.9204 20.0391 19.4502 19.3008 19.1689H27V15.583ZM15.2402 5.2207C15.2402 4.02539 15.6665 3.00146 16.519 2.14893C17.3716 1.29639 18.3955 0.870117 19.5908 0.870117C20.8037 0.870117 21.832 1.29639 22.6758 2.14893C23.5195 3.00146 23.9414 4.02539 23.9414 5.2207V11.7598C23.9062 11.7422 23.8711 11.729 23.8359 11.7202C23.8008 11.7114 23.7656 11.707 23.7305 11.707L21.7793 11.3906V10.4414C22.166 10.125 22.478 9.73389 22.7153 9.26807C22.9526 8.80225 23.0713 8.28809 23.0713 7.72559V4.9834L22.4648 5.27344C22.4648 5.27344 22.2363 5.33936 21.7793 5.47119C21.3223 5.60303 20.5928 5.66895 19.5908 5.66895C18.6064 5.66895 17.8857 5.60303 17.4287 5.47119C16.9717 5.33936 16.7432 5.27344 16.7432 5.27344L16.1104 4.95703V6.35449C15.9697 6.28418 15.8291 6.21387 15.6885 6.14355C15.5479 6.07324 15.3984 6.01172 15.2402 5.95898V5.2207ZM18.0352 8.30566C17.8945 8.04199 17.7363 7.80469 17.5605 7.59375C17.3848 7.38281 17.1914 7.18066 16.9805 6.9873V6.24902C17.2441 6.31934 17.5913 6.38525 18.022 6.44678C18.4526 6.5083 18.9756 6.53906 19.5908 6.53906C20.2236 6.53906 20.7554 6.5083 21.186 6.44678C21.6167 6.38525 21.9551 6.31934 22.2012 6.24902V7.72559C22.2012 8.44629 21.9463 9.06592 21.4365 9.58447C20.9268 10.103 20.3115 10.3623 19.5908 10.3623C19.5205 10.3623 19.4502 10.3579 19.3799 10.3491C19.3096 10.3403 19.2393 10.3271 19.1689 10.3096V9.67676C19.1689 9.3252 19.0591 9.02197 18.8394 8.76709C18.6196 8.51221 18.3516 8.3584 18.0352 8.30566ZM18.7734 13.1572C18.8965 12.876 18.9932 12.5771 19.0635 12.2607C19.1338 11.9443 19.1689 11.6279 19.1689 11.3115V11.1797C19.2393 11.1973 19.3096 11.2104 19.3799 11.2192C19.4502 11.228 19.5205 11.2324 19.5908 11.2324C19.8193 11.2324 20.0435 11.2061 20.2632 11.1533C20.4829 11.1006 20.6982 11.0391 20.9092 10.9688V11.6807L19.5908 15.6094L18.7734 13.1572ZM18.8262 16.0312L17.6133 14.8184C17.7363 14.7305 17.8418 14.6294 17.9297 14.5151C18.0176 14.4009 18.1055 14.291 18.1934 14.1855L18.8262 16.0312ZM21.6475 12.2344L22.333 12.3662L22.5967 13.79L20.3818 16.0312L21.6475 12.2344ZM12.8145 6.5918C13.7461 6.43359 14.6338 6.56982 15.4775 7.00049C16.3213 7.43115 16.9541 8.06836 17.376 8.91211L17.5078 9.14941H17.7715C17.9121 9.14941 18.0352 9.19775 18.1406 9.29443C18.2461 9.39111 18.2988 9.51855 18.2988 9.67676V11.3115C18.2988 11.7686 18.2197 12.208 18.0615 12.6299C17.9033 13.0518 17.6924 13.4297 17.4287 13.7637V11.1006L16.8223 11.3643C16.8047 11.3643 16.5366 11.4302 16.0181 11.562C15.4995 11.6938 14.6602 11.7598 13.5 11.7598C12.3398 11.7598 11.5005 11.6938 10.9819 11.562C10.4634 11.4302 10.1953 11.3643 10.1777 11.3643L9.57129 11.1006V12.7617C9.39551 12.3926 9.27246 12.0059 9.20215 11.6016C9.13184 11.1973 9.12305 10.793 9.17578 10.3887C9.28125 9.42188 9.67676 8.58252 10.3623 7.87061C11.0479 7.15869 11.8652 6.73242 12.8145 6.5918ZM8.62207 12.7617C8.6748 12.8848 8.73193 13.0078 8.79346 13.1309C8.85498 13.2539 8.9209 13.377 8.99121 13.5L8.22656 13.0518L8.62207 12.7617ZM7.40918 12.5244L6.09082 11.5225V10.9688C6.30176 11.0391 6.51709 11.1006 6.73682 11.1533C6.95654 11.2061 7.18066 11.2324 7.40918 11.2324C7.5498 11.2324 7.69482 11.2192 7.84424 11.1929C7.99365 11.1665 8.13867 11.1357 8.2793 11.1006C8.29688 11.2412 8.31006 11.373 8.31885 11.4961C8.32764 11.6191 8.34961 11.751 8.38477 11.8916L7.40918 12.5244ZM9.20215 14.6338L9.62402 14.8975C9.69434 15.3721 9.83936 15.8115 10.0591 16.2158C10.2788 16.6201 10.5557 16.9717 10.8896 17.2705V18.2725H9.09668L8.72754 15.3457L9.20215 14.6338ZM11.2061 19.1953L12.7354 20.4082L11.4434 21.1729L10.2832 19.4062L11.2061 19.1953ZM11.7598 18.5098V17.877C12.0234 18 12.3003 18.0967 12.5903 18.167C12.8804 18.2373 13.1836 18.2725 13.5 18.2725C13.8164 18.2725 14.1196 18.2373 14.4097 18.167C14.6997 18.0967 14.9766 18 15.2402 17.877V18.5098L13.5 19.9072L11.7598 18.5098ZM15.7939 19.1953L16.7168 19.4062L15.5566 21.1729L14.2646 20.4082L15.7939 19.1953ZM13.5 17.4023C12.6562 17.4023 11.9355 17.1079 11.3379 16.519C10.7402 15.9302 10.4414 15.2139 10.4414 14.3701V12.3398C10.7402 12.4102 11.1401 12.4761 11.6411 12.5376C12.1421 12.5991 12.7617 12.6299 13.5 12.6299C14.2383 12.6299 14.8579 12.5991 15.3589 12.5376C15.8599 12.4761 16.2598 12.4102 16.5586 12.3398V14.3701C16.5586 15.2139 16.2598 15.9302 15.6621 16.519C15.0645 17.1079 14.3438 17.4023 13.5 17.4023ZM3.92871 4.95703V6.5127C3.78809 6.33691 3.67822 6.13477 3.59912 5.90625C3.52002 5.67773 3.48047 5.44922 3.48047 5.2207V4.77246C3.48047 3.7002 3.86279 2.78174 4.62744 2.01709C5.39209 1.25244 6.31934 0.870117 7.40918 0.870117C8.09473 0.870117 8.74072 1.0459 9.34717 1.39746C9.95361 1.74902 10.4326 2.22363 10.7842 2.82129L10.916 3.03223H11.3115C11.4346 3.03223 11.54 3.07617 11.6279 3.16406C11.7158 3.25195 11.7598 3.35742 11.7598 3.48047V5.2207C11.7598 5.36133 11.7466 5.49756 11.7202 5.62939C11.6938 5.76123 11.6543 5.88867 11.6016 6.01172C11.4785 6.06445 11.3555 6.12158 11.2324 6.18311C11.1094 6.24463 10.9951 6.30176 10.8896 6.35449V4.9834L10.2568 5.27344C10.2568 5.27344 10.0283 5.33936 9.57129 5.47119C9.11426 5.60303 8.39355 5.66895 7.40918 5.66895C6.40723 5.66895 5.67773 5.60303 5.2207 5.47119C4.76367 5.33936 4.53516 5.27344 4.53516 5.27344L3.92871 4.95703ZM4.79883 7.72559V6.24902C5.04492 6.31934 5.3833 6.38525 5.81396 6.44678C6.24463 6.5083 6.77637 6.53906 7.40918 6.53906C8.02441 6.53906 8.54736 6.5083 8.97803 6.44678C9.40869 6.38525 9.75586 6.31934 10.0195 6.24902V6.9873C9.5625 7.40918 9.18457 7.89258 8.88574 8.4375C8.58691 8.98242 8.40234 9.5625 8.33203 10.1777C8.17383 10.2305 8.02002 10.2744 7.87061 10.3096C7.72119 10.3447 7.56738 10.3623 7.40918 10.3623C6.68848 10.3623 6.07324 10.103 5.56348 9.58447C5.05371 9.06592 4.79883 8.44629 4.79883 7.72559ZM5.53711 12.208L6.61816 13.0254L5.37891 13.7637L4.53516 12.3926L5.53711 12.208ZM5.72168 18.2725H3.48047V16.9805H2.61035V18.2725H0.870117V15.583C0.870117 14.8271 1.11182 14.168 1.59521 13.6055C2.07861 13.043 2.68945 12.7002 3.42773 12.5771L3.6123 12.5244L5.08887 14.9502L5.61621 14.6338L6.09082 15.3457L5.72168 18.2725ZM6.5918 18.2725L6.9873 15.1348L6.35449 14.1855L7.40918 13.5791L8.4375 14.1855L7.83105 15.1348L8.22656 18.2725H6.5918ZM11.8125 26.1299H8.70117V23.9414H7.83105V26.1299H6.09082V22.8076C6.09082 22.0869 6.31055 21.4497 6.75 20.896C7.18945 20.3423 7.76074 19.9863 8.46387 19.8281L9.36035 19.6172L11.1797 22.3594L11.707 22.043L12.1816 22.7549L11.8125 26.1299ZM14.3174 26.1299H12.6826L13.0781 22.5176L12.4453 21.5947L13.5 20.9619L14.5547 21.5947L13.9219 22.5176L14.3174 26.1299ZM20.9092 22.8076V26.1299H19.1689V23.9414H18.2988V26.1299H15.1875L14.8184 22.7549L15.293 22.043L15.8203 22.3594L17.6396 19.6172L18.5361 19.8281C19.2393 19.9863 19.8105 20.3423 20.25 20.896C20.6895 21.4497 20.9092 22.0869 20.9092 22.8076ZM26.1299 18.2725H24.3896V16.9805H23.5195V18.2725H16.1104V17.2705C16.3564 17.0596 16.5718 16.8135 16.7563 16.5322C16.9409 16.251 17.0859 15.9521 17.1914 15.6357L19.5908 18.0352L23.5459 14.0801L23.2295 12.498L23.5723 12.5771C24.3105 12.7002 24.9214 13.043 25.4048 13.6055C25.8882 14.168 26.1299 14.8271 26.1299 15.583V18.2725Z" fill="white"/>
</svg>
