<svg width="16" height="16" viewBox="0 0 16 16" fill="none" xmlns="http://www.w3.org/2000/svg">
<path d="M8.64038 0.53125C8.48396 0.206597 8.1534 0 7.79038 0C7.42736 0 7.09976 0.206597 6.94038 0.53125L5.04264 4.43594L0.804444 5.06163C0.450277 5.11476 0.155138 5.36267 0.0459368 5.70208C-0.0632646 6.04149 0.0252769 6.41632 0.279096 6.66719L3.35444 9.71007L2.6284 14.0102C2.56937 14.3644 2.71694 14.7245 3.00913 14.934C3.30132 15.1436 3.68795 15.1701 4.0067 15.0019L7.79333 12.9802L11.58 15.0019C11.8987 15.1701 12.2853 15.1465 12.5775 14.934C12.8697 14.7215 13.0173 14.3644 12.9583 14.0102L12.2293 9.71007L15.3046 6.66719C15.5584 6.41632 15.6499 6.04149 15.5378 5.70208C15.4256 5.36267 15.1334 5.11476 14.7793 5.06163L10.5381 4.43594L8.64038 0.53125Z" fill="#4CAF50"/>
</svg>
