<svg width="13" height="14" viewBox="0 0 13 14" fill="none" xmlns="http://www.w3.org/2000/svg">
<path d="M0.856934 7.54541L0.206543 6.89502C-0.0688477 6.61963 -0.0688477 6.17432 0.206543 5.90186L5.89893 0.206543C6.17432 -0.0688477 6.61963 -0.0688477 6.89209 0.206543L12.5845 5.89893C12.8599 6.17432 12.8599 6.61963 12.5845 6.89209L11.9341 7.54248C11.6558 7.8208 11.2017 7.81494 10.9292 7.53076L7.56885 4.00342V12.4233C7.56885 12.813 7.25537 13.1265 6.86572 13.1265H5.92822C5.53857 13.1265 5.2251 12.813 5.2251 12.4233V4.00342L1.86182 7.53369C1.58936 7.8208 1.13525 7.82666 0.856934 7.54541Z" fill="white"/>
</svg>
