<svg width="30" height="30" viewBox="0 0 30 30" fill="none" xmlns="http://www.w3.org/2000/svg">
<path d="M9.4043 27.334H20.5957C20.7324 27.334 20.8301 27.2998 20.8887 27.2314C20.9473 27.1631 20.9766 27.0801 20.9766 26.9824V3.01758C20.9766 2.90039 20.9375 2.8125 20.8594 2.75391C20.7812 2.69531 20.6934 2.66602 20.5957 2.66602H9.4043C9.26758 2.66602 9.16992 2.7002 9.11133 2.76855C9.05273 2.83691 9.02344 2.91992 9.02344 3.01758V26.9824C9.02344 27.0801 9.0625 27.1631 9.14062 27.2314C9.21875 27.2998 9.30664 27.334 9.4043 27.334ZM9.75586 15.4102H14.5898V20.8594H9.75586V15.4102ZM15.3516 15.4102H20.1855V20.8594H15.3516V15.4102ZM20.2441 14.6484H15.3516V9.19922H20.1855V14.6484H20.2441ZM14.6484 14.6484H9.81445V9.19922H14.6484V14.6484ZM9.75586 21.5625H14.5898V26.5723H9.75586V21.5625ZM15.3516 26.5723V21.5625H20.1855V26.5723H15.3516ZM20.2441 8.4375H15.3516V3.36914H20.1855V8.4375H20.2441ZM14.6484 3.36914V8.4375H9.81445V3.36914H14.6484ZM2.19727 5.91797H4.77539C4.89258 5.91797 4.98047 5.87891 5.03906 5.80078C5.09766 5.72266 5.12695 5.63477 5.12695 5.53711C5.12695 5.45898 5.09766 5.38086 5.03906 5.30273C4.98047 5.22461 4.89258 5.18555 4.77539 5.18555H2.19727C2.09961 5.18555 2.01172 5.21484 1.93359 5.27344C1.85547 5.33203 1.81641 5.41992 1.81641 5.53711C1.81641 5.67383 1.85547 5.77148 1.93359 5.83008C2.01172 5.88867 2.09961 5.91797 2.19727 5.91797ZM4.77539 7.85156H2.19727C2.08008 7.85156 1.9873 7.89062 1.91895 7.96875C1.85059 8.04688 1.81641 8.125 1.81641 8.20312C1.81641 8.30078 1.85547 8.38379 1.93359 8.45215C2.01172 8.52051 2.09961 8.55469 2.19727 8.55469H4.77539C4.89258 8.55469 4.98047 8.52051 5.03906 8.45215C5.09766 8.38379 5.12695 8.30078 5.12695 8.20312C5.12695 8.125 5.09766 8.04688 5.03906 7.96875C4.98047 7.89062 4.89258 7.85156 4.77539 7.85156ZM4.77539 10.5762H2.19727C2.08008 10.5762 1.9873 10.6104 1.91895 10.6787C1.85059 10.7471 1.81641 10.8301 1.81641 10.9277C1.81641 11.0059 1.85547 11.084 1.93359 11.1621C2.01172 11.2402 2.09961 11.2793 2.19727 11.2793H4.77539C4.89258 11.2793 4.98047 11.2402 5.03906 11.1621C5.09766 11.084 5.12695 11.0059 5.12695 10.9277C5.12695 10.8301 5.09766 10.7471 5.03906 10.6787C4.98047 10.6104 4.89258 10.5762 4.77539 10.5762ZM4.77539 13.3008H2.19727C2.08008 13.3008 1.9873 13.335 1.91895 13.4033C1.85059 13.4717 1.81641 13.5547 1.81641 13.6523C1.81641 13.7305 1.85547 13.8086 1.93359 13.8867C2.01172 13.9648 2.09961 14.0039 2.19727 14.0039H4.77539C4.89258 14.0039 4.98047 13.9648 5.03906 13.8867C5.09766 13.8086 5.12695 13.7305 5.12695 13.6523C5.12695 13.5547 5.09766 13.4717 5.03906 13.4033C4.98047 13.335 4.89258 13.3008 4.77539 13.3008ZM4.77539 15.9961H2.19727C2.08008 15.9961 1.9873 16.0352 1.91895 16.1133C1.85059 16.1914 1.81641 16.2695 1.81641 16.3477C1.81641 16.4453 1.85547 16.5283 1.93359 16.5967C2.01172 16.665 2.09961 16.6992 2.19727 16.6992H4.77539C4.89258 16.6992 4.98047 16.665 5.03906 16.5967C5.09766 16.5283 5.12695 16.4453 5.12695 16.3477C5.12695 16.2695 5.09766 16.1914 5.03906 16.1133C4.98047 16.0352 4.89258 15.9961 4.77539 15.9961ZM4.77539 18.7207H2.19727C2.08008 18.7207 1.9873 18.7598 1.91895 18.8379C1.85059 18.916 1.81641 18.9941 1.81641 19.0723C1.81641 19.1895 1.85547 19.2773 1.93359 19.3359C2.01172 19.3945 2.09961 19.4238 2.19727 19.4238H4.77539C4.89258 19.4238 4.98047 19.3896 5.03906 19.3213C5.09766 19.2529 5.12695 19.1699 5.12695 19.0723C5.16602 18.9551 5.14648 18.8672 5.06836 18.8086C4.99023 18.75 4.89258 18.7207 4.77539 18.7207ZM4.77539 21.3867H2.19727C2.08008 21.3867 1.9873 21.4209 1.91895 21.4893C1.85059 21.5576 1.81641 21.6406 1.81641 21.7383C1.81641 21.8164 1.85547 21.8945 1.93359 21.9727C2.01172 22.0508 2.09961 22.0898 2.19727 22.0898H4.77539C4.89258 22.0898 4.98047 22.0508 5.03906 21.9727C5.09766 21.8945 5.12695 21.8164 5.12695 21.7383C5.12695 21.6406 5.09766 21.5576 5.03906 21.4893C4.98047 21.4209 4.89258 21.3867 4.77539 21.3867ZM4.77539 24.082H2.19727C2.08008 24.082 1.9873 24.1211 1.91895 24.1992C1.85059 24.2773 1.81641 24.3652 1.81641 24.4629C1.81641 24.541 1.85547 24.6191 1.93359 24.6973C2.01172 24.7754 2.09961 24.8145 2.19727 24.8145H4.77539C4.89258 24.8145 4.98047 24.7754 5.03906 24.6973C5.09766 24.6191 5.12695 24.541 5.12695 24.4629C5.12695 24.3652 5.09766 24.2773 5.03906 24.1992C4.98047 24.1211 4.89258 24.082 4.77539 24.082ZM25.2246 5.91797H27.8027C27.9199 5.91797 28.0127 5.87891 28.0811 5.80078C28.1494 5.72266 28.1836 5.63477 28.1836 5.53711C28.1836 5.45898 28.1445 5.38086 28.0664 5.30273C27.9883 5.22461 27.9004 5.18555 27.8027 5.18555H25.2246C25.1074 5.18555 25.0098 5.21484 24.9316 5.27344C24.8535 5.33203 24.8145 5.41992 24.8145 5.53711C24.8145 5.67383 24.8535 5.77148 24.9316 5.83008C25.0098 5.88867 25.1074 5.91797 25.2246 5.91797ZM25.2246 8.61328H27.8027C27.9199 8.61328 28.0127 8.5791 28.0811 8.51074C28.1494 8.44238 28.1836 8.35938 28.1836 8.26172C28.1836 8.18359 28.1445 8.10547 28.0664 8.02734C27.9883 7.94922 27.9004 7.91016 27.8027 7.91016H25.2246C25.1074 7.91016 25.0195 7.94922 24.9609 8.02734C24.9023 8.10547 24.873 8.18359 24.873 8.26172C24.873 8.35938 24.9023 8.44238 24.9609 8.51074C25.0195 8.5791 25.1074 8.61328 25.2246 8.61328ZM25.2246 11.3379H27.8027C27.9199 11.3379 28.0127 11.2988 28.0811 11.2207C28.1494 11.1426 28.1836 11.0645 28.1836 10.9863C28.1836 10.8887 28.1445 10.8057 28.0664 10.7373C27.9883 10.6689 27.9004 10.6348 27.8027 10.6348H25.2246C25.1074 10.6348 25.0195 10.6689 24.9609 10.7373C24.9023 10.8057 24.873 10.8887 24.873 10.9863C24.873 11.0645 24.9023 11.1426 24.9609 11.2207C25.0195 11.2988 25.1074 11.3379 25.2246 11.3379ZM25.2246 14.0625H27.8027C27.9199 14.0625 28.0127 14.0234 28.0811 13.9453C28.1494 13.8672 28.1836 13.7891 28.1836 13.7109C28.1836 13.6133 28.1445 13.5303 28.0664 13.4619C27.9883 13.3936 27.9004 13.3594 27.8027 13.3594H25.2246C25.1074 13.3594 25.0195 13.3936 24.9609 13.4619C24.9023 13.5303 24.873 13.6133 24.873 13.7109C24.873 13.7891 24.9023 13.8672 24.9609 13.9453C25.0195 14.0234 25.1074 14.0625 25.2246 14.0625ZM25.2246 16.6992H27.8027C27.9199 16.6992 28.0127 16.665 28.0811 16.5967C28.1494 16.5283 28.1836 16.4453 28.1836 16.3477C28.1836 16.2695 28.1445 16.1914 28.0664 16.1133C27.9883 16.0352 27.9004 15.9961 27.8027 15.9961H25.2246C25.1074 15.9961 25.0195 16.0352 24.9609 16.1133C24.9023 16.1914 24.873 16.2695 24.873 16.3477C24.873 16.4453 24.9023 16.5283 24.9609 16.5967C25.0195 16.665 25.1074 16.6992 25.2246 16.6992ZM25.2246 19.4238H27.8027C27.9199 19.4238 28.0127 19.3896 28.0811 19.3213C28.1494 19.2529 28.1836 19.1699 28.1836 19.0723C28.1836 18.9551 28.1445 18.8672 28.0664 18.8086C27.9883 18.75 27.9004 18.7207 27.8027 18.7207H25.2246C25.1074 18.7207 25.0195 18.7598 24.9609 18.8379C24.9023 18.916 24.873 18.9941 24.873 19.0723C24.834 19.1699 24.8535 19.2529 24.9316 19.3213C25.0098 19.3896 25.1074 19.4238 25.2246 19.4238ZM25.2246 22.1484H27.8027C27.9199 22.1484 28.0127 22.1094 28.0811 22.0312C28.1494 21.9531 28.1836 21.875 28.1836 21.7969C28.1836 21.6992 28.1445 21.6162 28.0664 21.5479C27.9883 21.4795 27.9004 21.4453 27.8027 21.4453H25.2246C25.1074 21.4453 25.0195 21.4795 24.9609 21.5479C24.9023 21.6162 24.873 21.6992 24.873 21.7969C24.873 21.875 24.9023 21.9531 24.9609 22.0312C25.0195 22.1094 25.1074 22.1484 25.2246 22.1484ZM27.8027 24.082H25.2246C25.1074 24.082 25.0195 24.1211 24.9609 24.1992C24.9023 24.2773 24.873 24.3652 24.873 24.4629C24.873 24.541 24.9072 24.6191 24.9756 24.6973C25.0439 24.7754 25.127 24.8145 25.2246 24.8145H27.8027C27.9199 24.8145 28.0127 24.7754 28.0811 24.6973C28.1494 24.6191 28.1836 24.541 28.1836 24.4629C28.1836 24.3652 28.1445 24.2773 28.0664 24.1992C27.9883 24.1211 27.9004 24.082 27.8027 24.082ZM29.6484 1.81641H23.6133V0.351562C23.6133 0.273438 23.5791 0.195312 23.5107 0.117188C23.4424 0.0390625 23.3594 0 23.2617 0H6.73828C6.62109 0 6.5332 0.0390625 6.47461 0.117188C6.41602 0.195312 6.38672 0.273438 6.38672 0.351562V1.81641H0.351562C0.273438 1.81641 0.195312 1.85547 0.117188 1.93359C0.0390625 2.01172 0 2.09961 0 2.19727V27.8027C0 27.9199 0.0390625 28.0127 0.117188 28.0811C0.195312 28.1494 0.273438 28.1836 0.351562 28.1836H6.38672V29.6484C6.38672 29.7656 6.4209 29.8535 6.48926 29.9121C6.55762 29.9707 6.64062 30 6.73828 30H23.2031C23.3203 30 23.4082 29.9609 23.4668 29.8828C23.5254 29.8047 23.5547 29.7266 23.5547 29.6484V28.1836H29.5898C29.707 28.1836 29.7949 28.1445 29.8535 28.0664C29.9121 27.9883 29.9414 27.9004 29.9414 27.8027V2.19727C29.9609 2.09961 29.9365 2.01172 29.8682 1.93359C29.7998 1.85547 29.7266 1.81641 29.6484 1.81641ZM0.761719 27.4512V2.60742H6.38672V27.4512H0.761719ZM22.8516 29.2969H7.14844V0.761719H22.9102V29.2969H22.8516ZM29.2383 27.4512H23.6133V2.60742H29.2383V27.4512Z" fill="#E8F5E9"/>
</svg>
