<svg width="14" height="10" viewBox="0 0 14 10" fill="none" xmlns="http://www.w3.org/2000/svg">
<path d="M13.7539 1.57227C13.6719 1.19857 13.4919 0.886394 13.2139 0.635742C12.9359 0.385091 12.6146 0.236979 12.25 0.191406C11.8125 0.145833 11.375 0.109375 10.9375 0.0820312C10.5 0.0546875 10.0625 0.0341797 9.625 0.0205078C9.1875 0.00683594 8.75 0 8.3125 0C7.875 0 7.4375 0 7 0C6.5625 0 6.125 0 5.6875 0C5.25 0 4.8125 0.00683594 4.375 0.0205078C3.9375 0.0341797 3.5 0.0546875 3.0625 0.0820312C2.625 0.109375 2.19206 0.145833 1.76367 0.191406C1.38997 0.236979 1.06413 0.385091 0.786133 0.635742C0.508138 0.886394 0.328125 1.19857 0.246094 1.57227C0.127604 2.10091 0.0569661 2.64779 0.0341797 3.21289C0.0113932 3.77799 0 4.33398 0 4.88086C0 5.42773 0.00911458 5.98372 0.0273438 6.54883C0.0455729 7.11393 0.11849 7.66081 0.246094 8.18945C0.328125 8.56315 0.508138 8.87533 0.786133 9.12598C1.06413 9.37663 1.38997 9.52018 1.76367 9.55664C2.19206 9.61133 2.625 9.65234 3.0625 9.67969C3.5 9.70703 3.9375 9.72526 4.375 9.73438C4.8125 9.74349 5.25 9.74805 5.6875 9.74805C6.125 9.75716 6.5625 9.76172 7 9.76172C7.4375 9.76172 7.875 9.75716 8.3125 9.74805C8.75 9.74805 9.1875 9.74349 9.625 9.73438C10.0625 9.72526 10.5 9.70703 10.9375 9.67969C11.375 9.65234 11.8079 9.61133 12.2363 9.55664C12.61 9.52018 12.9359 9.37663 13.2139 9.12598C13.4919 8.87533 13.6719 8.56315 13.7539 8.18945C13.8724 7.66081 13.943 7.11393 13.9658 6.54883C13.9886 5.98372 14 5.42773 14 4.88086C14 4.33398 13.9909 3.77799 13.9727 3.21289C13.9544 2.64779 13.8815 2.10091 13.7539 1.57227ZM5.19531 7.05469C5.19531 6.66276 5.19531 6.27539 5.19531 5.89258C5.19531 5.50977 5.19531 5.12467 5.19531 4.7373C5.19531 4.34994 5.19531 3.96484 5.19531 3.58203C5.19531 3.19922 5.19531 2.81185 5.19531 2.41992C5.56901 2.61133 5.93815 2.80729 6.30273 3.00781C6.67643 3.19922 7.04785 3.39062 7.41699 3.58203C7.78613 3.77344 8.15755 3.96484 8.53125 4.15625C8.89583 4.35677 9.26497 4.55273 9.63867 4.74414C9.27409 4.93555 8.90495 5.12695 8.53125 5.31836C8.15755 5.50977 7.78613 5.70117 7.41699 5.89258C7.04785 6.08398 6.67643 6.27995 6.30273 6.48047C5.93815 6.67188 5.56901 6.86328 5.19531 7.05469Z" fill="#4CAF50"/>
</svg>
